<?xml version="1.0" encoding="UTF-8" standalone="no"?>
<!DOCTYPE svg PUBLIC "-//W3C//DTD SVG 1.1//EN"
 "http://www.w3.org/Graphics/SVG/1.1/DTD/svg11.dtd">
<!-- Generated by graphviz version 2.40.1 (20161225.0304)
 -->
<!-- Title: dependencies Pages: 1 -->
<svg width="1190pt" height="211pt"
 viewBox="0.00 0.00 1190.00 211.00" xmlns="http://www.w3.org/2000/svg" xmlns:xlink="http://www.w3.org/1999/xlink">
<g id="graph0" class="graph" transform="scale(1 1) rotate(0) translate(4 207)">
<title>dependencies</title>
<polygon fill="#ffffff" stroke="transparent" points="-4,4 -4,-207 1186,-207 1186,4 -4,4"/>
<text text-anchor="start" x="570.0091" y="-42.4" font-family="sans-serif" font-weight="bold" font-size="14.00" fill="#000000">Legend</text>
<polygon fill="#ffffb3" stroke="transparent" points="357,-10 357,-30 377,-30 377,-10 357,-10"/>
<text text-anchor="start" x="380.629" y="-15.4" font-family="sans-serif" font-size="14.00" fill="#000000"> &#160;Declarations</text>
<polygon fill="#8dd3c7" stroke="transparent" points="470,-10 470,-30 490,-30 490,-10 470,-10"/>
<text text-anchor="start" x="493.7251" y="-15.4" font-family="sans-serif" font-size="14.00" fill="#000000"> &#160;Module</text>
<polygon fill="#80b1d3" stroke="transparent" points="556,-10 556,-30 576,-30 576,-10 556,-10"/>
<text text-anchor="start" x="579.7812" y="-15.4" font-family="sans-serif" font-size="14.00" fill="#000000"> &#160;Bootstrap</text>
<polygon fill="#fdb462" stroke="transparent" points="653,-10 653,-30 673,-30 673,-10 653,-10"/>
<text text-anchor="start" x="676.6732" y="-15.4" font-family="sans-serif" font-size="14.00" fill="#000000"> &#160;Providers</text>
<polygon fill="#fb8072" stroke="transparent" points="749,-10 749,-30 769,-30 769,-10 749,-10"/>
<text text-anchor="start" x="772.7258" y="-15.4" font-family="sans-serif" font-size="14.00" fill="#000000"> &#160;Exports</text>
<g id="clust1" class="cluster">
<title>cluster_MediaLibraryModule</title>
<polygon fill="none" stroke="#000000" stroke-dasharray="1,5" points="8,-70 8,-195 1174,-195 1174,-70 8,-70"/>
</g>
<g id="clust2" class="cluster">
<title>cluster_MediaLibraryModule_declarations</title>
<polygon fill="none" stroke="#000000" points="664,-78 664,-130 1166,-130 1166,-78 664,-78"/>
</g>
<g id="clust6" class="cluster">
<title>cluster_MediaLibraryModule_imports</title>
<polygon fill="none" stroke="#000000" points="228,-78 228,-130 656,-130 656,-78 228,-78"/>
</g>
<g id="clust9" class="cluster">
<title>cluster_MediaLibraryModule_providers</title>
<polygon fill="none" stroke="#000000" points="16,-78 16,-130 220,-130 220,-78 16,-78"/>
</g>
<!-- MediaMainComponent -->
<g id="node1" class="node">
<title>MediaMainComponent</title>
<polygon fill="#ffffb3" stroke="#000000" points="1158.147,-122 1011.853,-122 1011.853,-86 1158.147,-86 1158.147,-122"/>
<text text-anchor="middle" x="1085" y="-99.8" font-family="Times,serif" font-size="14.00" fill="#000000">MediaMainComponent</text>
</g>
<!-- MediaLibraryModule -->
<g id="node4" class="node">
<title>MediaLibraryModule</title>
<polygon fill="#8dd3c7" stroke="#000000" points="646.7935,-187 643.7935,-191 622.7935,-191 619.7935,-187 509.2065,-187 509.2065,-151 646.7935,-151 646.7935,-187"/>
<text text-anchor="middle" x="578" y="-164.8" font-family="Times,serif" font-size="14.00" fill="#000000">MediaLibraryModule</text>
</g>
<!-- MediaMainComponent&#45;&gt;MediaLibraryModule -->
<g id="edge1" class="edge">
<title>MediaMainComponent&#45;&gt;MediaLibraryModule</title>
<path fill="none" stroke="#000000" d="M1085,-122.2921C1085,-144.2057 1085,-178 1085,-178 1085,-178 656.9039,-178 656.9039,-178"/>
<polygon fill="#000000" stroke="#000000" points="656.904,-174.5001 646.9039,-178 656.9039,-181.5001 656.904,-174.5001"/>
</g>
<!-- MediaSearchComponent -->
<g id="node2" class="node">
<title>MediaSearchComponent</title>
<polygon fill="#ffffb3" stroke="#000000" points="993.6839,-122 838.3161,-122 838.3161,-86 993.6839,-86 993.6839,-122"/>
<text text-anchor="middle" x="916" y="-99.8" font-family="Times,serif" font-size="14.00" fill="#000000">MediaSearchComponent</text>
</g>
<!-- MediaSearchComponent&#45;&gt;MediaLibraryModule -->
<g id="edge2" class="edge">
<title>MediaSearchComponent&#45;&gt;MediaLibraryModule</title>
<path fill="none" stroke="#000000" d="M916,-122.1061C916,-141.3391 916,-169 916,-169 916,-169 656.8067,-169 656.8067,-169"/>
<polygon fill="#000000" stroke="#000000" points="656.8068,-165.5001 646.8067,-169 656.8067,-172.5001 656.8068,-165.5001"/>
</g>
<!-- MediaTableComponent -->
<g id="node3" class="node">
<title>MediaTableComponent</title>
<polygon fill="#ffffb3" stroke="#000000" points="820.4692,-122 671.5308,-122 671.5308,-86 820.4692,-86 820.4692,-122"/>
<text text-anchor="middle" x="746" y="-99.8" font-family="Times,serif" font-size="14.00" fill="#000000">MediaTableComponent</text>
</g>
<!-- MediaTableComponent&#45;&gt;MediaLibraryModule -->
<g id="edge3" class="edge">
<title>MediaTableComponent&#45;&gt;MediaLibraryModule</title>
<path fill="none" stroke="#000000" d="M746,-122.027C746,-138.3976 746,-160 746,-160 746,-160 656.8168,-160 656.8168,-160"/>
<polygon fill="#000000" stroke="#000000" points="656.8168,-156.5001 646.8168,-160 656.8167,-163.5001 656.8168,-156.5001"/>
</g>
<!-- MediaRoutingModule -->
<g id="node5" class="node">
<title>MediaRoutingModule</title>
<polygon fill="#8dd3c7" stroke="#000000" points="648.4327,-122 645.4327,-126 624.4327,-126 621.4327,-122 507.5673,-122 507.5673,-86 648.4327,-86 648.4327,-122"/>
<text text-anchor="middle" x="578" y="-99.8" font-family="Times,serif" font-size="14.00" fill="#000000">MediaRoutingModule</text>
</g>
<!-- MediaRoutingModule&#45;&gt;MediaLibraryModule -->
<g id="edge4" class="edge">
<title>MediaRoutingModule&#45;&gt;MediaLibraryModule</title>
<path fill="none" stroke="#000000" d="M578,-122.1061C578,-122.1061 578,-140.991 578,-140.991"/>
<polygon fill="#000000" stroke="#000000" points="574.5001,-140.9909 578,-150.991 581.5001,-140.991 574.5001,-140.9909"/>
</g>
<!-- SharedModule -->
<g id="node6" class="node">
<title>SharedModule</title>
<polygon fill="#8dd3c7" stroke="#000000" points="490.4231,-122 487.4231,-126 466.4231,-126 463.4231,-122 391.5769,-122 391.5769,-86 490.4231,-86 490.4231,-122"/>
<text text-anchor="middle" x="441" y="-99.8" font-family="Times,serif" font-size="14.00" fill="#000000">SharedModule</text>
</g>
<!-- SharedModule&#45;&gt;MediaLibraryModule -->
<g id="edge5" class="edge">
<title>SharedModule&#45;&gt;MediaLibraryModule</title>
<path fill="none" stroke="#000000" d="M441,-122.027C441,-138.3976 441,-160 441,-160 441,-160 499.0986,-160 499.0986,-160"/>
<polygon fill="#000000" stroke="#000000" points="499.0987,-163.5001 509.0986,-160 499.0986,-156.5001 499.0987,-163.5001"/>
</g>
<!-- SharedPrivateModule -->
<g id="node7" class="node">
<title>SharedPrivateModule</title>
<polygon fill="#8dd3c7" stroke="#000000" points="374.0758,-122 371.0758,-126 350.0758,-126 347.0758,-122 235.9242,-122 235.9242,-86 374.0758,-86 374.0758,-122"/>
<text text-anchor="middle" x="305" y="-99.8" font-family="Times,serif" font-size="14.00" fill="#000000">SharedPrivateModule</text>
</g>
<!-- SharedPrivateModule&#45;&gt;MediaLibraryModule -->
<g id="edge6" class="edge">
<title>SharedPrivateModule&#45;&gt;MediaLibraryModule</title>
<path fill="none" stroke="#000000" d="M305,-122.1061C305,-141.3391 305,-169 305,-169 305,-169 499.1106,-169 499.1106,-169"/>
<polygon fill="#000000" stroke="#000000" points="499.1106,-172.5001 509.1106,-169 499.1105,-165.5001 499.1106,-172.5001"/>
</g>
<!-- MediaLibraryService -->
<g id="node8" class="node">
<title>MediaLibraryService</title>
<ellipse fill="#fdb462" stroke="#000000" cx="118" cy="-104" rx="93.7359" ry="18"/>
<text text-anchor="middle" x="118" y="-99.8" font-family="Times,serif" font-size="14.00" fill="#000000">MediaLibraryService</text>
</g>
<!-- MediaLibraryService&#45;&gt;MediaLibraryModule -->
<g id="edge7" class="edge">
<title>MediaLibraryService&#45;&gt;MediaLibraryModule</title>
<path fill="none" stroke="#000000" d="M118,-122.2921C118,-144.2057 118,-178 118,-178 118,-178 499.1334,-178 499.1334,-178"/>
<polygon fill="#000000" stroke="#000000" points="499.1334,-181.5001 509.1334,-178 499.1333,-174.5001 499.1334,-181.5001"/>
</g>
</g>
</svg>
