<?xml version="1.0" encoding="UTF-8" standalone="no"?>
<!DOCTYPE svg PUBLIC "-//W3C//DTD SVG 1.1//EN"
 "http://www.w3.org/Graphics/SVG/1.1/DTD/svg11.dtd">
<!-- Generated by graphviz version 2.40.1 (20161225.0304)
 -->
<!-- Title: dependencies Pages: 1 -->
<svg width="504pt" height="211pt"
 viewBox="0.00 0.00 504.00 211.00" xmlns="http://www.w3.org/2000/svg" xmlns:xlink="http://www.w3.org/1999/xlink">
<g id="graph0" class="graph" transform="scale(1 1) rotate(0) translate(4 207)">
<title>dependencies</title>
<polygon fill="#ffffff" stroke="transparent" points="-4,4 -4,-207 500,-207 500,4 -4,4"/>
<text text-anchor="start" x="227.0091" y="-42.4" font-family="sans-serif" font-weight="bold" font-size="14.00" fill="#000000">Legend</text>
<polygon fill="#ffffb3" stroke="transparent" points="14,-10 14,-30 34,-30 34,-10 14,-10"/>
<text text-anchor="start" x="37.629" y="-15.4" font-family="sans-serif" font-size="14.00" fill="#000000"> &#160;Declarations</text>
<polygon fill="#8dd3c7" stroke="transparent" points="127,-10 127,-30 147,-30 147,-10 127,-10"/>
<text text-anchor="start" x="150.7251" y="-15.4" font-family="sans-serif" font-size="14.00" fill="#000000"> &#160;Module</text>
<polygon fill="#80b1d3" stroke="transparent" points="213,-10 213,-30 233,-30 233,-10 213,-10"/>
<text text-anchor="start" x="236.7812" y="-15.4" font-family="sans-serif" font-size="14.00" fill="#000000"> &#160;Bootstrap</text>
<polygon fill="#fdb462" stroke="transparent" points="310,-10 310,-30 330,-30 330,-10 310,-10"/>
<text text-anchor="start" x="333.6732" y="-15.4" font-family="sans-serif" font-size="14.00" fill="#000000"> &#160;Providers</text>
<polygon fill="#fb8072" stroke="transparent" points="406,-10 406,-30 426,-30 426,-10 406,-10"/>
<text text-anchor="start" x="429.7258" y="-15.4" font-family="sans-serif" font-size="14.00" fill="#000000"> &#160;Exports</text>
<g id="clust1" class="cluster">
<title>cluster_PrivateRoutingModule</title>
<polygon fill="none" stroke="#000000" stroke-dasharray="1,5" points="10.5,-70 10.5,-195 485.5,-195 485.5,-70 10.5,-70"/>
</g>
<g id="clust6" class="cluster">
<title>cluster_PrivateRoutingModule_providers</title>
<polygon fill="none" stroke="#000000" points="18.5,-78 18.5,-130 477.5,-130 477.5,-78 18.5,-78"/>
</g>
<!-- AccreditationResolver -->
<g id="node1" class="node">
<title>AccreditationResolver</title>
<ellipse fill="#fdb462" stroke="#000000" cx="371.5" cy="-104" rx="97.8286" ry="18"/>
<text text-anchor="middle" x="371.5" y="-99.8" font-family="Times,serif" font-size="14.00" fill="#000000">AccreditationResolver</text>
</g>
<!-- PrivateRoutingModule -->
<g id="node4" class="node">
<title>PrivateRoutingModule</title>
<polygon fill="#8dd3c7" stroke="#000000" points="276.8216,-187 273.8216,-191 252.8216,-191 249.8216,-187 132.1784,-187 132.1784,-151 276.8216,-151 276.8216,-187"/>
<text text-anchor="middle" x="204.5" y="-164.8" font-family="Times,serif" font-size="14.00" fill="#000000">PrivateRoutingModule</text>
</g>
<!-- AccreditationResolver&#45;&gt;PrivateRoutingModule -->
<g id="edge1" class="edge">
<title>AccreditationResolver&#45;&gt;PrivateRoutingModule</title>
<path fill="none" stroke="#000000" d="M273.4161,-104C267.975,-104 264.6741,-104 264.6741,-104 264.6741,-104 264.6741,-140.8939 264.6741,-140.8939"/>
<polygon fill="#000000" stroke="#000000" points="261.1742,-140.8938 264.6741,-150.8939 268.1742,-140.8939 261.1742,-140.8938"/>
</g>
<!-- JoinGuard -->
<g id="node2" class="node">
<title>JoinGuard</title>
<ellipse fill="#fdb462" stroke="#000000" cx="204.5" cy="-104" rx="51.0261" ry="18"/>
<text text-anchor="middle" x="204.5" y="-99.8" font-family="Times,serif" font-size="14.00" fill="#000000">JoinGuard</text>
</g>
<!-- JoinGuard&#45;&gt;PrivateRoutingModule -->
<g id="edge2" class="edge">
<title>JoinGuard&#45;&gt;PrivateRoutingModule</title>
<path fill="none" stroke="#000000" d="M204.5,-122.1061C204.5,-122.1061 204.5,-140.991 204.5,-140.991"/>
<polygon fill="#000000" stroke="#000000" points="201.0001,-140.9909 204.5,-150.991 208.0001,-140.991 201.0001,-140.9909"/>
</g>
<!-- AuthGuard -->
<g id="node3" class="node">
<title>AuthGuard</title>
<ellipse fill="#fdb462" stroke="#000000" cx="80.5" cy="-104" rx="54.4566" ry="18"/>
<text text-anchor="middle" x="80.5" y="-99.8" font-family="Times,serif" font-size="14.00" fill="#000000">AuthGuard</text>
</g>
<!-- AuthGuard&#45;&gt;PrivateRoutingModule -->
<g id="edge3" class="edge">
<title>AuthGuard&#45;&gt;PrivateRoutingModule</title>
<path fill="none" stroke="#000000" d="M134.9944,-104C140.4964,-104 144.1079,-104 144.1079,-104 144.1079,-104 144.1079,-140.8939 144.1079,-140.8939"/>
<polygon fill="#000000" stroke="#000000" points="140.608,-140.8938 144.1079,-150.8939 147.608,-140.8939 140.608,-140.8938"/>
</g>
</g>
</svg>
