<?xml version="1.0" encoding="UTF-8" standalone="no"?>
<!DOCTYPE svg PUBLIC "-//W3C//DTD SVG 1.1//EN"
 "http://www.w3.org/Graphics/SVG/1.1/DTD/svg11.dtd">
<!-- Generated by graphviz version 2.40.1 (20161225.0304)
 -->
<!-- Title: dependencies Pages: 1 -->
<svg width="1528pt" height="211pt"
 viewBox="0.00 0.00 1528.00 211.00" xmlns="http://www.w3.org/2000/svg" xmlns:xlink="http://www.w3.org/1999/xlink">
<g id="graph0" class="graph" transform="scale(1 1) rotate(0) translate(4 207)">
<title>dependencies</title>
<polygon fill="#ffffff" stroke="transparent" points="-4,4 -4,-207 1524,-207 1524,4 -4,4"/>
<text text-anchor="start" x="739.0091" y="-42.4" font-family="sans-serif" font-weight="bold" font-size="14.00" fill="#000000">Legend</text>
<polygon fill="#ffffb3" stroke="transparent" points="526,-10 526,-30 546,-30 546,-10 526,-10"/>
<text text-anchor="start" x="549.629" y="-15.4" font-family="sans-serif" font-size="14.00" fill="#000000"> &#160;Declarations</text>
<polygon fill="#8dd3c7" stroke="transparent" points="639,-10 639,-30 659,-30 659,-10 639,-10"/>
<text text-anchor="start" x="662.7251" y="-15.4" font-family="sans-serif" font-size="14.00" fill="#000000"> &#160;Module</text>
<polygon fill="#80b1d3" stroke="transparent" points="725,-10 725,-30 745,-30 745,-10 725,-10"/>
<text text-anchor="start" x="748.7812" y="-15.4" font-family="sans-serif" font-size="14.00" fill="#000000"> &#160;Bootstrap</text>
<polygon fill="#fdb462" stroke="transparent" points="822,-10 822,-30 842,-30 842,-10 822,-10"/>
<text text-anchor="start" x="845.6732" y="-15.4" font-family="sans-serif" font-size="14.00" fill="#000000"> &#160;Providers</text>
<polygon fill="#fb8072" stroke="transparent" points="918,-10 918,-30 938,-30 938,-10 918,-10"/>
<text text-anchor="start" x="941.7258" y="-15.4" font-family="sans-serif" font-size="14.00" fill="#000000"> &#160;Exports</text>
<g id="clust1" class="cluster">
<title>cluster_ConferenceRoutingModule</title>
<polygon fill="none" stroke="#000000" stroke-dasharray="1,5" points="8,-70 8,-195 1512,-195 1512,-70 8,-70"/>
</g>
<g id="clust6" class="cluster">
<title>cluster_ConferenceRoutingModule_providers</title>
<polygon fill="none" stroke="#000000" points="16,-78 16,-130 1504,-130 1504,-78 16,-78"/>
</g>
<!-- ConferenceCreateGuard -->
<g id="node1" class="node">
<title>ConferenceCreateGuard</title>
<ellipse fill="#fdb462" stroke="#000000" cx="1391" cy="-104" rx="104.7347" ry="18"/>
<text text-anchor="middle" x="1391" y="-99.8" font-family="Times,serif" font-size="14.00" fill="#000000">ConferenceCreateGuard</text>
</g>
<!-- ConferenceRoutingModule -->
<g id="node7" class="node">
<title>ConferenceRoutingModule</title>
<polygon fill="#8dd3c7" stroke="#000000" points="916.6839,-187 913.6839,-191 892.6839,-191 889.6839,-187 747.3161,-187 747.3161,-151 916.6839,-151 916.6839,-187"/>
<text text-anchor="middle" x="832" y="-164.8" font-family="Times,serif" font-size="14.00" fill="#000000">ConferenceRoutingModule</text>
</g>
<!-- ConferenceCreateGuard&#45;&gt;ConferenceRoutingModule -->
<g id="edge1" class="edge">
<title>ConferenceCreateGuard&#45;&gt;ConferenceRoutingModule</title>
<path fill="none" stroke="#000000" d="M1391,-122.2843C1391,-143.3211 1391,-175 1391,-175 1391,-175 926.5964,-175 926.5964,-175"/>
<polygon fill="#000000" stroke="#000000" points="926.5965,-171.5001 916.5964,-175 926.5964,-178.5001 926.5965,-171.5001"/>
</g>
<!-- ConferenceDetailGuard -->
<g id="node2" class="node">
<title>ConferenceDetailGuard</title>
<ellipse fill="#fdb462" stroke="#000000" cx="1165" cy="-104" rx="103.0289" ry="18"/>
<text text-anchor="middle" x="1165" y="-99.8" font-family="Times,serif" font-size="14.00" fill="#000000">ConferenceDetailGuard</text>
</g>
<!-- ConferenceDetailGuard&#45;&gt;ConferenceRoutingModule -->
<g id="edge2" class="edge">
<title>ConferenceDetailGuard&#45;&gt;ConferenceRoutingModule</title>
<path fill="none" stroke="#000000" d="M1165,-122.0225C1165,-139.3734 1165,-163 1165,-163 1165,-163 926.8916,-163 926.8916,-163"/>
<polygon fill="#000000" stroke="#000000" points="926.8916,-159.5001 916.8916,-163 926.8915,-166.5001 926.8916,-159.5001"/>
</g>
<!-- ConferenceResolver -->
<g id="node3" class="node">
<title>ConferenceResolver</title>
<ellipse fill="#fdb462" stroke="#000000" cx="954" cy="-104" rx="89.7267" ry="18"/>
<text text-anchor="middle" x="954" y="-99.8" font-family="Times,serif" font-size="14.00" fill="#000000">ConferenceResolver</text>
</g>
<!-- ConferenceResolver&#45;&gt;ConferenceRoutingModule -->
<g id="edge3" class="edge">
<title>ConferenceResolver&#45;&gt;ConferenceRoutingModule</title>
<path fill="none" stroke="#000000" d="M890.3643,-116.8419C890.3643,-116.8419 890.3643,-140.5231 890.3643,-140.5231"/>
<polygon fill="#000000" stroke="#000000" points="886.8644,-140.523 890.3643,-150.5231 893.8644,-140.5231 886.8644,-140.523"/>
</g>
<!-- ConferenceParticipantsResolver -->
<g id="node4" class="node">
<title>ConferenceParticipantsResolver</title>
<ellipse fill="#fdb462" stroke="#000000" cx="711" cy="-104" rx="135.4074" ry="18"/>
<text text-anchor="middle" x="711" y="-99.8" font-family="Times,serif" font-size="14.00" fill="#000000">ConferenceParticipantsResolver</text>
</g>
<!-- ConferenceParticipantsResolver&#45;&gt;ConferenceRoutingModule -->
<g id="edge4" class="edge">
<title>ConferenceParticipantsResolver&#45;&gt;ConferenceRoutingModule</title>
<path fill="none" stroke="#000000" d="M796.9309,-118.104C796.9309,-118.104 796.9309,-140.7209 796.9309,-140.7209"/>
<polygon fill="#000000" stroke="#000000" points="793.431,-140.7209 796.9309,-150.7209 800.431,-140.7209 793.431,-140.7209"/>
</g>
<!-- ConferenceDocumentsResolver -->
<g id="node5" class="node">
<title>ConferenceDocumentsResolver</title>
<ellipse fill="#fdb462" stroke="#000000" cx="424" cy="-104" rx="133.6899" ry="18"/>
<text text-anchor="middle" x="424" y="-99.8" font-family="Times,serif" font-size="14.00" fill="#000000">ConferenceDocumentsResolver</text>
</g>
<!-- ConferenceDocumentsResolver&#45;&gt;ConferenceRoutingModule -->
<g id="edge5" class="edge">
<title>ConferenceDocumentsResolver&#45;&gt;ConferenceRoutingModule</title>
<path fill="none" stroke="#000000" d="M424,-122.0225C424,-139.3734 424,-163 424,-163 424,-163 736.9665,-163 736.9665,-163"/>
<polygon fill="#000000" stroke="#000000" points="736.9665,-166.5001 746.9665,-163 736.9664,-159.5001 736.9665,-166.5001"/>
</g>
<!-- ConferenceContactsResolver -->
<g id="node6" class="node">
<title>ConferenceContactsResolver</title>
<ellipse fill="#fdb462" stroke="#000000" cx="148" cy="-104" rx="123.8137" ry="18"/>
<text text-anchor="middle" x="148" y="-99.8" font-family="Times,serif" font-size="14.00" fill="#000000">ConferenceContactsResolver</text>
</g>
<!-- ConferenceContactsResolver&#45;&gt;ConferenceRoutingModule -->
<g id="edge6" class="edge">
<title>ConferenceContactsResolver&#45;&gt;ConferenceRoutingModule</title>
<path fill="none" stroke="#000000" d="M148,-122.2843C148,-143.3211 148,-175 148,-175 148,-175 737.0983,-175 737.0983,-175"/>
<polygon fill="#000000" stroke="#000000" points="737.0983,-178.5001 747.0983,-175 737.0983,-171.5001 737.0983,-178.5001"/>
</g>
</g>
</svg>
