<?xml version="1.0" encoding="UTF-8" standalone="no"?>
<svg
   xmlns:dc="http://purl.org/dc/elements/1.1/"
   xmlns:cc="http://creativecommons.org/ns#"
   xmlns:rdf="http://www.w3.org/1999/02/22-rdf-syntax-ns#"
   xmlns:svg="http://www.w3.org/2000/svg"
   xmlns="http://www.w3.org/2000/svg"
   viewBox="0 0 396.01868 316"
   height="316"
   width="396.01868"
   xml:space="preserve"
   id="svg2"
   version="1.1"><metadata
     id="metadata8"><rdf:RDF><cc:Work
         rdf:about=""><dc:format>image/svg+xml</dc:format><dc:type
           rdf:resource="http://purl.org/dc/dcmitype/StillImage" /></cc:Work></rdf:RDF></metadata><defs
     id="defs6"><linearGradient
       id="linearGradient28"
       spreadMethod="pad"
       gradientTransform="matrix(1.454156,-2.3714299,-2.26491,-1.388839,129.05725,235.57193)"
       gradientUnits="userSpaceOnUse"
       y2="0"
       x2="100"
       y1="0"
       x1="0"><stop
         id="stop24"
         offset="0"
         style="stop-opacity:1;stop-color:#266d98" /><stop
         id="stop26"
         offset="1"
         style="stop-opacity:1;stop-color:#c4f080" /></linearGradient></defs><g
     transform="matrix(1.3333333,0,0,-1.3333333,0,316)"
     id="g10"><g
       id="g12"><g
         id="g14"><g
           id="g20"><g
             id="g22"><path
               id="path30"
               style="fill:url(#linearGradient28);stroke:none"
               d="m 150.895,219.407 c -3.773,-1.181 -5.878,-5.221 -4.697,-8.993 v 0 c 1.179,-3.772 5.213,-5.875 8.993,-4.697 v 0 c 38.631,12.084 80.287,-2.036 103.664,-35.122 v 0 c 29.585,-41.87 19.59,-99.987 -22.28,-129.571 v 0 C 216.291,26.693 191.656,21.109 167.181,25.32 v 0 c -3.894,0.658 -7.607,-1.922 -8.277,-5.817 v 0 c -0.671,-3.897 1.92,-7.608 5.816,-8.277 v 0 c 6.144,-1.057 12.324,-1.565 18.434,-1.565 v 0 c 21.971,0 43.339,6.745 61.653,19.684 v 0 c 48.318,34.14 59.865,101.209 25.727,149.526 v 0 c -20.234,28.635 -52.308,44.971 -85.904,45.458 v 0 c -0.516,0.007 -1.035,0.011 -1.552,0.011 v 0 c -10.697,0 -21.551,-1.608 -32.183,-4.933 m 31.096,-25.681 c -2.652,-0.014 -5.361,-0.159 -8.054,-0.447 v 0 c -24.794,-2.65 -47.053,-17.114 -59.596,-38.702 v 0 c -1.985,-3.418 -0.823,-7.811 2.596,-9.798 v 0 c 3.419,-1.986 7.766,-0.824 9.752,2.594 v 0 c 10.261,17.66 28.491,29.51 48.77,31.677 v 0 c 35.236,3.758 66.971,-21.856 70.736,-57.089 v 0 c 2.27,-21.26 -6.137,-42.166 -22.506,-55.972 v 0 C 220.667,63.44 220.29,58.9 222.839,55.878 v 0 c 1.416,-1.68 3.422,-2.551 5.458,-2.551 v 0 c 1.63,0 3.265,0.569 4.609,1.7 v 0 c 20.009,16.877 30.294,42.46 27.516,68.455 v 0 c -4.302,40.254 -38.424,70.243 -78.035,70.245 v 0 c -0.133,0 -0.263,0 -0.396,-0.001 m -27.785,-37.314 c -3.18,-2.349 -3.871,-6.798 -1.521,-9.978 v 0 c 2.349,-3.179 6.844,-3.873 10.021,-1.521 v 0 c 5.92,4.374 12.971,6.711 20.358,6.711 v 0 c 18.894,0 34.273,-15.378 34.273,-34.271 v 0 c 0,-18.894 -15.379,-34.273 -34.273,-34.273 v 0 c -3.263,0 -6.48,0.444 -9.575,1.343 v 0 c -3.796,1.105 -7.799,-1.079 -8.902,-4.877 v 0 c -1.106,-3.796 1.08,-7.756 4.876,-8.858 v 0 c 4.393,-1.279 8.985,-1.924 13.601,-1.924 v 0 c 26.789,0 48.59,21.799 48.59,48.589 v 0 c 0,26.788 -21.801,48.588 -48.59,48.588 v 0 c -10.473,0 -20.457,-3.319 -28.858,-9.529" /></g></g></g></g><text
       id="text38"
       style="font-variant:normal;font-weight:bold;font-stretch:normal;font-size:39px;font-family:'Futura Book';-inkscape-font-specification:Futura-Bold;writing-mode:lr-tb;fill:#4c4c4c;fill-opacity:1;fill-rule:nonzero;stroke:none"
       transform="matrix(1,0,0,-1,11.0073,101.333)"><tspan
         id="tspan32"
         y="0"
         x="0 40.365002 65.598 90.831001">Meet</tspan><tspan
         id="tspan34"
         y="0"
         x="105.378 131.82001">PA</tspan><tspan
         id="tspan36"
         y="0"
         x="163.09801">d</tspan></text>
</g></svg>