<?xml version="1.0" encoding="UTF-8" standalone="no"?>
<!DOCTYPE svg PUBLIC "-//W3C//DTD SVG 1.1//EN"
 "http://www.w3.org/Graphics/SVG/1.1/DTD/svg11.dtd">
<!-- Generated by graphviz version 2.40.1 (20161225.0304)
 -->
<!-- Title: dependencies Pages: 1 -->
<svg width="504pt" height="284pt"
 viewBox="0.00 0.00 504.00 284.00" xmlns="http://www.w3.org/2000/svg" xmlns:xlink="http://www.w3.org/1999/xlink">
<g id="graph0" class="graph" transform="scale(1 1) rotate(0) translate(4 280)">
<title>dependencies</title>
<polygon fill="#ffffff" stroke="transparent" points="-4,4 -4,-280 500,-280 500,4 -4,4"/>
<text text-anchor="start" x="227.0091" y="-42.4" font-family="sans-serif" font-weight="bold" font-size="14.00" fill="#000000">Legend</text>
<polygon fill="#ffffb3" stroke="transparent" points="14,-10 14,-30 34,-30 34,-10 14,-10"/>
<text text-anchor="start" x="37.629" y="-15.4" font-family="sans-serif" font-size="14.00" fill="#000000"> &#160;Declarations</text>
<polygon fill="#8dd3c7" stroke="transparent" points="127,-10 127,-30 147,-30 147,-10 127,-10"/>
<text text-anchor="start" x="150.7251" y="-15.4" font-family="sans-serif" font-size="14.00" fill="#000000"> &#160;Module</text>
<polygon fill="#80b1d3" stroke="transparent" points="213,-10 213,-30 233,-30 233,-10 213,-10"/>
<text text-anchor="start" x="236.7812" y="-15.4" font-family="sans-serif" font-size="14.00" fill="#000000"> &#160;Bootstrap</text>
<polygon fill="#fdb462" stroke="transparent" points="310,-10 310,-30 330,-30 330,-10 310,-10"/>
<text text-anchor="start" x="333.6732" y="-15.4" font-family="sans-serif" font-size="14.00" fill="#000000"> &#160;Providers</text>
<polygon fill="#fb8072" stroke="transparent" points="406,-10 406,-30 426,-30 426,-10 406,-10"/>
<text text-anchor="start" x="429.7258" y="-15.4" font-family="sans-serif" font-size="14.00" fill="#000000"> &#160;Exports</text>
<g id="clust1" class="cluster">
<title>cluster_ProcedureModule</title>
<polygon fill="none" stroke="#000000" stroke-dasharray="1,5" points="24,-70 24,-268 472,-268 472,-70 24,-70"/>
</g>
<g id="clust2" class="cluster">
<title>cluster_ProcedureModule_declarations</title>
<polygon fill="none" stroke="#000000" points="310,-78 310,-130 464,-130 464,-78 310,-78"/>
</g>
<g id="clust4" class="cluster">
<title>cluster_ProcedureModule_imports</title>
<polygon fill="none" stroke="#000000" points="32,-78 32,-130 302,-130 302,-78 32,-78"/>
</g>
<g id="clust5" class="cluster">
<title>cluster_ProcedureModule_exports</title>
<polygon fill="none" stroke="#000000" points="166,-208 166,-260 324,-260 324,-208 166,-208"/>
</g>
<!-- ProcedureComponent -->
<g id="node1" class="node">
<title>ProcedureComponent</title>
<polygon fill="#ffffb3" stroke="#000000" points="456.08,-122 317.92,-122 317.92,-86 456.08,-86 456.08,-122"/>
<text text-anchor="middle" x="387" y="-99.8" font-family="Times,serif" font-size="14.00" fill="#000000">ProcedureComponent</text>
</g>
<!-- ProcedureModule -->
<g id="node2" class="node">
<title>ProcedureModule</title>
<polygon fill="#8dd3c7" stroke="#000000" points="303.2978,-187 300.2978,-191 279.2978,-191 276.2978,-187 186.7022,-187 186.7022,-151 303.2978,-151 303.2978,-187"/>
<text text-anchor="middle" x="245" y="-164.8" font-family="Times,serif" font-size="14.00" fill="#000000">ProcedureModule</text>
</g>
<!-- ProcedureComponent&#45;&gt;ProcedureModule -->
<g id="edge1" class="edge">
<title>ProcedureComponent&#45;&gt;ProcedureModule</title>
<path fill="none" stroke="#000000" d="M317.844,-104C306.6702,-104 298.6799,-104 298.6799,-104 298.6799,-104 298.6799,-140.8939 298.6799,-140.8939"/>
<polygon fill="#000000" stroke="#000000" points="295.18,-140.8938 298.6799,-150.8939 302.18,-140.8939 295.18,-140.8938"/>
</g>
<!-- ProcedureComponent  -->
<g id="node5" class="node">
<title>ProcedureComponent </title>
<polygon fill="#fb8072" stroke="#000000" points="315.5806,-252 174.4194,-252 174.4194,-216 315.5806,-216 315.5806,-252"/>
<text text-anchor="middle" x="245" y="-229.8" font-family="Times,serif" font-size="14.00" fill="#000000">ProcedureComponent </text>
</g>
<!-- ProcedureModule&#45;&gt;ProcedureComponent  -->
<g id="edge4" class="edge">
<title>ProcedureModule&#45;&gt;ProcedureComponent </title>
<path fill="none" stroke="#000000" stroke-dasharray="5,2" d="M245,-187.1061C245,-187.1061 245,-205.991 245,-205.991"/>
<polygon fill="#000000" stroke="#000000" points="241.5001,-205.9909 245,-215.991 248.5001,-205.991 241.5001,-205.9909"/>
</g>
<!-- SharedModule -->
<g id="node3" class="node">
<title>SharedModule</title>
<polygon fill="#8dd3c7" stroke="#000000" points="294.4231,-122 291.4231,-126 270.4231,-126 267.4231,-122 195.5769,-122 195.5769,-86 294.4231,-86 294.4231,-122"/>
<text text-anchor="middle" x="245" y="-99.8" font-family="Times,serif" font-size="14.00" fill="#000000">SharedModule</text>
</g>
<!-- SharedModule&#45;&gt;ProcedureModule -->
<g id="edge2" class="edge">
<title>SharedModule&#45;&gt;ProcedureModule</title>
<path fill="none" stroke="#000000" d="M245,-122.1061C245,-122.1061 245,-140.991 245,-140.991"/>
<polygon fill="#000000" stroke="#000000" points="241.5001,-140.9909 245,-150.991 248.5001,-140.991 241.5001,-140.9909"/>
</g>
<!-- SharedPrivateModule -->
<g id="node4" class="node">
<title>SharedPrivateModule</title>
<polygon fill="#8dd3c7" stroke="#000000" points="178.0758,-122 175.0758,-126 154.0758,-126 151.0758,-122 39.9242,-122 39.9242,-86 178.0758,-86 178.0758,-122"/>
<text text-anchor="middle" x="109" y="-99.8" font-family="Times,serif" font-size="14.00" fill="#000000">SharedPrivateModule</text>
</g>
<!-- SharedPrivateModule&#45;&gt;ProcedureModule -->
<g id="edge3" class="edge">
<title>SharedPrivateModule&#45;&gt;ProcedureModule</title>
<path fill="none" stroke="#000000" d="M178.094,-104C186.0131,-104 191.3201,-104 191.3201,-104 191.3201,-104 191.3201,-140.8939 191.3201,-140.8939"/>
<polygon fill="#000000" stroke="#000000" points="187.8202,-140.8938 191.3201,-150.8939 194.8202,-140.8939 187.8202,-140.8938"/>
</g>
</g>
</svg>
