<?xml version="1.0" encoding="UTF-8" standalone="no"?>
<!DOCTYPE svg PUBLIC "-//W3C//DTD SVG 1.1//EN"
 "http://www.w3.org/Graphics/SVG/1.1/DTD/svg11.dtd">
<!-- Generated by graphviz version 2.40.1 (20161225.0304)
 -->
<!-- Title: dependencies Pages: 1 -->
<svg width="745pt" height="211pt"
 viewBox="0.00 0.00 745.00 211.00" xmlns="http://www.w3.org/2000/svg" xmlns:xlink="http://www.w3.org/1999/xlink">
<g id="graph0" class="graph" transform="scale(1 1) rotate(0) translate(4 207)">
<title>dependencies</title>
<polygon fill="#ffffff" stroke="transparent" points="-4,4 -4,-207 741,-207 741,4 -4,4"/>
<text text-anchor="start" x="347.5091" y="-42.4" font-family="sans-serif" font-weight="bold" font-size="14.00" fill="#000000">Legend</text>
<polygon fill="#ffffb3" stroke="transparent" points="134.5,-10 134.5,-30 154.5,-30 154.5,-10 134.5,-10"/>
<text text-anchor="start" x="158.129" y="-15.4" font-family="sans-serif" font-size="14.00" fill="#000000"> &#160;Declarations</text>
<polygon fill="#8dd3c7" stroke="transparent" points="247.5,-10 247.5,-30 267.5,-30 267.5,-10 247.5,-10"/>
<text text-anchor="start" x="271.2251" y="-15.4" font-family="sans-serif" font-size="14.00" fill="#000000"> &#160;Module</text>
<polygon fill="#80b1d3" stroke="transparent" points="333.5,-10 333.5,-30 353.5,-30 353.5,-10 333.5,-10"/>
<text text-anchor="start" x="357.2812" y="-15.4" font-family="sans-serif" font-size="14.00" fill="#000000"> &#160;Bootstrap</text>
<polygon fill="#fdb462" stroke="transparent" points="430.5,-10 430.5,-30 450.5,-30 450.5,-10 430.5,-10"/>
<text text-anchor="start" x="454.1732" y="-15.4" font-family="sans-serif" font-size="14.00" fill="#000000"> &#160;Providers</text>
<polygon fill="#fb8072" stroke="transparent" points="526.5,-10 526.5,-30 546.5,-30 546.5,-10 526.5,-10"/>
<text text-anchor="start" x="550.2258" y="-15.4" font-family="sans-serif" font-size="14.00" fill="#000000"> &#160;Exports</text>
<g id="clust1" class="cluster">
<title>cluster_SearchModule</title>
<polygon fill="none" stroke="#000000" stroke-dasharray="1,5" points="8,-70 8,-195 729,-195 729,-70 8,-70"/>
</g>
<g id="clust2" class="cluster">
<title>cluster_SearchModule_declarations</title>
<polygon fill="none" stroke="#000000" points="486,-78 486,-130 721,-130 721,-78 486,-78"/>
</g>
<g id="clust5" class="cluster">
<title>cluster_SearchModule_imports</title>
<polygon fill="none" stroke="#000000" points="208,-78 208,-130 478,-130 478,-78 208,-78"/>
</g>
<g id="clust8" class="cluster">
<title>cluster_SearchModule_providers</title>
<polygon fill="none" stroke="#000000" points="16,-78 16,-130 200,-130 200,-78 16,-78"/>
</g>
<!-- SearchComponent -->
<g id="node1" class="node">
<title>SearchComponent</title>
<polygon fill="#ffffb3" stroke="#000000" points="712.9201,-122 593.0799,-122 593.0799,-86 712.9201,-86 712.9201,-122"/>
<text text-anchor="middle" x="653" y="-99.8" font-family="Times,serif" font-size="14.00" fill="#000000">SearchComponent</text>
</g>
<!-- SearchModule -->
<g id="node3" class="node">
<title>SearchModule</title>
<polygon fill="#8dd3c7" stroke="#000000" points="469.6375,-187 466.6375,-191 445.6375,-191 442.6375,-187 372.3625,-187 372.3625,-151 469.6375,-151 469.6375,-187"/>
<text text-anchor="middle" x="421" y="-164.8" font-family="Times,serif" font-size="14.00" fill="#000000">SearchModule</text>
</g>
<!-- SearchComponent&#45;&gt;SearchModule -->
<g id="edge1" class="edge">
<title>SearchComponent&#45;&gt;SearchModule</title>
<path fill="none" stroke="#000000" d="M653,-122.2843C653,-143.3211 653,-175 653,-175 653,-175 479.9177,-175 479.9177,-175"/>
<polygon fill="#000000" stroke="#000000" points="479.9178,-171.5001 469.9177,-175 479.9177,-178.5001 479.9178,-171.5001"/>
</g>
<!-- SearchPage -->
<g id="node2" class="node">
<title>SearchPage</title>
<polygon fill="#ffffb3" stroke="#000000" points="575.7994,-122 494.2006,-122 494.2006,-86 575.7994,-86 575.7994,-122"/>
<text text-anchor="middle" x="535" y="-99.8" font-family="Times,serif" font-size="14.00" fill="#000000">SearchPage</text>
</g>
<!-- SearchPage&#45;&gt;SearchModule -->
<g id="edge2" class="edge">
<title>SearchPage&#45;&gt;SearchModule</title>
<path fill="none" stroke="#000000" d="M535,-122.0225C535,-139.3734 535,-163 535,-163 535,-163 479.6769,-163 479.6769,-163"/>
<polygon fill="#000000" stroke="#000000" points="479.677,-159.5001 469.6769,-163 479.6769,-166.5001 479.677,-159.5001"/>
</g>
<!-- SharedModule -->
<g id="node4" class="node">
<title>SharedModule</title>
<polygon fill="#8dd3c7" stroke="#000000" points="470.4231,-122 467.4231,-126 446.4231,-126 443.4231,-122 371.5769,-122 371.5769,-86 470.4231,-86 470.4231,-122"/>
<text text-anchor="middle" x="421" y="-99.8" font-family="Times,serif" font-size="14.00" fill="#000000">SharedModule</text>
</g>
<!-- SharedModule&#45;&gt;SearchModule -->
<g id="edge3" class="edge">
<title>SharedModule&#45;&gt;SearchModule</title>
<path fill="none" stroke="#000000" d="M421,-122.1061C421,-122.1061 421,-140.991 421,-140.991"/>
<polygon fill="#000000" stroke="#000000" points="417.5001,-140.9909 421,-150.991 424.5001,-140.991 417.5001,-140.9909"/>
</g>
<!-- SharedPrivateModule -->
<g id="node5" class="node">
<title>SharedPrivateModule</title>
<polygon fill="#8dd3c7" stroke="#000000" points="354.0758,-122 351.0758,-126 330.0758,-126 327.0758,-122 215.9242,-122 215.9242,-86 354.0758,-86 354.0758,-122"/>
<text text-anchor="middle" x="285" y="-99.8" font-family="Times,serif" font-size="14.00" fill="#000000">SharedPrivateModule</text>
</g>
<!-- SharedPrivateModule&#45;&gt;SearchModule -->
<g id="edge4" class="edge">
<title>SharedPrivateModule&#45;&gt;SearchModule</title>
<path fill="none" stroke="#000000" d="M285,-122.0225C285,-139.3734 285,-163 285,-163 285,-163 362.285,-163 362.285,-163"/>
<polygon fill="#000000" stroke="#000000" points="362.285,-166.5001 372.285,-163 362.285,-159.5001 362.285,-166.5001"/>
</g>
<!-- ConferenceService -->
<g id="node6" class="node">
<title>ConferenceService</title>
<ellipse fill="#fdb462" stroke="#000000" cx="108" cy="-104" rx="84.488" ry="18"/>
<text text-anchor="middle" x="108" y="-99.8" font-family="Times,serif" font-size="14.00" fill="#000000">ConferenceService</text>
</g>
<!-- ConferenceService&#45;&gt;SearchModule -->
<g id="edge5" class="edge">
<title>ConferenceService&#45;&gt;SearchModule</title>
<path fill="none" stroke="#000000" d="M108,-122.2843C108,-143.3211 108,-175 108,-175 108,-175 362.0938,-175 362.0938,-175"/>
<polygon fill="#000000" stroke="#000000" points="362.0938,-178.5001 372.0938,-175 362.0937,-171.5001 362.0938,-178.5001"/>
</g>
</g>
</svg>
