<?xml version="1.0" encoding="UTF-8" standalone="no"?>
<!DOCTYPE svg PUBLIC "-//W3C//DTD SVG 1.1//EN"
 "http://www.w3.org/Graphics/SVG/1.1/DTD/svg11.dtd">
<!-- Generated by graphviz version 2.40.1 (20161225.0304)
 -->
<!-- Title: dependencies Pages: 1 -->
<svg width="1991pt" height="211pt"
 viewBox="0.00 0.00 1991.00 211.00" xmlns="http://www.w3.org/2000/svg" xmlns:xlink="http://www.w3.org/1999/xlink">
<g id="graph0" class="graph" transform="scale(1 1) rotate(0) translate(4 207)">
<title>dependencies</title>
<polygon fill="#ffffff" stroke="transparent" points="-4,4 -4,-207 1987,-207 1987,4 -4,4"/>
<text text-anchor="start" x="970.5091" y="-42.4" font-family="sans-serif" font-weight="bold" font-size="14.00" fill="#000000">Legend</text>
<polygon fill="#ffffb3" stroke="transparent" points="757.5,-10 757.5,-30 777.5,-30 777.5,-10 757.5,-10"/>
<text text-anchor="start" x="781.129" y="-15.4" font-family="sans-serif" font-size="14.00" fill="#000000"> &#160;Declarations</text>
<polygon fill="#8dd3c7" stroke="transparent" points="870.5,-10 870.5,-30 890.5,-30 890.5,-10 870.5,-10"/>
<text text-anchor="start" x="894.2251" y="-15.4" font-family="sans-serif" font-size="14.00" fill="#000000"> &#160;Module</text>
<polygon fill="#80b1d3" stroke="transparent" points="956.5,-10 956.5,-30 976.5,-30 976.5,-10 956.5,-10"/>
<text text-anchor="start" x="980.2812" y="-15.4" font-family="sans-serif" font-size="14.00" fill="#000000"> &#160;Bootstrap</text>
<polygon fill="#fdb462" stroke="transparent" points="1053.5,-10 1053.5,-30 1073.5,-30 1073.5,-10 1053.5,-10"/>
<text text-anchor="start" x="1077.1732" y="-15.4" font-family="sans-serif" font-size="14.00" fill="#000000"> &#160;Providers</text>
<polygon fill="#fb8072" stroke="transparent" points="1149.5,-10 1149.5,-30 1169.5,-30 1169.5,-10 1149.5,-10"/>
<text text-anchor="start" x="1173.2258" y="-15.4" font-family="sans-serif" font-size="14.00" fill="#000000"> &#160;Exports</text>
<g id="clust1" class="cluster">
<title>cluster_PrivateModule</title>
<polygon fill="none" stroke="#000000" stroke-dasharray="1,5" points="8,-70 8,-195 1975,-195 1975,-70 8,-70"/>
</g>
<g id="clust2" class="cluster">
<title>cluster_PrivateModule_declarations</title>
<polygon fill="none" stroke="#000000" points="1103,-78 1103,-130 1967,-130 1967,-78 1103,-78"/>
</g>
<g id="clust8" class="cluster">
<title>cluster_PrivateModule_imports</title>
<polygon fill="none" stroke="#000000" points="579,-78 579,-130 1095,-130 1095,-78 579,-78"/>
</g>
<g id="clust11" class="cluster">
<title>cluster_PrivateModule_providers</title>
<polygon fill="none" stroke="#000000" points="16,-78 16,-130 571,-130 571,-78 16,-78"/>
</g>
<!-- CalendarComponent -->
<g id="node1" class="node">
<title>CalendarComponent</title>
<polygon fill="#ffffb3" stroke="#000000" points="1958.8641,-122 1827.1359,-122 1827.1359,-86 1958.8641,-86 1958.8641,-122"/>
<text text-anchor="middle" x="1893" y="-99.8" font-family="Times,serif" font-size="14.00" fill="#000000">CalendarComponent</text>
</g>
<!-- PrivateModule -->
<g id="node6" class="node">
<title>PrivateModule</title>
<polygon fill="#8dd3c7" stroke="#000000" points="1011.7036,-187 1008.7036,-191 987.7036,-191 984.7036,-187 912.2964,-187 912.2964,-151 1011.7036,-151 1011.7036,-187"/>
<text text-anchor="middle" x="962" y="-164.8" font-family="Times,serif" font-size="14.00" fill="#000000">PrivateModule</text>
</g>
<!-- CalendarComponent&#45;&gt;PrivateModule -->
<g id="edge1" class="edge">
<title>CalendarComponent&#45;&gt;PrivateModule</title>
<path fill="none" stroke="#000000" d="M1893,-122.0908C1893,-145.1328 1893,-182 1893,-182 1893,-182 1021.7255,-182 1021.7255,-182"/>
<polygon fill="#000000" stroke="#000000" points="1021.7255,-178.5001 1011.7255,-182 1021.7254,-185.5001 1021.7255,-178.5001"/>
</g>
<!-- NotAuthorizedComponent -->
<g id="node2" class="node">
<title>NotAuthorizedComponent</title>
<polygon fill="#ffffb3" stroke="#000000" points="1808.8075,-122 1643.1925,-122 1643.1925,-86 1808.8075,-86 1808.8075,-122"/>
<text text-anchor="middle" x="1726" y="-99.8" font-family="Times,serif" font-size="14.00" fill="#000000">NotAuthorizedComponent</text>
</g>
<!-- NotAuthorizedComponent&#45;&gt;PrivateModule -->
<g id="edge2" class="edge">
<title>NotAuthorizedComponent&#45;&gt;PrivateModule</title>
<path fill="none" stroke="#000000" d="M1726,-122.2843C1726,-143.3211 1726,-175 1726,-175 1726,-175 1021.8335,-175 1021.8335,-175"/>
<polygon fill="#000000" stroke="#000000" points="1021.8335,-171.5001 1011.8335,-175 1021.8334,-178.5001 1021.8335,-171.5001"/>
</g>
<!-- NothingToDoComponent -->
<g id="node3" class="node">
<title>NothingToDoComponent</title>
<polygon fill="#ffffb3" stroke="#000000" points="1624.8794,-122 1465.1206,-122 1465.1206,-86 1624.8794,-86 1624.8794,-122"/>
<text text-anchor="middle" x="1545" y="-99.8" font-family="Times,serif" font-size="14.00" fill="#000000">NothingToDoComponent</text>
</g>
<!-- NothingToDoComponent&#45;&gt;PrivateModule -->
<g id="edge3" class="edge">
<title>NothingToDoComponent&#45;&gt;PrivateModule</title>
<path fill="none" stroke="#000000" d="M1545,-122.1061C1545,-141.3391 1545,-169 1545,-169 1545,-169 1021.7063,-169 1021.7063,-169"/>
<polygon fill="#000000" stroke="#000000" points="1021.7063,-165.5001 1011.7063,-169 1021.7062,-172.5001 1021.7063,-165.5001"/>
</g>
<!-- PrivateComponent -->
<g id="node4" class="node">
<title>PrivateComponent</title>
<polygon fill="#ffffb3" stroke="#000000" points="1447.486,-122 1326.514,-122 1326.514,-86 1447.486,-86 1447.486,-122"/>
<text text-anchor="middle" x="1387" y="-99.8" font-family="Times,serif" font-size="14.00" fill="#000000">PrivateComponent</text>
</g>
<!-- PrivateComponent&#45;&gt;PrivateModule -->
<g id="edge4" class="edge">
<title>PrivateComponent&#45;&gt;PrivateModule</title>
<path fill="none" stroke="#000000" d="M1387,-122.0225C1387,-139.3734 1387,-163 1387,-163 1387,-163 1022.0027,-163 1022.0027,-163"/>
<polygon fill="#000000" stroke="#000000" points="1022.0027,-159.5001 1012.0027,-163 1022.0026,-166.5001 1022.0027,-159.5001"/>
</g>
<!-- RelevantInformationComponent -->
<g id="node5" class="node">
<title>RelevantInformationComponent</title>
<polygon fill="#ffffb3" stroke="#000000" points="1308.9622,-122 1111.0378,-122 1111.0378,-86 1308.9622,-86 1308.9622,-122"/>
<text text-anchor="middle" x="1210" y="-99.8" font-family="Times,serif" font-size="14.00" fill="#000000">RelevantInformationComponent</text>
</g>
<!-- RelevantInformationComponent&#45;&gt;PrivateModule -->
<g id="edge5" class="edge">
<title>RelevantInformationComponent&#45;&gt;PrivateModule</title>
<path fill="none" stroke="#000000" d="M1210,-122.2396C1210,-137.5706 1210,-157 1210,-157 1210,-157 1021.8882,-157 1021.8882,-157"/>
<polygon fill="#000000" stroke="#000000" points="1021.8882,-153.5001 1011.8882,-157 1021.8881,-160.5001 1021.8882,-153.5001"/>
</g>
<!-- DesktopModule -->
<g id="node7" class="node">
<title>DesktopModule</title>
<polygon fill="#8dd3c7" stroke="#000000" points="1087.2064,-122 1084.2064,-126 1063.2064,-126 1060.2064,-122 980.7936,-122 980.7936,-86 1087.2064,-86 1087.2064,-122"/>
<text text-anchor="middle" x="1034" y="-99.8" font-family="Times,serif" font-size="14.00" fill="#000000">DesktopModule</text>
</g>
<!-- DesktopModule&#45;&gt;PrivateModule -->
<g id="edge6" class="edge">
<title>DesktopModule&#45;&gt;PrivateModule</title>
<path fill="none" stroke="#000000" d="M996.2493,-122.1061C996.2493,-122.1061 996.2493,-140.991 996.2493,-140.991"/>
<polygon fill="#000000" stroke="#000000" points="992.7494,-140.9909 996.2493,-150.991 999.7494,-140.991 992.7494,-140.9909"/>
</g>
<!-- PrivateRoutingModule -->
<g id="node8" class="node">
<title>PrivateRoutingModule</title>
<polygon fill="#8dd3c7" stroke="#000000" points="963.3216,-122 960.3216,-126 939.3216,-126 936.3216,-122 818.6784,-122 818.6784,-86 963.3216,-86 963.3216,-122"/>
<text text-anchor="middle" x="891" y="-99.8" font-family="Times,serif" font-size="14.00" fill="#000000">PrivateRoutingModule</text>
</g>
<!-- PrivateRoutingModule&#45;&gt;PrivateModule -->
<g id="edge7" class="edge">
<title>PrivateRoutingModule&#45;&gt;PrivateModule</title>
<path fill="none" stroke="#000000" d="M937.7795,-122.1061C937.7795,-122.1061 937.7795,-140.991 937.7795,-140.991"/>
<polygon fill="#000000" stroke="#000000" points="934.2795,-140.9909 937.7795,-150.991 941.2795,-140.991 934.2795,-140.9909"/>
</g>
<!-- SearchModule -->
<g id="node9" class="node">
<title>SearchModule</title>
<polygon fill="#8dd3c7" stroke="#000000" points="800.6375,-122 797.6375,-126 776.6375,-126 773.6375,-122 703.3625,-122 703.3625,-86 800.6375,-86 800.6375,-122"/>
<text text-anchor="middle" x="752" y="-99.8" font-family="Times,serif" font-size="14.00" fill="#000000">SearchModule</text>
</g>
<!-- SearchModule&#45;&gt;PrivateModule -->
<g id="edge8" class="edge">
<title>SearchModule&#45;&gt;PrivateModule</title>
<path fill="none" stroke="#000000" d="M752,-122.2396C752,-137.5706 752,-157 752,-157 752,-157 902.2329,-157 902.2329,-157"/>
<polygon fill="#000000" stroke="#000000" points="902.233,-160.5001 912.2329,-157 902.2329,-153.5001 902.233,-160.5001"/>
</g>
<!-- SharedModule -->
<g id="node10" class="node">
<title>SharedModule</title>
<polygon fill="#8dd3c7" stroke="#000000" points="685.4231,-122 682.4231,-126 661.4231,-126 658.4231,-122 586.5769,-122 586.5769,-86 685.4231,-86 685.4231,-122"/>
<text text-anchor="middle" x="636" y="-99.8" font-family="Times,serif" font-size="14.00" fill="#000000">SharedModule</text>
</g>
<!-- SharedModule&#45;&gt;PrivateModule -->
<g id="edge9" class="edge">
<title>SharedModule&#45;&gt;PrivateModule</title>
<path fill="none" stroke="#000000" d="M636,-122.0225C636,-139.3734 636,-163 636,-163 636,-163 902.1327,-163 902.1327,-163"/>
<polygon fill="#000000" stroke="#000000" points="902.1328,-166.5001 912.1327,-163 902.1327,-159.5001 902.1328,-166.5001"/>
</g>
<!-- AccreditationService -->
<g id="node11" class="node">
<title>AccreditationService</title>
<ellipse fill="#fdb462" stroke="#000000" cx="470" cy="-104" rx="92.59" ry="18"/>
<text text-anchor="middle" x="470" y="-99.8" font-family="Times,serif" font-size="14.00" fill="#000000">AccreditationService</text>
</g>
<!-- AccreditationService&#45;&gt;PrivateModule -->
<g id="edge10" class="edge">
<title>AccreditationService&#45;&gt;PrivateModule</title>
<path fill="none" stroke="#000000" d="M470,-122.1061C470,-141.3391 470,-169 470,-169 470,-169 902.1169,-169 902.1169,-169"/>
<polygon fill="#000000" stroke="#000000" points="902.1169,-172.5001 912.1169,-169 902.1168,-165.5001 902.1169,-172.5001"/>
</g>
<!-- CalendarService -->
<g id="node12" class="node">
<title>CalendarService</title>
<ellipse fill="#fdb462" stroke="#000000" cx="285" cy="-104" rx="74.6956" ry="18"/>
<text text-anchor="middle" x="285" y="-99.8" font-family="Times,serif" font-size="14.00" fill="#000000">CalendarService</text>
</g>
<!-- CalendarService&#45;&gt;PrivateModule -->
<g id="edge11" class="edge">
<title>CalendarService&#45;&gt;PrivateModule</title>
<path fill="none" stroke="#000000" d="M285,-122.2843C285,-143.3211 285,-175 285,-175 285,-175 902.2186,-175 902.2186,-175"/>
<polygon fill="#000000" stroke="#000000" points="902.2186,-178.5001 912.2186,-175 902.2185,-171.5001 902.2186,-178.5001"/>
</g>
<!-- ConferenceService -->
<g id="node13" class="node">
<title>ConferenceService</title>
<ellipse fill="#fdb462" stroke="#000000" cx="108" cy="-104" rx="84.488" ry="18"/>
<text text-anchor="middle" x="108" y="-99.8" font-family="Times,serif" font-size="14.00" fill="#000000">ConferenceService</text>
</g>
<!-- ConferenceService&#45;&gt;PrivateModule -->
<g id="edge12" class="edge">
<title>ConferenceService&#45;&gt;PrivateModule</title>
<path fill="none" stroke="#000000" d="M108,-122.0908C108,-145.1328 108,-182 108,-182 108,-182 902.3941,-182 902.3941,-182"/>
<polygon fill="#000000" stroke="#000000" points="902.3941,-185.5001 912.3941,-182 902.394,-178.5001 902.3941,-185.5001"/>
</g>
</g>
</svg>
