<?xml version="1.0" encoding="UTF-8" standalone="no"?>
<!DOCTYPE svg PUBLIC "-//W3C//DTD SVG 1.1//EN"
 "http://www.w3.org/Graphics/SVG/1.1/DTD/svg11.dtd">
<!-- Generated by graphviz version 2.40.1 (20161225.0304)
 -->
<!-- Title: dependencies Pages: 1 -->
<svg width="504pt" height="211pt"
 viewBox="0.00 0.00 504.00 211.00" xmlns="http://www.w3.org/2000/svg" xmlns:xlink="http://www.w3.org/1999/xlink">
<g id="graph0" class="graph" transform="scale(1 1) rotate(0) translate(4 207)">
<title>dependencies</title>
<polygon fill="#ffffff" stroke="transparent" points="-4,4 -4,-207 500,-207 500,4 -4,4"/>
<text text-anchor="start" x="227.0091" y="-42.4" font-family="sans-serif" font-weight="bold" font-size="14.00" fill="#000000">Legend</text>
<polygon fill="#ffffb3" stroke="transparent" points="14,-10 14,-30 34,-30 34,-10 14,-10"/>
<text text-anchor="start" x="37.629" y="-15.4" font-family="sans-serif" font-size="14.00" fill="#000000"> &#160;Declarations</text>
<polygon fill="#8dd3c7" stroke="transparent" points="127,-10 127,-30 147,-30 147,-10 127,-10"/>
<text text-anchor="start" x="150.7251" y="-15.4" font-family="sans-serif" font-size="14.00" fill="#000000"> &#160;Module</text>
<polygon fill="#80b1d3" stroke="transparent" points="213,-10 213,-30 233,-30 233,-10 213,-10"/>
<text text-anchor="start" x="236.7812" y="-15.4" font-family="sans-serif" font-size="14.00" fill="#000000"> &#160;Bootstrap</text>
<polygon fill="#fdb462" stroke="transparent" points="310,-10 310,-30 330,-30 330,-10 310,-10"/>
<text text-anchor="start" x="333.6732" y="-15.4" font-family="sans-serif" font-size="14.00" fill="#000000"> &#160;Providers</text>
<polygon fill="#fb8072" stroke="transparent" points="406,-10 406,-30 426,-30 426,-10 406,-10"/>
<text text-anchor="start" x="429.7258" y="-15.4" font-family="sans-serif" font-size="14.00" fill="#000000"> &#160;Exports</text>
<g id="clust1" class="cluster">
<title>cluster_DesktopModule</title>
<polygon fill="none" stroke="#000000" stroke-dasharray="1,5" points="29,-70 29,-195 467,-195 467,-70 29,-70"/>
</g>
<g id="clust2" class="cluster">
<title>cluster_DesktopModule_declarations</title>
<polygon fill="none" stroke="#000000" points="315,-78 315,-130 459,-130 459,-78 315,-78"/>
</g>
<g id="clust4" class="cluster">
<title>cluster_DesktopModule_imports</title>
<polygon fill="none" stroke="#000000" points="37,-78 37,-130 307,-130 307,-78 37,-78"/>
</g>
<!-- DesktopComponent -->
<g id="node1" class="node">
<title>DesktopComponent</title>
<polygon fill="#ffffb3" stroke="#000000" points="450.9888,-122 323.0112,-122 323.0112,-86 450.9888,-86 450.9888,-122"/>
<text text-anchor="middle" x="387" y="-99.8" font-family="Times,serif" font-size="14.00" fill="#000000">DesktopComponent</text>
</g>
<!-- DesktopModule -->
<g id="node2" class="node">
<title>DesktopModule</title>
<polygon fill="#8dd3c7" stroke="#000000" points="303.2064,-187 300.2064,-191 279.2064,-191 276.2064,-187 196.7936,-187 196.7936,-151 303.2064,-151 303.2064,-187"/>
<text text-anchor="middle" x="250" y="-164.8" font-family="Times,serif" font-size="14.00" fill="#000000">DesktopModule</text>
</g>
<!-- DesktopComponent&#45;&gt;DesktopModule -->
<g id="edge1" class="edge">
<title>DesktopComponent&#45;&gt;DesktopModule</title>
<path fill="none" stroke="#000000" d="M387,-122.1061C387,-141.3391 387,-169 387,-169 387,-169 313.3601,-169 313.3601,-169"/>
<polygon fill="#000000" stroke="#000000" points="313.3601,-165.5001 303.3601,-169 313.36,-172.5001 313.3601,-165.5001"/>
</g>
<!-- SharedModule -->
<g id="node3" class="node">
<title>SharedModule</title>
<polygon fill="#8dd3c7" stroke="#000000" points="299.4231,-122 296.4231,-126 275.4231,-126 272.4231,-122 200.5769,-122 200.5769,-86 299.4231,-86 299.4231,-122"/>
<text text-anchor="middle" x="250" y="-99.8" font-family="Times,serif" font-size="14.00" fill="#000000">SharedModule</text>
</g>
<!-- SharedModule&#45;&gt;DesktopModule -->
<g id="edge2" class="edge">
<title>SharedModule&#45;&gt;DesktopModule</title>
<path fill="none" stroke="#000000" d="M250,-122.1061C250,-122.1061 250,-140.991 250,-140.991"/>
<polygon fill="#000000" stroke="#000000" points="246.5001,-140.9909 250,-150.991 253.5001,-140.991 246.5001,-140.9909"/>
</g>
<!-- SharedPrivateModule -->
<g id="node4" class="node">
<title>SharedPrivateModule</title>
<polygon fill="#8dd3c7" stroke="#000000" points="183.0758,-122 180.0758,-126 159.0758,-126 156.0758,-122 44.9242,-122 44.9242,-86 183.0758,-86 183.0758,-122"/>
<text text-anchor="middle" x="114" y="-99.8" font-family="Times,serif" font-size="14.00" fill="#000000">SharedPrivateModule</text>
</g>
<!-- SharedPrivateModule&#45;&gt;DesktopModule -->
<g id="edge3" class="edge">
<title>SharedPrivateModule&#45;&gt;DesktopModule</title>
<path fill="none" stroke="#000000" d="M114,-122.1061C114,-141.3391 114,-169 114,-169 114,-169 186.6395,-169 186.6395,-169"/>
<polygon fill="#000000" stroke="#000000" points="186.6396,-172.5001 196.6395,-169 186.6395,-165.5001 186.6396,-172.5001"/>
</g>
</g>
</svg>
