<?xml version="1.0" encoding="UTF-8" standalone="no"?>
<!DOCTYPE svg PUBLIC "-//W3C//DTD SVG 1.1//EN"
 "http://www.w3.org/Graphics/SVG/1.1/DTD/svg11.dtd">
<!-- Generated by graphviz version 2.40.1 (20161225.0304)
 -->
<!-- Title: dependencies Pages: 1 -->
<svg width="504pt" height="211pt"
 viewBox="0.00 0.00 504.00 211.00" xmlns="http://www.w3.org/2000/svg" xmlns:xlink="http://www.w3.org/1999/xlink">
<g id="graph0" class="graph" transform="scale(1 1) rotate(0) translate(4 207)">
<title>dependencies</title>
<polygon fill="#ffffff" stroke="transparent" points="-4,4 -4,-207 500,-207 500,4 -4,4"/>
<text text-anchor="start" x="227.0091" y="-42.4" font-family="sans-serif" font-weight="bold" font-size="14.00" fill="#000000">Legend</text>
<polygon fill="#ffffb3" stroke="transparent" points="14,-10 14,-30 34,-30 34,-10 14,-10"/>
<text text-anchor="start" x="37.629" y="-15.4" font-family="sans-serif" font-size="14.00" fill="#000000"> &#160;Declarations</text>
<polygon fill="#8dd3c7" stroke="transparent" points="127,-10 127,-30 147,-30 147,-10 127,-10"/>
<text text-anchor="start" x="150.7251" y="-15.4" font-family="sans-serif" font-size="14.00" fill="#000000"> &#160;Module</text>
<polygon fill="#80b1d3" stroke="transparent" points="213,-10 213,-30 233,-30 233,-10 213,-10"/>
<text text-anchor="start" x="236.7812" y="-15.4" font-family="sans-serif" font-size="14.00" fill="#000000"> &#160;Bootstrap</text>
<polygon fill="#fdb462" stroke="transparent" points="310,-10 310,-30 330,-30 330,-10 310,-10"/>
<text text-anchor="start" x="333.6732" y="-15.4" font-family="sans-serif" font-size="14.00" fill="#000000"> &#160;Providers</text>
<polygon fill="#fb8072" stroke="transparent" points="406,-10 406,-30 426,-30 426,-10 406,-10"/>
<text text-anchor="start" x="429.7258" y="-15.4" font-family="sans-serif" font-size="14.00" fill="#000000"> &#160;Exports</text>
<g id="clust1" class="cluster">
<title>cluster_PecWithRoutingModule</title>
<polygon fill="none" stroke="#000000" stroke-dasharray="1,5" points="134,-70 134,-195 362,-195 362,-70 134,-70"/>
</g>
<g id="clust3" class="cluster">
<title>cluster_PecWithRoutingModule_imports</title>
<polygon fill="none" stroke="#000000" points="142,-78 142,-130 354,-130 354,-78 142,-78"/>
</g>
<!-- PecModule -->
<g id="node1" class="node">
<title>PecModule</title>
<polygon fill="#8dd3c7" stroke="#000000" points="345.762,-122 342.762,-126 321.762,-126 318.762,-122 266.238,-122 266.238,-86 345.762,-86 345.762,-122"/>
<text text-anchor="middle" x="306" y="-99.8" font-family="Times,serif" font-size="14.00" fill="#000000">PecModule</text>
</g>
<!-- PecWithRoutingModule -->
<g id="node3" class="node">
<title>PecWithRoutingModule</title>
<polygon fill="#8dd3c7" stroke="#000000" points="324.3753,-187 321.3753,-191 300.3753,-191 297.3753,-187 171.6247,-187 171.6247,-151 324.3753,-151 324.3753,-187"/>
<text text-anchor="middle" x="248" y="-164.8" font-family="Times,serif" font-size="14.00" fill="#000000">PecWithRoutingModule</text>
</g>
<!-- PecModule&#45;&gt;PecWithRoutingModule -->
<g id="edge1" class="edge">
<title>PecModule&#45;&gt;PecWithRoutingModule</title>
<path fill="none" stroke="#000000" d="M295.2784,-122.1061C295.2784,-122.1061 295.2784,-140.991 295.2784,-140.991"/>
<polygon fill="#000000" stroke="#000000" points="291.7785,-140.9909 295.2784,-150.991 298.7785,-140.991 291.7785,-140.9909"/>
</g>
<!-- SharedModule -->
<g id="node2" class="node">
<title>SharedModule</title>
<polygon fill="#8dd3c7" stroke="#000000" points="248.4231,-122 245.4231,-126 224.4231,-126 221.4231,-122 149.5769,-122 149.5769,-86 248.4231,-86 248.4231,-122"/>
<text text-anchor="middle" x="199" y="-99.8" font-family="Times,serif" font-size="14.00" fill="#000000">SharedModule</text>
</g>
<!-- SharedModule&#45;&gt;PecWithRoutingModule -->
<g id="edge2" class="edge">
<title>SharedModule&#45;&gt;PecWithRoutingModule</title>
<path fill="none" stroke="#000000" d="M209.8868,-122.1061C209.8868,-122.1061 209.8868,-140.991 209.8868,-140.991"/>
<polygon fill="#000000" stroke="#000000" points="206.3868,-140.9909 209.8868,-150.991 213.3868,-140.991 206.3868,-140.9909"/>
</g>
</g>
</svg>
