<?xml version="1.0" encoding="UTF-8" standalone="no"?>
<!DOCTYPE svg PUBLIC "-//W3C//DTD SVG 1.1//EN"
 "http://www.w3.org/Graphics/SVG/1.1/DTD/svg11.dtd">
<!-- Generated by graphviz version 2.40.1 (20161225.0304)
 -->
<!-- Title: dependencies Pages: 1 -->
<svg width="594pt" height="284pt"
 viewBox="0.00 0.00 594.00 284.00" xmlns="http://www.w3.org/2000/svg" xmlns:xlink="http://www.w3.org/1999/xlink">
<g id="graph0" class="graph" transform="scale(1 1) rotate(0) translate(4 280)">
<title>dependencies</title>
<polygon fill="#ffffff" stroke="transparent" points="-4,4 -4,-280 590,-280 590,4 -4,4"/>
<text text-anchor="start" x="272.0091" y="-42.4" font-family="sans-serif" font-weight="bold" font-size="14.00" fill="#000000">Legend</text>
<polygon fill="#ffffb3" stroke="transparent" points="59,-10 59,-30 79,-30 79,-10 59,-10"/>
<text text-anchor="start" x="82.629" y="-15.4" font-family="sans-serif" font-size="14.00" fill="#000000"> &#160;Declarations</text>
<polygon fill="#8dd3c7" stroke="transparent" points="172,-10 172,-30 192,-30 192,-10 172,-10"/>
<text text-anchor="start" x="195.7251" y="-15.4" font-family="sans-serif" font-size="14.00" fill="#000000"> &#160;Module</text>
<polygon fill="#80b1d3" stroke="transparent" points="258,-10 258,-30 278,-30 278,-10 258,-10"/>
<text text-anchor="start" x="281.7812" y="-15.4" font-family="sans-serif" font-size="14.00" fill="#000000"> &#160;Bootstrap</text>
<polygon fill="#fdb462" stroke="transparent" points="355,-10 355,-30 375,-30 375,-10 355,-10"/>
<text text-anchor="start" x="378.6732" y="-15.4" font-family="sans-serif" font-size="14.00" fill="#000000"> &#160;Providers</text>
<polygon fill="#fb8072" stroke="transparent" points="451,-10 451,-30 471,-30 471,-10 451,-10"/>
<text text-anchor="start" x="474.7258" y="-15.4" font-family="sans-serif" font-size="14.00" fill="#000000"> &#160;Exports</text>
<g id="clust1" class="cluster">
<title>cluster_PecModule</title>
<polygon fill="none" stroke="#000000" stroke-dasharray="1,5" points="8,-70 8,-268 578,-268 578,-70 8,-70"/>
</g>
<g id="clust2" class="cluster">
<title>cluster_PecModule_declarations</title>
<polygon fill="none" stroke="#000000" points="294,-78 294,-130 570,-130 570,-78 294,-78"/>
</g>
<g id="clust5" class="cluster">
<title>cluster_PecModule_imports</title>
<polygon fill="none" stroke="#000000" points="16,-78 16,-130 286,-130 286,-78 16,-78"/>
</g>
<g id="clust6" class="cluster">
<title>cluster_PecModule_exports</title>
<polygon fill="none" stroke="#000000" points="239,-208 239,-260 361,-260 361,-208 239,-208"/>
</g>
<!-- PecComponent -->
<g id="node1" class="node">
<title>PecComponent</title>
<polygon fill="#ffffb3" stroke="#000000" points="561.5452,-122 460.4548,-122 460.4548,-86 561.5452,-86 561.5452,-122"/>
<text text-anchor="middle" x="511" y="-99.8" font-family="Times,serif" font-size="14.00" fill="#000000">PecComponent</text>
</g>
<!-- PecModule -->
<g id="node3" class="node">
<title>PecModule</title>
<polygon fill="#8dd3c7" stroke="#000000" points="339.762,-187 336.762,-191 315.762,-191 312.762,-187 260.238,-187 260.238,-151 339.762,-151 339.762,-187"/>
<text text-anchor="middle" x="300" y="-164.8" font-family="Times,serif" font-size="14.00" fill="#000000">PecModule</text>
</g>
<!-- PecComponent&#45;&gt;PecModule -->
<g id="edge1" class="edge">
<title>PecComponent&#45;&gt;PecModule</title>
<path fill="none" stroke="#000000" d="M511,-122.1061C511,-141.3391 511,-169 511,-169 511,-169 350.1841,-169 350.1841,-169"/>
<polygon fill="#000000" stroke="#000000" points="350.1842,-165.5001 340.1841,-169 350.1841,-172.5001 350.1842,-165.5001"/>
</g>
<!-- PecSearchComponent -->
<g id="node2" class="node">
<title>PecSearchComponent</title>
<polygon fill="#ffffb3" stroke="#000000" points="441.6317,-122 302.3683,-122 302.3683,-86 441.6317,-86 441.6317,-122"/>
<text text-anchor="middle" x="372" y="-99.8" font-family="Times,serif" font-size="14.00" fill="#000000">PecSearchComponent</text>
</g>
<!-- PecSearchComponent&#45;&gt;PecModule -->
<g id="edge2" class="edge">
<title>PecSearchComponent&#45;&gt;PecModule</title>
<path fill="none" stroke="#000000" d="M321.0326,-122.1061C321.0326,-122.1061 321.0326,-140.991 321.0326,-140.991"/>
<polygon fill="#000000" stroke="#000000" points="317.5327,-140.9909 321.0326,-150.991 324.5327,-140.991 317.5327,-140.9909"/>
</g>
<!-- PecComponent  -->
<g id="node6" class="node">
<title>PecComponent </title>
<polygon fill="#fb8072" stroke="#000000" points="352.5442,-252 247.4558,-252 247.4558,-216 352.5442,-216 352.5442,-252"/>
<text text-anchor="middle" x="300" y="-229.8" font-family="Times,serif" font-size="14.00" fill="#000000">PecComponent </text>
</g>
<!-- PecModule&#45;&gt;PecComponent  -->
<g id="edge5" class="edge">
<title>PecModule&#45;&gt;PecComponent </title>
<path fill="none" stroke="#000000" stroke-dasharray="5,2" d="M300,-187.1061C300,-187.1061 300,-205.991 300,-205.991"/>
<polygon fill="#000000" stroke="#000000" points="296.5001,-205.9909 300,-215.991 303.5001,-205.991 296.5001,-205.9909"/>
</g>
<!-- SharedModule -->
<g id="node4" class="node">
<title>SharedModule</title>
<polygon fill="#8dd3c7" stroke="#000000" points="278.4231,-122 275.4231,-126 254.4231,-126 251.4231,-122 179.5769,-122 179.5769,-86 278.4231,-86 278.4231,-122"/>
<text text-anchor="middle" x="229" y="-99.8" font-family="Times,serif" font-size="14.00" fill="#000000">SharedModule</text>
</g>
<!-- SharedModule&#45;&gt;PecModule -->
<g id="edge3" class="edge">
<title>SharedModule&#45;&gt;PecModule</title>
<path fill="none" stroke="#000000" d="M269.1652,-122.1061C269.1652,-122.1061 269.1652,-140.991 269.1652,-140.991"/>
<polygon fill="#000000" stroke="#000000" points="265.6652,-140.9909 269.1652,-150.991 272.6652,-140.991 265.6652,-140.9909"/>
</g>
<!-- SharedPrivateModule -->
<g id="node5" class="node">
<title>SharedPrivateModule</title>
<polygon fill="#8dd3c7" stroke="#000000" points="162.0758,-122 159.0758,-126 138.0758,-126 135.0758,-122 23.9242,-122 23.9242,-86 162.0758,-86 162.0758,-122"/>
<text text-anchor="middle" x="93" y="-99.8" font-family="Times,serif" font-size="14.00" fill="#000000">SharedPrivateModule</text>
</g>
<!-- SharedPrivateModule&#45;&gt;PecModule -->
<g id="edge4" class="edge">
<title>SharedPrivateModule&#45;&gt;PecModule</title>
<path fill="none" stroke="#000000" d="M93,-122.1061C93,-141.3391 93,-169 93,-169 93,-169 250.0883,-169 250.0883,-169"/>
<polygon fill="#000000" stroke="#000000" points="250.0884,-172.5001 260.0883,-169 250.0883,-165.5001 250.0884,-172.5001"/>
</g>
</g>
</svg>
