<?xml version="1.0" encoding="UTF-8" standalone="no"?>
<!DOCTYPE svg PUBLIC "-//W3C//DTD SVG 1.1//EN"
 "http://www.w3.org/Graphics/SVG/1.1/DTD/svg11.dtd">
<!-- Generated by graphviz version 2.40.1 (20161225.0304)
 -->
<!-- Title: dependencies Pages: 1 -->
<svg width="1703pt" height="211pt"
 viewBox="0.00 0.00 1703.00 211.00" xmlns="http://www.w3.org/2000/svg" xmlns:xlink="http://www.w3.org/1999/xlink">
<g id="graph0" class="graph" transform="scale(1 1) rotate(0) translate(4 207)">
<title>dependencies</title>
<polygon fill="#ffffff" stroke="transparent" points="-4,4 -4,-207 1699,-207 1699,4 -4,4"/>
<text text-anchor="start" x="826.5091" y="-42.4" font-family="sans-serif" font-weight="bold" font-size="14.00" fill="#000000">Legend</text>
<polygon fill="#ffffb3" stroke="transparent" points="613.5,-10 613.5,-30 633.5,-30 633.5,-10 613.5,-10"/>
<text text-anchor="start" x="637.129" y="-15.4" font-family="sans-serif" font-size="14.00" fill="#000000"> &#160;Declarations</text>
<polygon fill="#8dd3c7" stroke="transparent" points="726.5,-10 726.5,-30 746.5,-30 746.5,-10 726.5,-10"/>
<text text-anchor="start" x="750.2251" y="-15.4" font-family="sans-serif" font-size="14.00" fill="#000000"> &#160;Module</text>
<polygon fill="#80b1d3" stroke="transparent" points="812.5,-10 812.5,-30 832.5,-30 832.5,-10 812.5,-10"/>
<text text-anchor="start" x="836.2812" y="-15.4" font-family="sans-serif" font-size="14.00" fill="#000000"> &#160;Bootstrap</text>
<polygon fill="#fdb462" stroke="transparent" points="909.5,-10 909.5,-30 929.5,-30 929.5,-10 909.5,-10"/>
<text text-anchor="start" x="933.1732" y="-15.4" font-family="sans-serif" font-size="14.00" fill="#000000"> &#160;Providers</text>
<polygon fill="#fb8072" stroke="transparent" points="1005.5,-10 1005.5,-30 1025.5,-30 1025.5,-10 1005.5,-10"/>
<text text-anchor="start" x="1029.2258" y="-15.4" font-family="sans-serif" font-size="14.00" fill="#000000"> &#160;Exports</text>
<g id="clust1" class="cluster">
<title>cluster_ConferenceModule</title>
<polygon fill="none" stroke="#000000" stroke-dasharray="1,5" points="8,-70 8,-195 1687,-195 1687,-70 8,-70"/>
</g>
<g id="clust2" class="cluster">
<title>cluster_ConferenceModule_declarations</title>
<polygon fill="none" stroke="#000000" points="1517,-78 1517,-130 1679,-130 1679,-78 1517,-78"/>
</g>
<g id="clust4" class="cluster">
<title>cluster_ConferenceModule_imports</title>
<polygon fill="none" stroke="#000000" points="870,-78 870,-130 1509,-130 1509,-78 870,-78"/>
</g>
<g id="clust7" class="cluster">
<title>cluster_ConferenceModule_providers</title>
<polygon fill="none" stroke="#000000" points="16,-78 16,-130 862,-130 862,-78 16,-78"/>
</g>
<!-- ConferenceComponent -->
<g id="node1" class="node">
<title>ConferenceComponent</title>
<polygon fill="#ffffb3" stroke="#000000" points="1670.8487,-122 1525.1513,-122 1525.1513,-86 1670.8487,-86 1670.8487,-122"/>
<text text-anchor="middle" x="1598" y="-99.8" font-family="Times,serif" font-size="14.00" fill="#000000">ConferenceComponent</text>
</g>
<!-- ConferenceModule -->
<g id="node2" class="node">
<title>ConferenceModule</title>
<polygon fill="#8dd3c7" stroke="#000000" points="1009.066,-187 1006.066,-191 985.066,-191 982.066,-187 884.934,-187 884.934,-151 1009.066,-151 1009.066,-187"/>
<text text-anchor="middle" x="947" y="-164.8" font-family="Times,serif" font-size="14.00" fill="#000000">ConferenceModule</text>
</g>
<!-- ConferenceComponent&#45;&gt;ConferenceModule -->
<g id="edge1" class="edge">
<title>ConferenceComponent&#45;&gt;ConferenceModule</title>
<path fill="none" stroke="#000000" d="M1598,-122.0109C1598,-144.4852 1598,-180 1598,-180 1598,-180 1019.1257,-180 1019.1257,-180"/>
<polygon fill="#000000" stroke="#000000" points="1019.1258,-176.5001 1009.1257,-180 1019.1257,-183.5001 1019.1258,-176.5001"/>
</g>
<!-- ConferenceRoutingModule -->
<g id="node3" class="node">
<title>ConferenceRoutingModule</title>
<polygon fill="#8dd3c7" stroke="#000000" points="1500.6839,-122 1497.6839,-126 1476.6839,-126 1473.6839,-122 1331.3161,-122 1331.3161,-86 1500.6839,-86 1500.6839,-122"/>
<text text-anchor="middle" x="1416" y="-99.8" font-family="Times,serif" font-size="14.00" fill="#000000">ConferenceRoutingModule</text>
</g>
<!-- ConferenceRoutingModule&#45;&gt;ConferenceModule -->
<g id="edge2" class="edge">
<title>ConferenceRoutingModule&#45;&gt;ConferenceModule</title>
<path fill="none" stroke="#000000" d="M1416,-122.1289C1416,-142.5724 1416,-173 1416,-173 1416,-173 1019.2796,-173 1019.2796,-173"/>
<polygon fill="#000000" stroke="#000000" points="1019.2796,-169.5001 1009.2796,-173 1019.2795,-176.5001 1019.2796,-169.5001"/>
</g>
<!-- ConferenceSharedModule -->
<g id="node4" class="node">
<title>ConferenceSharedModule</title>
<polygon fill="#8dd3c7" stroke="#000000" points="1313.4384,-122 1310.4384,-126 1289.4384,-126 1286.4384,-122 1150.5616,-122 1150.5616,-86 1313.4384,-86 1313.4384,-122"/>
<text text-anchor="middle" x="1232" y="-99.8" font-family="Times,serif" font-size="14.00" fill="#000000">ConferenceSharedModule</text>
</g>
<!-- ConferenceSharedModule&#45;&gt;ConferenceModule -->
<g id="edge3" class="edge">
<title>ConferenceSharedModule&#45;&gt;ConferenceModule</title>
<path fill="none" stroke="#000000" d="M1232,-122.2667C1232,-140.5552 1232,-166 1232,-166 1232,-166 1019.1923,-166 1019.1923,-166"/>
<polygon fill="#000000" stroke="#000000" points="1019.1923,-162.5001 1009.1923,-166 1019.1922,-169.5001 1019.1923,-162.5001"/>
</g>
<!-- SharedModule -->
<g id="node5" class="node">
<title>SharedModule</title>
<polygon fill="#8dd3c7" stroke="#000000" points="1132.4231,-122 1129.4231,-126 1108.4231,-126 1105.4231,-122 1033.5769,-122 1033.5769,-86 1132.4231,-86 1132.4231,-122"/>
<text text-anchor="middle" x="1083" y="-99.8" font-family="Times,serif" font-size="14.00" fill="#000000">SharedModule</text>
</g>
<!-- SharedModule&#45;&gt;ConferenceModule -->
<g id="edge4" class="edge">
<title>SharedModule&#45;&gt;ConferenceModule</title>
<path fill="none" stroke="#000000" d="M1083,-122.0091C1083,-138.0494 1083,-159 1083,-159 1083,-159 1019.4274,-159 1019.4274,-159"/>
<polygon fill="#000000" stroke="#000000" points="1019.4275,-155.5001 1009.4274,-159 1019.4274,-162.5001 1019.4275,-155.5001"/>
</g>
<!-- SharedPrivateModule -->
<g id="node6" class="node">
<title>SharedPrivateModule</title>
<polygon fill="#8dd3c7" stroke="#000000" points="1016.0758,-122 1013.0758,-126 992.0758,-126 989.0758,-122 877.9242,-122 877.9242,-86 1016.0758,-86 1016.0758,-122"/>
<text text-anchor="middle" x="947" y="-99.8" font-family="Times,serif" font-size="14.00" fill="#000000">SharedPrivateModule</text>
</g>
<!-- SharedPrivateModule&#45;&gt;ConferenceModule -->
<g id="edge5" class="edge">
<title>SharedPrivateModule&#45;&gt;ConferenceModule</title>
<path fill="none" stroke="#000000" d="M947,-122.1061C947,-122.1061 947,-140.991 947,-140.991"/>
<polygon fill="#000000" stroke="#000000" points="943.5001,-140.9909 947,-150.991 950.5001,-140.991 943.5001,-140.9909"/>
</g>
<!-- ConferencePermissionsService -->
<g id="node7" class="node">
<title>ConferencePermissionsService</title>
<ellipse fill="#fdb462" stroke="#000000" cx="723" cy="-104" rx="131.3341" ry="18"/>
<text text-anchor="middle" x="723" y="-99.8" font-family="Times,serif" font-size="14.00" fill="#000000">ConferencePermissionsService</text>
</g>
<!-- ConferencePermissionsService&#45;&gt;ConferenceModule -->
<g id="edge6" class="edge">
<title>ConferencePermissionsService&#45;&gt;ConferenceModule</title>
<path fill="none" stroke="#000000" d="M723,-122.0091C723,-138.0494 723,-159 723,-159 723,-159 874.901,-159 874.901,-159"/>
<polygon fill="#000000" stroke="#000000" points="874.901,-162.5001 884.901,-159 874.9009,-155.5001 874.901,-162.5001"/>
</g>
<!-- ConferenceStoreService -->
<g id="node8" class="node">
<title>ConferenceStoreService</title>
<ellipse fill="#fdb462" stroke="#000000" cx="469" cy="-104" rx="104.752" ry="18"/>
<text text-anchor="middle" x="469" y="-99.8" font-family="Times,serif" font-size="14.00" fill="#000000">ConferenceStoreService</text>
</g>
<!-- ConferenceStoreService&#45;&gt;ConferenceModule -->
<g id="edge7" class="edge">
<title>ConferenceStoreService&#45;&gt;ConferenceModule</title>
<path fill="none" stroke="#000000" d="M469,-122.2667C469,-140.5552 469,-166 469,-166 469,-166 874.5098,-166 874.5098,-166"/>
<polygon fill="#000000" stroke="#000000" points="874.5099,-169.5001 884.5098,-166 874.5098,-162.5001 874.5099,-169.5001"/>
</g>
<!-- EventsService -->
<g id="node9" class="node">
<title>EventsService</title>
<ellipse fill="#fdb462" stroke="#000000" cx="280" cy="-104" rx="66.0492" ry="18"/>
<text text-anchor="middle" x="280" y="-99.8" font-family="Times,serif" font-size="14.00" fill="#000000">EventsService</text>
</g>
<!-- EventsService&#45;&gt;ConferenceModule -->
<g id="edge8" class="edge">
<title>EventsService&#45;&gt;ConferenceModule</title>
<path fill="none" stroke="#000000" d="M280,-122.1289C280,-142.5724 280,-173 280,-173 280,-173 874.8492,-173 874.8492,-173"/>
<polygon fill="#000000" stroke="#000000" points="874.8493,-176.5001 884.8492,-173 874.8492,-169.5001 874.8493,-176.5001"/>
</g>
<!-- ParticipantsService -->
<g id="node10" class="node">
<title>ParticipantsService</title>
<ellipse fill="#fdb462" stroke="#000000" cx="110" cy="-104" rx="85.6647" ry="18"/>
<text text-anchor="middle" x="110" y="-99.8" font-family="Times,serif" font-size="14.00" fill="#000000">ParticipantsService</text>
</g>
<!-- ParticipantsService&#45;&gt;ConferenceModule -->
<g id="edge9" class="edge">
<title>ParticipantsService&#45;&gt;ConferenceModule</title>
<path fill="none" stroke="#000000" d="M110,-122.0109C110,-144.4852 110,-180 110,-180 110,-180 874.7728,-180 874.7728,-180"/>
<polygon fill="#000000" stroke="#000000" points="874.7728,-183.5001 884.7728,-180 874.7727,-176.5001 874.7728,-183.5001"/>
</g>
</g>
</svg>
