<?xml version="1.0" encoding="UTF-8" standalone="no"?>
<!DOCTYPE svg PUBLIC "-//W3C//DTD SVG 1.1//EN"
 "http://www.w3.org/Graphics/SVG/1.1/DTD/svg11.dtd">
<!-- Generated by graphviz version 2.40.1 (20161225.0304)
 -->
<!-- Title: dependencies Pages: 1 -->
<svg width="994pt" height="284pt"
 viewBox="0.00 0.00 994.00 284.00" xmlns="http://www.w3.org/2000/svg" xmlns:xlink="http://www.w3.org/1999/xlink">
<g id="graph0" class="graph" transform="scale(1 1) rotate(0) translate(4 280)">
<title>dependencies</title>
<polygon fill="#ffffff" stroke="transparent" points="-4,4 -4,-280 990,-280 990,4 -4,4"/>
<text text-anchor="start" x="472.0091" y="-42.4" font-family="sans-serif" font-weight="bold" font-size="14.00" fill="#000000">Legend</text>
<polygon fill="#ffffb3" stroke="transparent" points="259,-10 259,-30 279,-30 279,-10 259,-10"/>
<text text-anchor="start" x="282.629" y="-15.4" font-family="sans-serif" font-size="14.00" fill="#000000"> &#160;Declarations</text>
<polygon fill="#8dd3c7" stroke="transparent" points="372,-10 372,-30 392,-30 392,-10 372,-10"/>
<text text-anchor="start" x="395.7251" y="-15.4" font-family="sans-serif" font-size="14.00" fill="#000000"> &#160;Module</text>
<polygon fill="#80b1d3" stroke="transparent" points="458,-10 458,-30 478,-30 478,-10 458,-10"/>
<text text-anchor="start" x="481.7812" y="-15.4" font-family="sans-serif" font-size="14.00" fill="#000000"> &#160;Bootstrap</text>
<polygon fill="#fdb462" stroke="transparent" points="555,-10 555,-30 575,-30 575,-10 555,-10"/>
<text text-anchor="start" x="578.6732" y="-15.4" font-family="sans-serif" font-size="14.00" fill="#000000"> &#160;Providers</text>
<polygon fill="#fb8072" stroke="transparent" points="651,-10 651,-30 671,-30 671,-10 651,-10"/>
<text text-anchor="start" x="674.7258" y="-15.4" font-family="sans-serif" font-size="14.00" fill="#000000"> &#160;Exports</text>
<g id="clust1" class="cluster">
<title>cluster_FormModule</title>
<polygon fill="none" stroke="#000000" stroke-dasharray="1,5" points="8,-70 8,-268 978,-268 978,-70 8,-70"/>
</g>
<g id="clust2" class="cluster">
<title>cluster_FormModule_declarations</title>
<polygon fill="none" stroke="#000000" points="324,-78 324,-130 970,-130 970,-78 324,-78"/>
</g>
<g id="clust7" class="cluster">
<title>cluster_FormModule_imports</title>
<polygon fill="none" stroke="#000000" points="202,-78 202,-130 316,-130 316,-78 202,-78"/>
</g>
<g id="clust8" class="cluster">
<title>cluster_FormModule_exports</title>
<polygon fill="none" stroke="#000000" points="412,-208 412,-260 544,-260 544,-208 412,-208"/>
</g>
<g id="clust10" class="cluster">
<title>cluster_FormModule_providers</title>
<polygon fill="none" stroke="#000000" points="16,-78 16,-130 194,-130 194,-78 16,-78"/>
</g>
<!-- FormComponent -->
<g id="node1" class="node">
<title>FormComponent</title>
<polygon fill="#ffffb3" stroke="#000000" points="961.6667,-122 850.3333,-122 850.3333,-86 961.6667,-86 961.6667,-122"/>
<text text-anchor="middle" x="906" y="-99.8" font-family="Times,serif" font-size="14.00" fill="#000000">FormComponent</text>
</g>
<!-- FormModule -->
<g id="node5" class="node">
<title>FormModule</title>
<polygon fill="#8dd3c7" stroke="#000000" points="522.8837,-187 519.8837,-191 498.8837,-191 495.8837,-187 433.1163,-187 433.1163,-151 522.8837,-151 522.8837,-187"/>
<text text-anchor="middle" x="478" y="-164.8" font-family="Times,serif" font-size="14.00" fill="#000000">FormModule</text>
</g>
<!-- FormComponent&#45;&gt;FormModule -->
<g id="edge1" class="edge">
<title>FormComponent&#45;&gt;FormModule</title>
<path fill="none" stroke="#000000" d="M906,-122.2843C906,-143.3211 906,-175 906,-175 906,-175 532.9946,-175 532.9946,-175"/>
<polygon fill="#000000" stroke="#000000" points="532.9946,-171.5001 522.9946,-175 532.9945,-178.5001 532.9946,-171.5001"/>
</g>
<!-- OneToManyFormComponent -->
<g id="node2" class="node">
<title>OneToManyFormComponent</title>
<polygon fill="#ffffb3" stroke="#000000" points="832.6993,-122 649.3007,-122 649.3007,-86 832.6993,-86 832.6993,-122"/>
<text text-anchor="middle" x="741" y="-99.8" font-family="Times,serif" font-size="14.00" fill="#000000">OneToManyFormComponent</text>
</g>
<!-- OneToManyFormComponent&#45;&gt;FormModule -->
<g id="edge2" class="edge">
<title>OneToManyFormComponent&#45;&gt;FormModule</title>
<path fill="none" stroke="#000000" d="M741,-122.0225C741,-139.3734 741,-163 741,-163 741,-163 532.9125,-163 532.9125,-163"/>
<polygon fill="#000000" stroke="#000000" points="532.9125,-159.5001 522.9125,-163 532.9124,-166.5001 532.9125,-159.5001"/>
</g>
<!-- InputsFormComponent -->
<g id="node3" class="node">
<title>InputsFormComponent</title>
<polygon fill="#ffffb3" stroke="#000000" points="631.1624,-122 484.8376,-122 484.8376,-86 631.1624,-86 631.1624,-122"/>
<text text-anchor="middle" x="558" y="-99.8" font-family="Times,serif" font-size="14.00" fill="#000000">InputsFormComponent</text>
</g>
<!-- InputsFormComponent&#45;&gt;FormModule -->
<g id="edge3" class="edge">
<title>InputsFormComponent&#45;&gt;FormModule</title>
<path fill="none" stroke="#000000" d="M503.8054,-122.1061C503.8054,-122.1061 503.8054,-140.991 503.8054,-140.991"/>
<polygon fill="#000000" stroke="#000000" points="500.3055,-140.9909 503.8054,-150.991 507.3055,-140.991 500.3055,-140.9909"/>
</g>
<!-- ListTableComponent -->
<g id="node4" class="node">
<title>ListTableComponent</title>
<polygon fill="#ffffb3" stroke="#000000" points="466.4832,-122 331.5168,-122 331.5168,-86 466.4832,-86 466.4832,-122"/>
<text text-anchor="middle" x="399" y="-99.8" font-family="Times,serif" font-size="14.00" fill="#000000">ListTableComponent</text>
</g>
<!-- ListTableComponent&#45;&gt;FormModule -->
<g id="edge4" class="edge">
<title>ListTableComponent&#45;&gt;FormModule</title>
<path fill="none" stroke="#000000" d="M449.7749,-122.1061C449.7749,-122.1061 449.7749,-140.991 449.7749,-140.991"/>
<polygon fill="#000000" stroke="#000000" points="446.275,-140.9909 449.7749,-150.991 453.275,-140.991 446.275,-140.9909"/>
</g>
<!-- FormComponent  -->
<g id="node7" class="node">
<title>FormComponent </title>
<polygon fill="#fb8072" stroke="#000000" points="535.6663,-252 420.3337,-252 420.3337,-216 535.6663,-216 535.6663,-252"/>
<text text-anchor="middle" x="478" y="-229.8" font-family="Times,serif" font-size="14.00" fill="#000000">FormComponent </text>
</g>
<!-- FormModule&#45;&gt;FormComponent  -->
<g id="edge6" class="edge">
<title>FormModule&#45;&gt;FormComponent </title>
<path fill="none" stroke="#000000" stroke-dasharray="5,2" d="M478,-187.1061C478,-187.1061 478,-205.991 478,-205.991"/>
<polygon fill="#000000" stroke="#000000" points="474.5001,-205.9909 478,-215.991 481.5001,-205.991 474.5001,-205.9909"/>
</g>
<!-- SharedModule -->
<g id="node6" class="node">
<title>SharedModule</title>
<polygon fill="#8dd3c7" stroke="#000000" points="308.4231,-122 305.4231,-126 284.4231,-126 281.4231,-122 209.5769,-122 209.5769,-86 308.4231,-86 308.4231,-122"/>
<text text-anchor="middle" x="259" y="-99.8" font-family="Times,serif" font-size="14.00" fill="#000000">SharedModule</text>
</g>
<!-- SharedModule&#45;&gt;FormModule -->
<g id="edge5" class="edge">
<title>SharedModule&#45;&gt;FormModule</title>
<path fill="none" stroke="#000000" d="M259,-122.0225C259,-139.3734 259,-163 259,-163 259,-163 422.8886,-163 422.8886,-163"/>
<polygon fill="#000000" stroke="#000000" points="422.8886,-166.5001 432.8886,-163 422.8886,-159.5001 422.8886,-166.5001"/>
</g>
<!-- FormStoreService -->
<g id="node8" class="node">
<title>FormStoreService</title>
<ellipse fill="#fdb462" stroke="#000000" cx="105" cy="-104" rx="81.0956" ry="18"/>
<text text-anchor="middle" x="105" y="-99.8" font-family="Times,serif" font-size="14.00" fill="#000000">FormStoreService</text>
</g>
<!-- FormStoreService&#45;&gt;FormModule -->
<g id="edge7" class="edge">
<title>FormStoreService&#45;&gt;FormModule</title>
<path fill="none" stroke="#000000" d="M105,-122.2843C105,-143.3211 105,-175 105,-175 105,-175 423.0075,-175 423.0075,-175"/>
<polygon fill="#000000" stroke="#000000" points="423.0075,-178.5001 433.0075,-175 423.0074,-171.5001 423.0075,-178.5001"/>
</g>
</g>
</svg>
