<?xml version="1.0" encoding="UTF-8" standalone="no"?>
<!DOCTYPE svg PUBLIC "-//W3C//DTD SVG 1.1//EN"
 "http://www.w3.org/Graphics/SVG/1.1/DTD/svg11.dtd">
<!-- Generated by graphviz version 2.40.1 (20161225.0304)
 -->
<!-- Title: dependencies Pages: 1 -->
<svg width="592pt" height="211pt"
 viewBox="0.00 0.00 592.00 211.00" xmlns="http://www.w3.org/2000/svg" xmlns:xlink="http://www.w3.org/1999/xlink">
<g id="graph0" class="graph" transform="scale(1 1) rotate(0) translate(4 207)">
<title>dependencies</title>
<polygon fill="#ffffff" stroke="transparent" points="-4,4 -4,-207 588,-207 588,4 -4,4"/>
<text text-anchor="start" x="271.0091" y="-42.4" font-family="sans-serif" font-weight="bold" font-size="14.00" fill="#000000">Legend</text>
<polygon fill="#ffffb3" stroke="transparent" points="58,-10 58,-30 78,-30 78,-10 58,-10"/>
<text text-anchor="start" x="81.629" y="-15.4" font-family="sans-serif" font-size="14.00" fill="#000000"> &#160;Declarations</text>
<polygon fill="#8dd3c7" stroke="transparent" points="171,-10 171,-30 191,-30 191,-10 171,-10"/>
<text text-anchor="start" x="194.7251" y="-15.4" font-family="sans-serif" font-size="14.00" fill="#000000"> &#160;Module</text>
<polygon fill="#80b1d3" stroke="transparent" points="257,-10 257,-30 277,-30 277,-10 257,-10"/>
<text text-anchor="start" x="280.7812" y="-15.4" font-family="sans-serif" font-size="14.00" fill="#000000"> &#160;Bootstrap</text>
<polygon fill="#fdb462" stroke="transparent" points="354,-10 354,-30 374,-30 374,-10 354,-10"/>
<text text-anchor="start" x="377.6732" y="-15.4" font-family="sans-serif" font-size="14.00" fill="#000000"> &#160;Providers</text>
<polygon fill="#fb8072" stroke="transparent" points="450,-10 450,-30 470,-30 470,-10 450,-10"/>
<text text-anchor="start" x="473.7258" y="-15.4" font-family="sans-serif" font-size="14.00" fill="#000000"> &#160;Exports</text>
<g id="clust1" class="cluster">
<title>cluster_PublicModule</title>
<polygon fill="none" stroke="#000000" stroke-dasharray="1,5" points="8,-70 8,-195 576,-195 576,-70 8,-70"/>
</g>
<g id="clust2" class="cluster">
<title>cluster_PublicModule_declarations</title>
<polygon fill="none" stroke="#000000" points="434,-78 434,-130 568,-130 568,-78 434,-78"/>
</g>
<g id="clust4" class="cluster">
<title>cluster_PublicModule_imports</title>
<polygon fill="none" stroke="#000000" points="16,-78 16,-130 426,-130 426,-78 16,-78"/>
</g>
<!-- PublicComponent -->
<g id="node1" class="node">
<title>PublicComponent</title>
<polygon fill="#ffffb3" stroke="#000000" points="559.6109,-122 442.3891,-122 442.3891,-86 559.6109,-86 559.6109,-122"/>
<text text-anchor="middle" x="501" y="-99.8" font-family="Times,serif" font-size="14.00" fill="#000000">PublicComponent</text>
</g>
<!-- PublicModule -->
<g id="node2" class="node">
<title>PublicModule</title>
<polygon fill="#8dd3c7" stroke="#000000" points="331.8288,-187 328.8288,-191 307.8288,-191 304.8288,-187 236.1712,-187 236.1712,-151 331.8288,-151 331.8288,-187"/>
<text text-anchor="middle" x="284" y="-164.8" font-family="Times,serif" font-size="14.00" fill="#000000">PublicModule</text>
</g>
<!-- PublicComponent&#45;&gt;PublicModule -->
<g id="edge1" class="edge">
<title>PublicComponent&#45;&gt;PublicModule</title>
<path fill="none" stroke="#000000" d="M501,-122.1061C501,-141.3391 501,-169 501,-169 501,-169 341.8902,-169 341.8902,-169"/>
<polygon fill="#000000" stroke="#000000" points="341.8902,-165.5001 331.8902,-169 341.8902,-172.5001 341.8902,-165.5001"/>
</g>
<!-- DashboardModule -->
<g id="node3" class="node">
<title>DashboardModule</title>
<polygon fill="#8dd3c7" stroke="#000000" points="418.191,-122 415.191,-126 394.191,-126 391.191,-122 297.809,-122 297.809,-86 418.191,-86 418.191,-122"/>
<text text-anchor="middle" x="358" y="-99.8" font-family="Times,serif" font-size="14.00" fill="#000000">DashboardModule</text>
</g>
<!-- DashboardModule&#45;&gt;PublicModule -->
<g id="edge2" class="edge">
<title>DashboardModule&#45;&gt;PublicModule</title>
<path fill="none" stroke="#000000" d="M314.7844,-122.1061C314.7844,-122.1061 314.7844,-140.991 314.7844,-140.991"/>
<polygon fill="#000000" stroke="#000000" points="311.2844,-140.9909 314.7844,-150.991 318.2844,-140.991 311.2844,-140.9909"/>
</g>
<!-- PublicRoutingModule -->
<g id="node4" class="node">
<title>PublicRoutingModule</title>
<polygon fill="#8dd3c7" stroke="#000000" points="280.4467,-122 277.4467,-126 256.4467,-126 253.4467,-122 139.5533,-122 139.5533,-86 280.4467,-86 280.4467,-122"/>
<text text-anchor="middle" x="210" y="-99.8" font-family="Times,serif" font-size="14.00" fill="#000000">PublicRoutingModule</text>
</g>
<!-- PublicRoutingModule&#45;&gt;PublicModule -->
<g id="edge3" class="edge">
<title>PublicRoutingModule&#45;&gt;PublicModule</title>
<path fill="none" stroke="#000000" d="M258.2795,-122.1061C258.2795,-122.1061 258.2795,-140.991 258.2795,-140.991"/>
<polygon fill="#000000" stroke="#000000" points="254.7795,-140.9909 258.2795,-150.991 261.7795,-140.991 254.7795,-140.9909"/>
</g>
<!-- SharedModule -->
<g id="node5" class="node">
<title>SharedModule</title>
<polygon fill="#8dd3c7" stroke="#000000" points="122.4231,-122 119.4231,-126 98.4231,-126 95.4231,-122 23.5769,-122 23.5769,-86 122.4231,-86 122.4231,-122"/>
<text text-anchor="middle" x="73" y="-99.8" font-family="Times,serif" font-size="14.00" fill="#000000">SharedModule</text>
</g>
<!-- SharedModule&#45;&gt;PublicModule -->
<g id="edge4" class="edge">
<title>SharedModule&#45;&gt;PublicModule</title>
<path fill="none" stroke="#000000" d="M73,-122.1061C73,-141.3391 73,-169 73,-169 73,-169 226.1208,-169 226.1208,-169"/>
<polygon fill="#000000" stroke="#000000" points="226.1209,-172.5001 236.1208,-169 226.1208,-165.5001 226.1209,-172.5001"/>
</g>
</g>
</svg>
