<?xml version="1.0" encoding="UTF-8" standalone="no"?>
<!DOCTYPE svg PUBLIC "-//W3C//DTD SVG 1.1//EN"
 "http://www.w3.org/Graphics/SVG/1.1/DTD/svg11.dtd">
<!-- Generated by graphviz version 2.40.1 (20161225.0304)
 -->
<!-- Title: dependencies Pages: 1 -->
<svg width="679pt" height="284pt"
 viewBox="0.00 0.00 679.00 284.00" xmlns="http://www.w3.org/2000/svg" xmlns:xlink="http://www.w3.org/1999/xlink">
<g id="graph0" class="graph" transform="scale(1 1) rotate(0) translate(4 280)">
<title>dependencies</title>
<polygon fill="#ffffff" stroke="transparent" points="-4,4 -4,-280 675,-280 675,4 -4,4"/>
<text text-anchor="start" x="314.5091" y="-42.4" font-family="sans-serif" font-weight="bold" font-size="14.00" fill="#000000">Legend</text>
<polygon fill="#ffffb3" stroke="transparent" points="101.5,-10 101.5,-30 121.5,-30 121.5,-10 101.5,-10"/>
<text text-anchor="start" x="125.129" y="-15.4" font-family="sans-serif" font-size="14.00" fill="#000000"> &#160;Declarations</text>
<polygon fill="#8dd3c7" stroke="transparent" points="214.5,-10 214.5,-30 234.5,-30 234.5,-10 214.5,-10"/>
<text text-anchor="start" x="238.2251" y="-15.4" font-family="sans-serif" font-size="14.00" fill="#000000"> &#160;Module</text>
<polygon fill="#80b1d3" stroke="transparent" points="300.5,-10 300.5,-30 320.5,-30 320.5,-10 300.5,-10"/>
<text text-anchor="start" x="324.2812" y="-15.4" font-family="sans-serif" font-size="14.00" fill="#000000"> &#160;Bootstrap</text>
<polygon fill="#fdb462" stroke="transparent" points="397.5,-10 397.5,-30 417.5,-30 417.5,-10 397.5,-10"/>
<text text-anchor="start" x="421.1732" y="-15.4" font-family="sans-serif" font-size="14.00" fill="#000000"> &#160;Providers</text>
<polygon fill="#fb8072" stroke="transparent" points="493.5,-10 493.5,-30 513.5,-30 513.5,-10 493.5,-10"/>
<text text-anchor="start" x="517.2258" y="-15.4" font-family="sans-serif" font-size="14.00" fill="#000000"> &#160;Exports</text>
<g id="clust1" class="cluster">
<title>cluster_ParticipantsModule</title>
<polygon fill="none" stroke="#000000" stroke-dasharray="1,5" points="8,-70 8,-268 663,-268 663,-70 8,-70"/>
</g>
<g id="clust2" class="cluster">
<title>cluster_ParticipantsModule_declarations</title>
<polygon fill="none" stroke="#000000" points="294,-78 294,-130 655,-130 655,-78 294,-78"/>
</g>
<g id="clust5" class="cluster">
<title>cluster_ParticipantsModule_imports</title>
<polygon fill="none" stroke="#000000" points="16,-78 16,-130 286,-130 286,-78 16,-78"/>
</g>
<g id="clust6" class="cluster">
<title>cluster_ParticipantsModule_exports</title>
<polygon fill="none" stroke="#000000" points="227,-208 227,-260 393,-260 393,-208 227,-208"/>
</g>
<!-- ParticipantsComponent -->
<g id="node1" class="node">
<title>ParticipantsComponent</title>
<polygon fill="#ffffb3" stroke="#000000" points="646.927,-122 499.073,-122 499.073,-86 646.927,-86 646.927,-122"/>
<text text-anchor="middle" x="573" y="-99.8" font-family="Times,serif" font-size="14.00" fill="#000000">ParticipantsComponent</text>
</g>
<!-- ParticipantsModule -->
<g id="node3" class="node">
<title>ParticipantsModule</title>
<polygon fill="#8dd3c7" stroke="#000000" points="372.6443,-187 369.6443,-191 348.6443,-191 345.6443,-187 247.3557,-187 247.3557,-151 372.6443,-151 372.6443,-187"/>
<text text-anchor="middle" x="310" y="-164.8" font-family="Times,serif" font-size="14.00" fill="#000000">ParticipantsModule</text>
</g>
<!-- ParticipantsComponent&#45;&gt;ParticipantsModule -->
<g id="edge1" class="edge">
<title>ParticipantsComponent&#45;&gt;ParticipantsModule</title>
<path fill="none" stroke="#000000" d="M573,-122.1061C573,-141.3391 573,-169 573,-169 573,-169 382.6609,-169 382.6609,-169"/>
<polygon fill="#000000" stroke="#000000" points="382.661,-165.5001 372.6609,-169 382.6609,-172.5001 382.661,-165.5001"/>
</g>
<!-- ParticipantsTableComponent -->
<g id="node2" class="node">
<title>ParticipantsTableComponent</title>
<polygon fill="#ffffb3" stroke="#000000" points="481.799,-122 302.201,-122 302.201,-86 481.799,-86 481.799,-122"/>
<text text-anchor="middle" x="392" y="-99.8" font-family="Times,serif" font-size="14.00" fill="#000000">ParticipantsTableComponent</text>
</g>
<!-- ParticipantsTableComponent&#45;&gt;ParticipantsModule -->
<g id="edge2" class="edge">
<title>ParticipantsTableComponent&#45;&gt;ParticipantsModule</title>
<path fill="none" stroke="#000000" d="M337.5862,-122.1061C337.5862,-122.1061 337.5862,-140.991 337.5862,-140.991"/>
<polygon fill="#000000" stroke="#000000" points="334.0863,-140.9909 337.5862,-150.991 341.0863,-140.991 334.0863,-140.9909"/>
</g>
<!-- ParticipantsComponent  -->
<g id="node6" class="node">
<title>ParticipantsComponent </title>
<polygon fill="#fb8072" stroke="#000000" points="385.4264,-252 234.5736,-252 234.5736,-216 385.4264,-216 385.4264,-252"/>
<text text-anchor="middle" x="310" y="-229.8" font-family="Times,serif" font-size="14.00" fill="#000000">ParticipantsComponent </text>
</g>
<!-- ParticipantsModule&#45;&gt;ParticipantsComponent  -->
<g id="edge5" class="edge">
<title>ParticipantsModule&#45;&gt;ParticipantsComponent </title>
<path fill="none" stroke="#000000" stroke-dasharray="5,2" d="M310,-187.1061C310,-187.1061 310,-205.991 310,-205.991"/>
<polygon fill="#000000" stroke="#000000" points="306.5001,-205.9909 310,-215.991 313.5001,-205.991 306.5001,-205.9909"/>
</g>
<!-- SharedModule -->
<g id="node4" class="node">
<title>SharedModule</title>
<polygon fill="#8dd3c7" stroke="#000000" points="278.4231,-122 275.4231,-126 254.4231,-126 251.4231,-122 179.5769,-122 179.5769,-86 278.4231,-86 278.4231,-122"/>
<text text-anchor="middle" x="229" y="-99.8" font-family="Times,serif" font-size="14.00" fill="#000000">SharedModule</text>
</g>
<!-- SharedModule&#45;&gt;ParticipantsModule -->
<g id="edge3" class="edge">
<title>SharedModule&#45;&gt;ParticipantsModule</title>
<path fill="none" stroke="#000000" d="M262.6946,-122.1061C262.6946,-122.1061 262.6946,-140.991 262.6946,-140.991"/>
<polygon fill="#000000" stroke="#000000" points="259.1947,-140.9909 262.6946,-150.991 266.1947,-140.991 259.1947,-140.9909"/>
</g>
<!-- SharedPrivateModule -->
<g id="node5" class="node">
<title>SharedPrivateModule</title>
<polygon fill="#8dd3c7" stroke="#000000" points="162.0758,-122 159.0758,-126 138.0758,-126 135.0758,-122 23.9242,-122 23.9242,-86 162.0758,-86 162.0758,-122"/>
<text text-anchor="middle" x="93" y="-99.8" font-family="Times,serif" font-size="14.00" fill="#000000">SharedPrivateModule</text>
</g>
<!-- SharedPrivateModule&#45;&gt;ParticipantsModule -->
<g id="edge4" class="edge">
<title>SharedPrivateModule&#45;&gt;ParticipantsModule</title>
<path fill="none" stroke="#000000" d="M93,-122.1061C93,-141.3391 93,-169 93,-169 93,-169 237.2346,-169 237.2346,-169"/>
<polygon fill="#000000" stroke="#000000" points="237.2346,-172.5001 247.2346,-169 237.2346,-165.5001 237.2346,-172.5001"/>
</g>
</g>
</svg>
