<?xml version="1.0" encoding="UTF-8" standalone="no"?>
<!DOCTYPE svg PUBLIC "-//W3C//DTD SVG 1.1//EN"
 "http://www.w3.org/Graphics/SVG/1.1/DTD/svg11.dtd">
<!-- Generated by graphviz version 2.40.1 (20161225.0304)
 -->
<!-- Title: dependencies Pages: 1 -->
<svg width="1133pt" height="211pt"
 viewBox="0.00 0.00 1133.00 211.00" xmlns="http://www.w3.org/2000/svg" xmlns:xlink="http://www.w3.org/1999/xlink">
<g id="graph0" class="graph" transform="scale(1 1) rotate(0) translate(4 207)">
<title>dependencies</title>
<polygon fill="#ffffff" stroke="transparent" points="-4,4 -4,-207 1129,-207 1129,4 -4,4"/>
<text text-anchor="start" x="541.5091" y="-42.4" font-family="sans-serif" font-weight="bold" font-size="14.00" fill="#000000">Legend</text>
<polygon fill="#ffffb3" stroke="transparent" points="328.5,-10 328.5,-30 348.5,-30 348.5,-10 328.5,-10"/>
<text text-anchor="start" x="352.129" y="-15.4" font-family="sans-serif" font-size="14.00" fill="#000000"> &#160;Declarations</text>
<polygon fill="#8dd3c7" stroke="transparent" points="441.5,-10 441.5,-30 461.5,-30 461.5,-10 441.5,-10"/>
<text text-anchor="start" x="465.2251" y="-15.4" font-family="sans-serif" font-size="14.00" fill="#000000"> &#160;Module</text>
<polygon fill="#80b1d3" stroke="transparent" points="527.5,-10 527.5,-30 547.5,-30 547.5,-10 527.5,-10"/>
<text text-anchor="start" x="551.2812" y="-15.4" font-family="sans-serif" font-size="14.00" fill="#000000"> &#160;Bootstrap</text>
<polygon fill="#fdb462" stroke="transparent" points="624.5,-10 624.5,-30 644.5,-30 644.5,-10 624.5,-10"/>
<text text-anchor="start" x="648.1732" y="-15.4" font-family="sans-serif" font-size="14.00" fill="#000000"> &#160;Providers</text>
<polygon fill="#fb8072" stroke="transparent" points="720.5,-10 720.5,-30 740.5,-30 740.5,-10 720.5,-10"/>
<text text-anchor="start" x="744.2258" y="-15.4" font-family="sans-serif" font-size="14.00" fill="#000000"> &#160;Exports</text>
<g id="clust1" class="cluster">
<title>cluster_AccreditationModule</title>
<polygon fill="none" stroke="#000000" stroke-dasharray="1,5" points="8,-70 8,-195 1117,-195 1117,-70 8,-70"/>
</g>
<g id="clust2" class="cluster">
<title>cluster_AccreditationModule_declarations</title>
<polygon fill="none" stroke="#000000" points="493,-78 493,-130 1109,-130 1109,-78 493,-78"/>
</g>
<g id="clust6" class="cluster">
<title>cluster_AccreditationModule_imports</title>
<polygon fill="none" stroke="#000000" points="16,-78 16,-130 485,-130 485,-78 16,-78"/>
</g>
<!-- AccreditationComponent -->
<g id="node1" class="node">
<title>AccreditationComponent</title>
<polygon fill="#ffffb3" stroke="#000000" points="1100.5211,-122 943.4789,-122 943.4789,-86 1100.5211,-86 1100.5211,-122"/>
<text text-anchor="middle" x="1022" y="-99.8" font-family="Times,serif" font-size="14.00" fill="#000000">AccreditationComponent</text>
</g>
<!-- AccreditationModule -->
<g id="node4" class="node">
<title>AccreditationModule</title>
<polygon fill="#8dd3c7" stroke="#000000" points="555.7381,-187 552.7381,-191 531.7381,-191 528.7381,-187 420.2619,-187 420.2619,-151 555.7381,-151 555.7381,-187"/>
<text text-anchor="middle" x="488" y="-164.8" font-family="Times,serif" font-size="14.00" fill="#000000">AccreditationModule</text>
</g>
<!-- AccreditationComponent&#45;&gt;AccreditationModule -->
<g id="edge1" class="edge">
<title>AccreditationComponent&#45;&gt;AccreditationModule</title>
<path fill="none" stroke="#000000" d="M1022,-122.2843C1022,-143.3211 1022,-175 1022,-175 1022,-175 565.9025,-175 565.9025,-175"/>
<polygon fill="#000000" stroke="#000000" points="565.9025,-171.5001 555.9025,-175 565.9024,-178.5001 565.9025,-171.5001"/>
</g>
<!-- PendingAccreditationPageComponent -->
<g id="node2" class="node">
<title>PendingAccreditationPageComponent</title>
<polygon fill="#ffffb3" stroke="#000000" points="925.1203,-122 694.8797,-122 694.8797,-86 925.1203,-86 925.1203,-122"/>
<text text-anchor="middle" x="810" y="-99.8" font-family="Times,serif" font-size="14.00" fill="#000000">PendingAccreditationPageComponent</text>
</g>
<!-- PendingAccreditationPageComponent&#45;&gt;AccreditationModule -->
<g id="edge2" class="edge">
<title>PendingAccreditationPageComponent&#45;&gt;AccreditationModule</title>
<path fill="none" stroke="#000000" d="M810,-122.0225C810,-139.3734 810,-163 810,-163 810,-163 565.8945,-163 565.8945,-163"/>
<polygon fill="#000000" stroke="#000000" points="565.8945,-159.5001 555.8945,-163 565.8944,-166.5001 565.8945,-159.5001"/>
</g>
<!-- PendingListPageComponent -->
<g id="node3" class="node">
<title>PendingListPageComponent</title>
<polygon fill="#ffffb3" stroke="#000000" points="677.2105,-122 500.7895,-122 500.7895,-86 677.2105,-86 677.2105,-122"/>
<text text-anchor="middle" x="589" y="-99.8" font-family="Times,serif" font-size="14.00" fill="#000000">PendingListPageComponent</text>
</g>
<!-- PendingListPageComponent&#45;&gt;AccreditationModule -->
<g id="edge3" class="edge">
<title>PendingListPageComponent&#45;&gt;AccreditationModule</title>
<path fill="none" stroke="#000000" d="M528.3819,-122.1061C528.3819,-122.1061 528.3819,-140.991 528.3819,-140.991"/>
<polygon fill="#000000" stroke="#000000" points="524.8819,-140.9909 528.3819,-150.991 531.8819,-140.991 524.8819,-140.9909"/>
</g>
<!-- AccreditationRoutingModule -->
<g id="node5" class="node">
<title>AccreditationRoutingModule</title>
<polygon fill="#8dd3c7" stroke="#000000" points="477.3557,-122 474.3557,-126 453.3557,-126 450.3557,-122 296.6443,-122 296.6443,-86 477.3557,-86 477.3557,-122"/>
<text text-anchor="middle" x="387" y="-99.8" font-family="Times,serif" font-size="14.00" fill="#000000">AccreditationRoutingModule</text>
</g>
<!-- AccreditationRoutingModule&#45;&gt;AccreditationModule -->
<g id="edge4" class="edge">
<title>AccreditationRoutingModule&#45;&gt;AccreditationModule</title>
<path fill="none" stroke="#000000" d="M448.7795,-122.1061C448.7795,-122.1061 448.7795,-140.991 448.7795,-140.991"/>
<polygon fill="#000000" stroke="#000000" points="445.2795,-140.9909 448.7795,-150.991 452.2795,-140.991 445.2795,-140.9909"/>
</g>
<!-- SharedModule -->
<g id="node6" class="node">
<title>SharedModule</title>
<polygon fill="#8dd3c7" stroke="#000000" points="278.4231,-122 275.4231,-126 254.4231,-126 251.4231,-122 179.5769,-122 179.5769,-86 278.4231,-86 278.4231,-122"/>
<text text-anchor="middle" x="229" y="-99.8" font-family="Times,serif" font-size="14.00" fill="#000000">SharedModule</text>
</g>
<!-- SharedModule&#45;&gt;AccreditationModule -->
<g id="edge5" class="edge">
<title>SharedModule&#45;&gt;AccreditationModule</title>
<path fill="none" stroke="#000000" d="M229,-122.0225C229,-139.3734 229,-163 229,-163 229,-163 409.9508,-163 409.9508,-163"/>
<polygon fill="#000000" stroke="#000000" points="409.9508,-166.5001 419.9508,-163 409.9508,-159.5001 409.9508,-166.5001"/>
</g>
<!-- SharedPrivateModule -->
<g id="node7" class="node">
<title>SharedPrivateModule</title>
<polygon fill="#8dd3c7" stroke="#000000" points="162.0758,-122 159.0758,-126 138.0758,-126 135.0758,-122 23.9242,-122 23.9242,-86 162.0758,-86 162.0758,-122"/>
<text text-anchor="middle" x="93" y="-99.8" font-family="Times,serif" font-size="14.00" fill="#000000">SharedPrivateModule</text>
</g>
<!-- SharedPrivateModule&#45;&gt;AccreditationModule -->
<g id="edge6" class="edge">
<title>SharedPrivateModule&#45;&gt;AccreditationModule</title>
<path fill="none" stroke="#000000" d="M93,-122.2843C93,-143.3211 93,-175 93,-175 93,-175 410.0971,-175 410.0971,-175"/>
<polygon fill="#000000" stroke="#000000" points="410.0971,-178.5001 420.0971,-175 410.097,-171.5001 410.0971,-178.5001"/>
</g>
</g>
</svg>
