<?xml version="1.0" encoding="UTF-8" standalone="no"?>
<!DOCTYPE svg PUBLIC "-//W3C//DTD SVG 1.1//EN"
 "http://www.w3.org/Graphics/SVG/1.1/DTD/svg11.dtd">
<!-- Generated by graphviz version 2.40.1 (20161225.0304)
 -->
<!-- Title: dependencies Pages: 1 -->
<svg width="504pt" height="284pt"
 viewBox="0.00 0.00 504.00 284.00" xmlns="http://www.w3.org/2000/svg" xmlns:xlink="http://www.w3.org/1999/xlink">
<g id="graph0" class="graph" transform="scale(1 1) rotate(0) translate(4 280)">
<title>dependencies</title>
<polygon fill="#ffffff" stroke="transparent" points="-4,4 -4,-280 500,-280 500,4 -4,4"/>
<text text-anchor="start" x="227.0091" y="-42.4" font-family="sans-serif" font-weight="bold" font-size="14.00" fill="#000000">Legend</text>
<polygon fill="#ffffb3" stroke="transparent" points="14,-10 14,-30 34,-30 34,-10 14,-10"/>
<text text-anchor="start" x="37.629" y="-15.4" font-family="sans-serif" font-size="14.00" fill="#000000"> &#160;Declarations</text>
<polygon fill="#8dd3c7" stroke="transparent" points="127,-10 127,-30 147,-30 147,-10 127,-10"/>
<text text-anchor="start" x="150.7251" y="-15.4" font-family="sans-serif" font-size="14.00" fill="#000000"> &#160;Module</text>
<polygon fill="#80b1d3" stroke="transparent" points="213,-10 213,-30 233,-30 233,-10 213,-10"/>
<text text-anchor="start" x="236.7812" y="-15.4" font-family="sans-serif" font-size="14.00" fill="#000000"> &#160;Bootstrap</text>
<polygon fill="#fdb462" stroke="transparent" points="310,-10 310,-30 330,-30 330,-10 310,-10"/>
<text text-anchor="start" x="333.6732" y="-15.4" font-family="sans-serif" font-size="14.00" fill="#000000"> &#160;Providers</text>
<polygon fill="#fb8072" stroke="transparent" points="406,-10 406,-30 426,-30 426,-10 406,-10"/>
<text text-anchor="start" x="429.7258" y="-15.4" font-family="sans-serif" font-size="14.00" fill="#000000"> &#160;Exports</text>
<g id="clust1" class="cluster">
<title>cluster_SharedPrivateModule</title>
<polygon fill="none" stroke="#000000" stroke-dasharray="1,5" points="97,-70 97,-268 399,-268 399,-70 97,-70"/>
</g>
<g id="clust2" class="cluster">
<title>cluster_SharedPrivateModule_declarations</title>
<polygon fill="none" stroke="#000000" points="227,-78 227,-130 391,-130 391,-78 227,-78"/>
</g>
<g id="clust4" class="cluster">
<title>cluster_SharedPrivateModule_imports</title>
<polygon fill="none" stroke="#000000" points="105,-78 105,-130 219,-130 219,-78 105,-78"/>
</g>
<g id="clust5" class="cluster">
<title>cluster_SharedPrivateModule_exports</title>
<polygon fill="none" stroke="#000000" points="164,-208 164,-260 332,-260 332,-208 164,-208"/>
</g>
<!-- ResultTableComponent -->
<g id="node1" class="node">
<title>ResultTableComponent</title>
<polygon fill="#ffffb3" stroke="#000000" points="383.4818,-122 234.5182,-122 234.5182,-86 383.4818,-86 383.4818,-122"/>
<text text-anchor="middle" x="309" y="-99.8" font-family="Times,serif" font-size="14.00" fill="#000000">ResultTableComponent</text>
</g>
<!-- SharedPrivateModule -->
<g id="node2" class="node">
<title>SharedPrivateModule</title>
<polygon fill="#8dd3c7" stroke="#000000" points="317.0758,-187 314.0758,-191 293.0758,-191 290.0758,-187 178.9242,-187 178.9242,-151 317.0758,-151 317.0758,-187"/>
<text text-anchor="middle" x="248" y="-164.8" font-family="Times,serif" font-size="14.00" fill="#000000">SharedPrivateModule</text>
</g>
<!-- ResultTableComponent&#45;&gt;SharedPrivateModule -->
<g id="edge1" class="edge">
<title>ResultTableComponent&#45;&gt;SharedPrivateModule</title>
<path fill="none" stroke="#000000" d="M275.7735,-122.1061C275.7735,-122.1061 275.7735,-140.991 275.7735,-140.991"/>
<polygon fill="#000000" stroke="#000000" points="272.2736,-140.9909 275.7735,-150.991 279.2736,-140.991 272.2736,-140.9909"/>
</g>
<!-- ResultTableComponent  -->
<g id="node4" class="node">
<title>ResultTableComponent </title>
<polygon fill="#fb8072" stroke="#000000" points="324.4826,-252 171.5174,-252 171.5174,-216 324.4826,-216 324.4826,-252"/>
<text text-anchor="middle" x="248" y="-229.8" font-family="Times,serif" font-size="14.00" fill="#000000">ResultTableComponent </text>
</g>
<!-- SharedPrivateModule&#45;&gt;ResultTableComponent  -->
<g id="edge3" class="edge">
<title>SharedPrivateModule&#45;&gt;ResultTableComponent </title>
<path fill="none" stroke="#000000" stroke-dasharray="5,2" d="M248,-187.1061C248,-187.1061 248,-205.991 248,-205.991"/>
<polygon fill="#000000" stroke="#000000" points="244.5001,-205.9909 248,-215.991 251.5001,-205.991 244.5001,-205.9909"/>
</g>
<!-- SharedModule -->
<g id="node3" class="node">
<title>SharedModule</title>
<polygon fill="#8dd3c7" stroke="#000000" points="211.4231,-122 208.4231,-126 187.4231,-126 184.4231,-122 112.5769,-122 112.5769,-86 211.4231,-86 211.4231,-122"/>
<text text-anchor="middle" x="162" y="-99.8" font-family="Times,serif" font-size="14.00" fill="#000000">SharedModule</text>
</g>
<!-- SharedModule&#45;&gt;SharedPrivateModule -->
<g id="edge2" class="edge">
<title>SharedModule&#45;&gt;SharedPrivateModule</title>
<path fill="none" stroke="#000000" d="M195.0866,-122.1061C195.0866,-122.1061 195.0866,-140.991 195.0866,-140.991"/>
<polygon fill="#000000" stroke="#000000" points="191.5867,-140.9909 195.0866,-150.991 198.5867,-140.991 191.5867,-140.9909"/>
</g>
</g>
</svg>
