<?xml version="1.0" encoding="UTF-8" standalone="no"?>
<!DOCTYPE svg PUBLIC "-//W3C//DTD SVG 1.1//EN"
 "http://www.w3.org/Graphics/SVG/1.1/DTD/svg11.dtd">
<!-- Generated by graphviz version 2.40.1 (20161225.0304)
 -->
<!-- Title: dependencies Pages: 1 -->
<svg width="721pt" height="284pt"
 viewBox="0.00 0.00 721.00 284.00" xmlns="http://www.w3.org/2000/svg" xmlns:xlink="http://www.w3.org/1999/xlink">
<g id="graph0" class="graph" transform="scale(1 1) rotate(0) translate(4 280)">
<title>dependencies</title>
<polygon fill="#ffffff" stroke="transparent" points="-4,4 -4,-280 717,-280 717,4 -4,4"/>
<text text-anchor="start" x="335.5091" y="-42.4" font-family="sans-serif" font-weight="bold" font-size="14.00" fill="#000000">Legend</text>
<polygon fill="#ffffb3" stroke="transparent" points="122.5,-10 122.5,-30 142.5,-30 142.5,-10 122.5,-10"/>
<text text-anchor="start" x="146.129" y="-15.4" font-family="sans-serif" font-size="14.00" fill="#000000"> &#160;Declarations</text>
<polygon fill="#8dd3c7" stroke="transparent" points="235.5,-10 235.5,-30 255.5,-30 255.5,-10 235.5,-10"/>
<text text-anchor="start" x="259.2251" y="-15.4" font-family="sans-serif" font-size="14.00" fill="#000000"> &#160;Module</text>
<polygon fill="#80b1d3" stroke="transparent" points="321.5,-10 321.5,-30 341.5,-30 341.5,-10 321.5,-10"/>
<text text-anchor="start" x="345.2812" y="-15.4" font-family="sans-serif" font-size="14.00" fill="#000000"> &#160;Bootstrap</text>
<polygon fill="#fdb462" stroke="transparent" points="418.5,-10 418.5,-30 438.5,-30 438.5,-10 418.5,-10"/>
<text text-anchor="start" x="442.1732" y="-15.4" font-family="sans-serif" font-size="14.00" fill="#000000"> &#160;Providers</text>
<polygon fill="#fb8072" stroke="transparent" points="514.5,-10 514.5,-30 534.5,-30 534.5,-10 514.5,-10"/>
<text text-anchor="start" x="538.2258" y="-15.4" font-family="sans-serif" font-size="14.00" fill="#000000"> &#160;Exports</text>
<g id="clust1" class="cluster">
<title>cluster_AccreditationTabModule</title>
<polygon fill="none" stroke="#000000" stroke-dasharray="1,5" points="8,-70 8,-268 705,-268 705,-70 8,-70"/>
</g>
<g id="clust2" class="cluster">
<title>cluster_AccreditationTabModule_declarations</title>
<polygon fill="none" stroke="#000000" points="294,-78 294,-130 697,-130 697,-78 294,-78"/>
</g>
<g id="clust5" class="cluster">
<title>cluster_AccreditationTabModule_imports</title>
<polygon fill="none" stroke="#000000" points="16,-78 16,-130 286,-130 286,-78 16,-78"/>
</g>
<g id="clust6" class="cluster">
<title>cluster_AccreditationTabModule_exports</title>
<polygon fill="none" stroke="#000000" points="214,-208 214,-260 412,-260 412,-208 214,-208"/>
</g>
<!-- AccreditationTabComponent -->
<g id="node1" class="node">
<title>AccreditationTabComponent</title>
<polygon fill="#ffffb3" stroke="#000000" points="688.7878,-122 509.2122,-122 509.2122,-86 688.7878,-86 688.7878,-122"/>
<text text-anchor="middle" x="599" y="-99.8" font-family="Times,serif" font-size="14.00" fill="#000000">AccreditationTabComponent</text>
</g>
<!-- AccreditationTabModule -->
<g id="node3" class="node">
<title>AccreditationTabModule</title>
<polygon fill="#8dd3c7" stroke="#000000" points="391.5058,-187 388.5058,-191 367.5058,-191 364.5058,-187 234.4942,-187 234.4942,-151 391.5058,-151 391.5058,-187"/>
<text text-anchor="middle" x="313" y="-164.8" font-family="Times,serif" font-size="14.00" fill="#000000">AccreditationTabModule</text>
</g>
<!-- AccreditationTabComponent&#45;&gt;AccreditationTabModule -->
<g id="edge1" class="edge">
<title>AccreditationTabComponent&#45;&gt;AccreditationTabModule</title>
<path fill="none" stroke="#000000" d="M599,-122.1061C599,-141.3391 599,-169 599,-169 599,-169 401.529,-169 401.529,-169"/>
<polygon fill="#000000" stroke="#000000" points="401.5291,-165.5001 391.529,-169 401.529,-172.5001 401.5291,-165.5001"/>
</g>
<!-- AccreditationTableComponent -->
<g id="node2" class="node">
<title>AccreditationTableComponent</title>
<polygon fill="#ffffb3" stroke="#000000" points="491.8932,-122 302.1068,-122 302.1068,-86 491.8932,-86 491.8932,-122"/>
<text text-anchor="middle" x="397" y="-99.8" font-family="Times,serif" font-size="14.00" fill="#000000">AccreditationTableComponent</text>
</g>
<!-- AccreditationTableComponent&#45;&gt;AccreditationTabModule -->
<g id="edge2" class="edge">
<title>AccreditationTableComponent&#45;&gt;AccreditationTabModule</title>
<path fill="none" stroke="#000000" d="M347.0281,-122.1061C347.0281,-122.1061 347.0281,-140.991 347.0281,-140.991"/>
<polygon fill="#000000" stroke="#000000" points="343.5281,-140.9909 347.0281,-150.991 350.5281,-140.991 343.5281,-140.9909"/>
</g>
<!-- AccreditationTabComponent  -->
<g id="node6" class="node">
<title>AccreditationTabComponent </title>
<polygon fill="#fb8072" stroke="#000000" points="404.2877,-252 221.7123,-252 221.7123,-216 404.2877,-216 404.2877,-252"/>
<text text-anchor="middle" x="313" y="-229.8" font-family="Times,serif" font-size="14.00" fill="#000000">AccreditationTabComponent </text>
</g>
<!-- AccreditationTabModule&#45;&gt;AccreditationTabComponent  -->
<g id="edge5" class="edge">
<title>AccreditationTabModule&#45;&gt;AccreditationTabComponent </title>
<path fill="none" stroke="#000000" stroke-dasharray="5,2" d="M313,-187.1061C313,-187.1061 313,-205.991 313,-205.991"/>
<polygon fill="#000000" stroke="#000000" points="309.5001,-205.9909 313,-215.991 316.5001,-205.991 309.5001,-205.9909"/>
</g>
<!-- SharedModule -->
<g id="node4" class="node">
<title>SharedModule</title>
<polygon fill="#8dd3c7" stroke="#000000" points="278.4231,-122 275.4231,-126 254.4231,-126 251.4231,-122 179.5769,-122 179.5769,-86 278.4231,-86 278.4231,-122"/>
<text text-anchor="middle" x="229" y="-99.8" font-family="Times,serif" font-size="14.00" fill="#000000">SharedModule</text>
</g>
<!-- SharedModule&#45;&gt;AccreditationTabModule -->
<g id="edge3" class="edge">
<title>SharedModule&#45;&gt;AccreditationTabModule</title>
<path fill="none" stroke="#000000" d="M256.2293,-122.1061C256.2293,-122.1061 256.2293,-140.991 256.2293,-140.991"/>
<polygon fill="#000000" stroke="#000000" points="252.7294,-140.9909 256.2293,-150.991 259.7294,-140.991 252.7294,-140.9909"/>
</g>
<!-- SharedPrivateModule -->
<g id="node5" class="node">
<title>SharedPrivateModule</title>
<polygon fill="#8dd3c7" stroke="#000000" points="162.0758,-122 159.0758,-126 138.0758,-126 135.0758,-122 23.9242,-122 23.9242,-86 162.0758,-86 162.0758,-122"/>
<text text-anchor="middle" x="93" y="-99.8" font-family="Times,serif" font-size="14.00" fill="#000000">SharedPrivateModule</text>
</g>
<!-- SharedPrivateModule&#45;&gt;AccreditationTabModule -->
<g id="edge4" class="edge">
<title>SharedPrivateModule&#45;&gt;AccreditationTabModule</title>
<path fill="none" stroke="#000000" d="M93,-122.1061C93,-141.3391 93,-169 93,-169 93,-169 224.1963,-169 224.1963,-169"/>
<polygon fill="#000000" stroke="#000000" points="224.1964,-172.5001 234.1963,-169 224.1963,-165.5001 224.1964,-172.5001"/>
</g>
</g>
</svg>
