<?xml version="1.0" encoding="UTF-8" standalone="no"?>
<!DOCTYPE svg PUBLIC "-//W3C//DTD SVG 1.1//EN"
 "http://www.w3.org/Graphics/SVG/1.1/DTD/svg11.dtd">
<!-- Generated by graphviz version 2.40.1 (20161225.0304)
 -->
<!-- Title: dependencies Pages: 1 -->
<svg width="504pt" height="211pt"
 viewBox="0.00 0.00 504.00 211.00" xmlns="http://www.w3.org/2000/svg" xmlns:xlink="http://www.w3.org/1999/xlink">
<g id="graph0" class="graph" transform="scale(1 1) rotate(0) translate(4 207)">
<title>dependencies</title>
<polygon fill="#ffffff" stroke="transparent" points="-4,4 -4,-207 500,-207 500,4 -4,4"/>
<text text-anchor="start" x="227.0091" y="-42.4" font-family="sans-serif" font-weight="bold" font-size="14.00" fill="#000000">Legend</text>
<polygon fill="#ffffb3" stroke="transparent" points="14,-10 14,-30 34,-30 34,-10 14,-10"/>
<text text-anchor="start" x="37.629" y="-15.4" font-family="sans-serif" font-size="14.00" fill="#000000"> &#160;Declarations</text>
<polygon fill="#8dd3c7" stroke="transparent" points="127,-10 127,-30 147,-30 147,-10 127,-10"/>
<text text-anchor="start" x="150.7251" y="-15.4" font-family="sans-serif" font-size="14.00" fill="#000000"> &#160;Module</text>
<polygon fill="#80b1d3" stroke="transparent" points="213,-10 213,-30 233,-30 233,-10 213,-10"/>
<text text-anchor="start" x="236.7812" y="-15.4" font-family="sans-serif" font-size="14.00" fill="#000000"> &#160;Bootstrap</text>
<polygon fill="#fdb462" stroke="transparent" points="310,-10 310,-30 330,-30 330,-10 310,-10"/>
<text text-anchor="start" x="333.6732" y="-15.4" font-family="sans-serif" font-size="14.00" fill="#000000"> &#160;Providers</text>
<polygon fill="#fb8072" stroke="transparent" points="406,-10 406,-30 426,-30 426,-10 406,-10"/>
<text text-anchor="start" x="429.7258" y="-15.4" font-family="sans-serif" font-size="14.00" fill="#000000"> &#160;Exports</text>
<g id="clust1" class="cluster">
<title>cluster_ParticipantsWithRoutingModule</title>
<polygon fill="none" stroke="#000000" stroke-dasharray="1,5" points="141,-70 141,-195 355,-195 355,-70 141,-70"/>
</g>
<g id="clust3" class="cluster">
<title>cluster_ParticipantsWithRoutingModule_imports</title>
<polygon fill="none" stroke="#000000" points="177,-78 177,-130 319,-130 319,-78 177,-78"/>
</g>
<!-- ParticipantsModule -->
<g id="node1" class="node">
<title>ParticipantsModule</title>
<polygon fill="#8dd3c7" stroke="#000000" points="310.6443,-122 307.6443,-126 286.6443,-126 283.6443,-122 185.3557,-122 185.3557,-86 310.6443,-86 310.6443,-122"/>
<text text-anchor="middle" x="248" y="-99.8" font-family="Times,serif" font-size="14.00" fill="#000000">ParticipantsModule</text>
</g>
<!-- ParticipantsWithRoutingModule -->
<g id="node2" class="node">
<title>ParticipantsWithRoutingModule</title>
<polygon fill="#8dd3c7" stroke="#000000" points="347.2575,-187 344.2575,-191 323.2575,-191 320.2575,-187 148.7425,-187 148.7425,-151 347.2575,-151 347.2575,-187"/>
<text text-anchor="middle" x="248" y="-164.8" font-family="Times,serif" font-size="14.00" fill="#000000">ParticipantsWithRoutingModule</text>
</g>
<!-- ParticipantsModule&#45;&gt;ParticipantsWithRoutingModule -->
<g id="edge1" class="edge">
<title>ParticipantsModule&#45;&gt;ParticipantsWithRoutingModule</title>
<path fill="none" stroke="#000000" d="M248,-122.1061C248,-122.1061 248,-140.991 248,-140.991"/>
<polygon fill="#000000" stroke="#000000" points="244.5001,-140.9909 248,-150.991 251.5001,-140.991 244.5001,-140.9909"/>
</g>
</g>
</svg>
