<?xml version="1.0" encoding="UTF-8" standalone="no"?>
<!DOCTYPE svg PUBLIC "-//W3C//DTD SVG 1.1//EN"
 "http://www.w3.org/Graphics/SVG/1.1/DTD/svg11.dtd">
<!-- Generated by graphviz version 2.40.1 (20161225.0304)
 -->
<!-- Title: dependencies Pages: 1 -->
<svg width="1181pt" height="284pt"
 viewBox="0.00 0.00 1181.00 284.00" xmlns="http://www.w3.org/2000/svg" xmlns:xlink="http://www.w3.org/1999/xlink">
<g id="graph0" class="graph" transform="scale(1 1) rotate(0) translate(4 280)">
<title>dependencies</title>
<polygon fill="#ffffff" stroke="transparent" points="-4,4 -4,-280 1177,-280 1177,4 -4,4"/>
<text text-anchor="start" x="565.5091" y="-42.4" font-family="sans-serif" font-weight="bold" font-size="14.00" fill="#000000">Legend</text>
<polygon fill="#ffffb3" stroke="transparent" points="352.5,-10 352.5,-30 372.5,-30 372.5,-10 352.5,-10"/>
<text text-anchor="start" x="376.129" y="-15.4" font-family="sans-serif" font-size="14.00" fill="#000000"> &#160;Declarations</text>
<polygon fill="#8dd3c7" stroke="transparent" points="465.5,-10 465.5,-30 485.5,-30 485.5,-10 465.5,-10"/>
<text text-anchor="start" x="489.2251" y="-15.4" font-family="sans-serif" font-size="14.00" fill="#000000"> &#160;Module</text>
<polygon fill="#80b1d3" stroke="transparent" points="551.5,-10 551.5,-30 571.5,-30 571.5,-10 551.5,-10"/>
<text text-anchor="start" x="575.2812" y="-15.4" font-family="sans-serif" font-size="14.00" fill="#000000"> &#160;Bootstrap</text>
<polygon fill="#fdb462" stroke="transparent" points="648.5,-10 648.5,-30 668.5,-30 668.5,-10 648.5,-10"/>
<text text-anchor="start" x="672.1732" y="-15.4" font-family="sans-serif" font-size="14.00" fill="#000000"> &#160;Providers</text>
<polygon fill="#fb8072" stroke="transparent" points="744.5,-10 744.5,-30 764.5,-30 764.5,-10 744.5,-10"/>
<text text-anchor="start" x="768.2258" y="-15.4" font-family="sans-serif" font-size="14.00" fill="#000000"> &#160;Exports</text>
<g id="clust1" class="cluster">
<title>cluster_ConferenceSharedModule</title>
<polygon fill="none" stroke="#000000" stroke-dasharray="1,5" points="8,-70 8,-268 1165,-268 1165,-70 8,-70"/>
</g>
<g id="clust2" class="cluster">
<title>cluster_ConferenceSharedModule_declarations</title>
<polygon fill="none" stroke="#000000" points="294,-78 294,-130 1157,-130 1157,-78 294,-78"/>
</g>
<g id="clust8" class="cluster">
<title>cluster_ConferenceSharedModule_imports</title>
<polygon fill="none" stroke="#000000" points="16,-78 16,-130 286,-130 286,-78 16,-78"/>
</g>
<g id="clust9" class="cluster">
<title>cluster_ConferenceSharedModule_exports</title>
<polygon fill="none" stroke="#000000" points="84,-208 84,-260 963,-260 963,-208 84,-208"/>
</g>
<!-- AlertInfoComponent -->
<g id="node1" class="node">
<title>AlertInfoComponent</title>
<polygon fill="#ffffb3" stroke="#000000" points="1148.9173,-122 1015.0827,-122 1015.0827,-86 1148.9173,-86 1148.9173,-122"/>
<text text-anchor="middle" x="1082" y="-99.8" font-family="Times,serif" font-size="14.00" fill="#000000">AlertInfoComponent</text>
</g>
<!-- ConferenceSharedModule -->
<g id="node6" class="node">
<title>ConferenceSharedModule</title>
<polygon fill="#8dd3c7" stroke="#000000" points="569.4384,-187 566.4384,-191 545.4384,-191 542.4384,-187 406.5616,-187 406.5616,-151 569.4384,-151 569.4384,-187"/>
<text text-anchor="middle" x="488" y="-164.8" font-family="Times,serif" font-size="14.00" fill="#000000">ConferenceSharedModule</text>
</g>
<!-- AlertInfoComponent&#45;&gt;ConferenceSharedModule -->
<g id="edge1" class="edge">
<title>AlertInfoComponent&#45;&gt;ConferenceSharedModule</title>
<path fill="none" stroke="#000000" d="M1082,-122.2667C1082,-140.5552 1082,-166 1082,-166 1082,-166 579.6584,-166 579.6584,-166"/>
<polygon fill="#000000" stroke="#000000" points="579.6584,-162.5001 569.6584,-166 579.6583,-169.5001 579.6584,-162.5001"/>
</g>
<!-- AuthConferenceDirective -->
<g id="node2" class="node">
<title>AuthConferenceDirective</title>
<polygon fill="#ffffb3" stroke="#000000" points="997.0967,-122 836.9033,-122 836.9033,-86 997.0967,-86 997.0967,-122"/>
<text text-anchor="middle" x="917" y="-99.8" font-family="Times,serif" font-size="14.00" fill="#000000">AuthConferenceDirective</text>
</g>
<!-- AuthConferenceDirective&#45;&gt;ConferenceSharedModule -->
<g id="edge2" class="edge">
<title>AuthConferenceDirective&#45;&gt;ConferenceSharedModule</title>
<path fill="none" stroke="#000000" d="M896.0801,-122.0091C896.0801,-138.0494 896.0801,-159 896.0801,-159 896.0801,-159 579.6003,-159 579.6003,-159"/>
<polygon fill="#000000" stroke="#000000" points="579.6003,-155.5001 569.6003,-159 579.6003,-162.5001 579.6003,-155.5001"/>
</g>
<!-- ConferenceModalBeforeCreateComponent -->
<g id="node3" class="node">
<title>ConferenceModalBeforeCreateComponent</title>
<polygon fill="#ffffb3" stroke="#000000" points="818.517,-122 561.483,-122 561.483,-86 818.517,-86 818.517,-122"/>
<text text-anchor="middle" x="690" y="-99.8" font-family="Times,serif" font-size="14.00" fill="#000000">ConferenceModalBeforeCreateComponent</text>
</g>
<!-- ConferenceModalBeforeCreateComponent&#45;&gt;ConferenceSharedModule -->
<g id="edge3" class="edge">
<title>ConferenceModalBeforeCreateComponent&#45;&gt;ConferenceSharedModule</title>
<path fill="none" stroke="#000000" d="M565.4804,-122.1061C565.4804,-122.1061 565.4804,-140.991 565.4804,-140.991"/>
<polygon fill="#000000" stroke="#000000" points="561.9804,-140.9909 565.4804,-150.991 568.9804,-140.991 561.9804,-140.9909"/>
</g>
<!-- HeadComponent -->
<g id="node4" class="node">
<title>HeadComponent</title>
<polygon fill="#ffffb3" stroke="#000000" points="543.3683,-122 432.6317,-122 432.6317,-86 543.3683,-86 543.3683,-122"/>
<text text-anchor="middle" x="488" y="-99.8" font-family="Times,serif" font-size="14.00" fill="#000000">HeadComponent</text>
</g>
<!-- HeadComponent&#45;&gt;ConferenceSharedModule -->
<g id="edge4" class="edge">
<title>HeadComponent&#45;&gt;ConferenceSharedModule</title>
<path fill="none" stroke="#000000" d="M488,-122.1061C488,-122.1061 488,-140.991 488,-140.991"/>
<polygon fill="#000000" stroke="#000000" points="484.5001,-140.9909 488,-150.991 491.5001,-140.991 484.5001,-140.9909"/>
</g>
<!-- PaleoComponent -->
<g id="node5" class="node">
<title>PaleoComponent</title>
<polygon fill="#ffffb3" stroke="#000000" points="414.4356,-122 301.5644,-122 301.5644,-86 414.4356,-86 414.4356,-122"/>
<text text-anchor="middle" x="358" y="-99.8" font-family="Times,serif" font-size="14.00" fill="#000000">PaleoComponent</text>
</g>
<!-- PaleoComponent&#45;&gt;ConferenceSharedModule -->
<g id="edge5" class="edge">
<title>PaleoComponent&#45;&gt;ConferenceSharedModule</title>
<path fill="none" stroke="#000000" d="M410.3741,-122.1061C410.3741,-122.1061 410.3741,-140.991 410.3741,-140.991"/>
<polygon fill="#000000" stroke="#000000" points="406.8742,-140.9909 410.3741,-150.991 413.8742,-140.991 406.8742,-140.9909"/>
</g>
<!-- AlertInfoComponent  -->
<g id="node9" class="node">
<title>AlertInfoComponent </title>
<polygon fill="#fb8072" stroke="#000000" points="955.4166,-252 818.5834,-252 818.5834,-216 955.4166,-216 955.4166,-252"/>
<text text-anchor="middle" x="887" y="-229.8" font-family="Times,serif" font-size="14.00" fill="#000000">AlertInfoComponent </text>
</g>
<!-- ConferenceSharedModule&#45;&gt;AlertInfoComponent  -->
<g id="edge8" class="edge">
<title>ConferenceSharedModule&#45;&gt;AlertInfoComponent </title>
<path fill="none" stroke="#000000" stroke-dasharray="5,2" d="M569.7801,-173C670.2738,-173 827.6218,-173 827.6218,-173 827.6218,-173 827.6218,-205.698 827.6218,-205.698"/>
<polygon fill="#000000" stroke="#000000" points="824.1219,-205.698 827.6218,-215.698 831.1219,-205.698 824.1219,-205.698"/>
</g>
<!-- AuthConferenceDirective  -->
<g id="node10" class="node">
<title>AuthConferenceDirective </title>
<polygon fill="#fb8072" stroke="#000000" points="800.0962,-252 635.9038,-252 635.9038,-216 800.0962,-216 800.0962,-252"/>
<text text-anchor="middle" x="718" y="-229.8" font-family="Times,serif" font-size="14.00" fill="#000000">AuthConferenceDirective </text>
</g>
<!-- ConferenceSharedModule&#45;&gt;AuthConferenceDirective  -->
<g id="edge9" class="edge">
<title>ConferenceSharedModule&#45;&gt;AuthConferenceDirective </title>
<path fill="none" stroke="#000000" stroke-dasharray="5,2" d="M569.737,-180C635.8456,-180 718,-180 718,-180 718,-180 718,-205.7181 718,-205.7181"/>
<polygon fill="#000000" stroke="#000000" points="714.5001,-205.718 718,-215.7181 721.5001,-205.7181 714.5001,-205.718"/>
</g>
<!-- ConferenceModalBeforeCreateComponent  -->
<g id="node11" class="node">
<title>ConferenceModalBeforeCreateComponent </title>
<polygon fill="#fb8072" stroke="#000000" points="618.0174,-252 357.9826,-252 357.9826,-216 618.0174,-216 618.0174,-252"/>
<text text-anchor="middle" x="488" y="-229.8" font-family="Times,serif" font-size="14.00" fill="#000000">ConferenceModalBeforeCreateComponent </text>
</g>
<!-- ConferenceSharedModule&#45;&gt;ConferenceModalBeforeCreateComponent  -->
<g id="edge10" class="edge">
<title>ConferenceSharedModule&#45;&gt;ConferenceModalBeforeCreateComponent </title>
<path fill="none" stroke="#000000" stroke-dasharray="5,2" d="M488,-187.1061C488,-187.1061 488,-205.991 488,-205.991"/>
<polygon fill="#000000" stroke="#000000" points="484.5001,-205.9909 488,-215.991 491.5001,-205.991 484.5001,-205.9909"/>
</g>
<!-- HeadComponent  -->
<g id="node12" class="node">
<title>HeadComponent </title>
<polygon fill="#fb8072" stroke="#000000" points="340.3688,-252 225.6312,-252 225.6312,-216 340.3688,-216 340.3688,-252"/>
<text text-anchor="middle" x="283" y="-229.8" font-family="Times,serif" font-size="14.00" fill="#000000">HeadComponent </text>
</g>
<!-- ConferenceSharedModule&#45;&gt;HeadComponent  -->
<g id="edge11" class="edge">
<title>ConferenceSharedModule&#45;&gt;HeadComponent </title>
<path fill="none" stroke="#000000" stroke-dasharray="5,2" d="M406.4487,-180C364.0525,-180 320.9833,-180 320.9833,-180 320.9833,-180 320.9833,-205.7181 320.9833,-205.7181"/>
<polygon fill="#000000" stroke="#000000" points="317.4834,-205.718 320.9833,-215.7181 324.4834,-205.7181 317.4834,-205.718"/>
</g>
<!-- PaleoComponent  -->
<g id="node13" class="node">
<title>PaleoComponent </title>
<polygon fill="#fb8072" stroke="#000000" points="207.9348,-252 92.0652,-252 92.0652,-216 207.9348,-216 207.9348,-252"/>
<text text-anchor="middle" x="150" y="-229.8" font-family="Times,serif" font-size="14.00" fill="#000000">PaleoComponent </text>
</g>
<!-- ConferenceSharedModule&#45;&gt;PaleoComponent  -->
<g id="edge12" class="edge">
<title>ConferenceSharedModule&#45;&gt;PaleoComponent </title>
<path fill="none" stroke="#000000" stroke-dasharray="5,2" d="M406.4613,-173C319.4174,-173 193.8782,-173 193.8782,-173 193.8782,-173 193.8782,-205.698 193.8782,-205.698"/>
<polygon fill="#000000" stroke="#000000" points="190.3782,-205.698 193.8782,-215.698 197.3782,-205.698 190.3782,-205.698"/>
</g>
<!-- SharedModule -->
<g id="node7" class="node">
<title>SharedModule</title>
<polygon fill="#8dd3c7" stroke="#000000" points="278.4231,-122 275.4231,-126 254.4231,-126 251.4231,-122 179.5769,-122 179.5769,-86 278.4231,-86 278.4231,-122"/>
<text text-anchor="middle" x="229" y="-99.8" font-family="Times,serif" font-size="14.00" fill="#000000">SharedModule</text>
</g>
<!-- SharedModule&#45;&gt;ConferenceSharedModule -->
<g id="edge6" class="edge">
<title>SharedModule&#45;&gt;ConferenceSharedModule</title>
<path fill="none" stroke="#000000" d="M252.0135,-122.0091C252.0135,-138.0494 252.0135,-159 252.0135,-159 252.0135,-159 396.4564,-159 396.4564,-159"/>
<polygon fill="#000000" stroke="#000000" points="396.4564,-162.5001 406.4564,-159 396.4564,-155.5001 396.4564,-162.5001"/>
</g>
<!-- SharedPrivateModule -->
<g id="node8" class="node">
<title>SharedPrivateModule</title>
<polygon fill="#8dd3c7" stroke="#000000" points="162.0758,-122 159.0758,-126 138.0758,-126 135.0758,-122 23.9242,-122 23.9242,-86 162.0758,-86 162.0758,-122"/>
<text text-anchor="middle" x="93" y="-99.8" font-family="Times,serif" font-size="14.00" fill="#000000">SharedPrivateModule</text>
</g>
<!-- SharedPrivateModule&#45;&gt;ConferenceSharedModule -->
<g id="edge7" class="edge">
<title>SharedPrivateModule&#45;&gt;ConferenceSharedModule</title>
<path fill="none" stroke="#000000" d="M127.0353,-122.2667C127.0353,-140.5552 127.0353,-166 127.0353,-166 127.0353,-166 396.5424,-166 396.5424,-166"/>
<polygon fill="#000000" stroke="#000000" points="396.5424,-169.5001 406.5424,-166 396.5423,-162.5001 396.5424,-169.5001"/>
</g>
</g>
</svg>
