<?xml version="1.0" encoding="UTF-8" standalone="no"?>
<!DOCTYPE svg PUBLIC "-//W3C//DTD SVG 1.1//EN"
 "http://www.w3.org/Graphics/SVG/1.1/DTD/svg11.dtd">
<!-- Generated by graphviz version 2.40.1 (20161225.0304)
 -->
<!-- Title: dependencies Pages: 1 -->
<svg width="1410pt" height="284pt"
 viewBox="0.00 0.00 1410.00 284.00" xmlns="http://www.w3.org/2000/svg" xmlns:xlink="http://www.w3.org/1999/xlink">
<g id="graph0" class="graph" transform="scale(1 1) rotate(0) translate(4 280)">
<title>dependencies</title>
<polygon fill="#ffffff" stroke="transparent" points="-4,4 -4,-280 1406,-280 1406,4 -4,4"/>
<text text-anchor="start" x="680.0091" y="-42.4" font-family="sans-serif" font-weight="bold" font-size="14.00" fill="#000000">Legend</text>
<polygon fill="#ffffb3" stroke="transparent" points="467,-10 467,-30 487,-30 487,-10 467,-10"/>
<text text-anchor="start" x="490.629" y="-15.4" font-family="sans-serif" font-size="14.00" fill="#000000"> &#160;Declarations</text>
<polygon fill="#8dd3c7" stroke="transparent" points="580,-10 580,-30 600,-30 600,-10 580,-10"/>
<text text-anchor="start" x="603.7251" y="-15.4" font-family="sans-serif" font-size="14.00" fill="#000000"> &#160;Module</text>
<polygon fill="#80b1d3" stroke="transparent" points="666,-10 666,-30 686,-30 686,-10 666,-10"/>
<text text-anchor="start" x="689.7812" y="-15.4" font-family="sans-serif" font-size="14.00" fill="#000000"> &#160;Bootstrap</text>
<polygon fill="#fdb462" stroke="transparent" points="763,-10 763,-30 783,-30 783,-10 763,-10"/>
<text text-anchor="start" x="786.6732" y="-15.4" font-family="sans-serif" font-size="14.00" fill="#000000"> &#160;Providers</text>
<polygon fill="#fb8072" stroke="transparent" points="859,-10 859,-30 879,-30 879,-10 859,-10"/>
<text text-anchor="start" x="882.7258" y="-15.4" font-family="sans-serif" font-size="14.00" fill="#000000"> &#160;Exports</text>
<g id="clust1" class="cluster">
<title>cluster_EventsModule</title>
<polygon fill="none" stroke="#000000" stroke-dasharray="1,5" points="8,-70 8,-268 1394,-268 1394,-70 8,-70"/>
</g>
<g id="clust2" class="cluster">
<title>cluster_EventsModule_declarations</title>
<polygon fill="none" stroke="#000000" points="724,-78 724,-130 1386,-130 1386,-78 724,-78"/>
</g>
<g id="clust7" class="cluster">
<title>cluster_EventsModule_imports</title>
<polygon fill="none" stroke="#000000" points="446,-78 446,-130 716,-130 716,-78 446,-78"/>
</g>
<g id="clust8" class="cluster">
<title>cluster_EventsModule_exports</title>
<polygon fill="none" stroke="#000000" points="664,-208 664,-260 802,-260 802,-208 664,-208"/>
</g>
<g id="clust10" class="cluster">
<title>cluster_EventsModule_providers</title>
<polygon fill="none" stroke="#000000" points="16,-78 16,-130 438,-130 438,-78 16,-78"/>
</g>
<!-- AlertWithLinkComponent -->
<g id="node1" class="node">
<title>AlertWithLinkComponent</title>
<polygon fill="#ffffb3" stroke="#000000" points="1378.0351,-122 1213.9649,-122 1213.9649,-86 1378.0351,-86 1378.0351,-122"/>
<text text-anchor="middle" x="1296" y="-99.8" font-family="Times,serif" font-size="14.00" fill="#000000">AlertWithLinkComponent</text>
</g>
<!-- EventsModule -->
<g id="node5" class="node">
<title>EventsModule</title>
<polygon fill="#8dd3c7" stroke="#000000" points="781.6528,-187 778.6528,-191 757.6528,-191 754.6528,-187 684.3472,-187 684.3472,-151 781.6528,-151 781.6528,-187"/>
<text text-anchor="middle" x="733" y="-164.8" font-family="Times,serif" font-size="14.00" fill="#000000">EventsModule</text>
</g>
<!-- AlertWithLinkComponent&#45;&gt;EventsModule -->
<g id="edge1" class="edge">
<title>AlertWithLinkComponent&#45;&gt;EventsModule</title>
<path fill="none" stroke="#000000" d="M1296,-122.2921C1296,-144.2057 1296,-178 1296,-178 1296,-178 791.9777,-178 791.9777,-178"/>
<polygon fill="#000000" stroke="#000000" points="791.9777,-174.5001 781.9777,-178 791.9776,-181.5001 791.9777,-174.5001"/>
</g>
<!-- EventsComponent -->
<g id="node2" class="node">
<title>EventsComponent</title>
<polygon fill="#ffffb3" stroke="#000000" points="1195.9356,-122 1076.0644,-122 1076.0644,-86 1195.9356,-86 1195.9356,-122"/>
<text text-anchor="middle" x="1136" y="-99.8" font-family="Times,serif" font-size="14.00" fill="#000000">EventsComponent</text>
</g>
<!-- EventsComponent&#45;&gt;EventsModule -->
<g id="edge2" class="edge">
<title>EventsComponent&#45;&gt;EventsModule</title>
<path fill="none" stroke="#000000" d="M1136,-122.1061C1136,-141.3391 1136,-169 1136,-169 1136,-169 792.0128,-169 792.0128,-169"/>
<polygon fill="#000000" stroke="#000000" points="792.0128,-165.5001 782.0128,-169 792.0128,-172.5001 792.0128,-165.5001"/>
</g>
<!-- EventsSearchComponent -->
<g id="node3" class="node">
<title>EventsSearchComponent</title>
<polygon fill="#ffffb3" stroke="#000000" points="1058.5225,-122 901.4775,-122 901.4775,-86 1058.5225,-86 1058.5225,-122"/>
<text text-anchor="middle" x="980" y="-99.8" font-family="Times,serif" font-size="14.00" fill="#000000">EventsSearchComponent</text>
</g>
<!-- EventsSearchComponent&#45;&gt;EventsModule -->
<g id="edge3" class="edge">
<title>EventsSearchComponent&#45;&gt;EventsModule</title>
<path fill="none" stroke="#000000" d="M980,-122.027C980,-138.3976 980,-160 980,-160 980,-160 791.7993,-160 791.7993,-160"/>
<polygon fill="#000000" stroke="#000000" points="791.7993,-156.5001 781.7993,-160 791.7992,-163.5001 791.7993,-156.5001"/>
</g>
<!-- EventsTableComponent -->
<g id="node4" class="node">
<title>EventsTableComponent</title>
<polygon fill="#ffffb3" stroke="#000000" points="883.8075,-122 732.1925,-122 732.1925,-86 883.8075,-86 883.8075,-122"/>
<text text-anchor="middle" x="808" y="-99.8" font-family="Times,serif" font-size="14.00" fill="#000000">EventsTableComponent</text>
</g>
<!-- EventsTableComponent&#45;&gt;EventsModule -->
<g id="edge4" class="edge">
<title>EventsTableComponent&#45;&gt;EventsModule</title>
<path fill="none" stroke="#000000" d="M757.0863,-122.1061C757.0863,-122.1061 757.0863,-140.991 757.0863,-140.991"/>
<polygon fill="#000000" stroke="#000000" points="753.5863,-140.9909 757.0863,-150.991 760.5863,-140.991 753.5863,-140.9909"/>
</g>
<!-- EventsComponent  -->
<g id="node8" class="node">
<title>EventsComponent </title>
<polygon fill="#fb8072" stroke="#000000" points="794.4348,-252 671.5652,-252 671.5652,-216 794.4348,-216 794.4348,-252"/>
<text text-anchor="middle" x="733" y="-229.8" font-family="Times,serif" font-size="14.00" fill="#000000">EventsComponent </text>
</g>
<!-- EventsModule&#45;&gt;EventsComponent  -->
<g id="edge7" class="edge">
<title>EventsModule&#45;&gt;EventsComponent </title>
<path fill="none" stroke="#000000" stroke-dasharray="5,2" d="M733,-187.1061C733,-187.1061 733,-205.991 733,-205.991"/>
<polygon fill="#000000" stroke="#000000" points="729.5001,-205.9909 733,-215.991 736.5001,-205.991 729.5001,-205.9909"/>
</g>
<!-- SharedModule -->
<g id="node6" class="node">
<title>SharedModule</title>
<polygon fill="#8dd3c7" stroke="#000000" points="708.4231,-122 705.4231,-126 684.4231,-126 681.4231,-122 609.5769,-122 609.5769,-86 708.4231,-86 708.4231,-122"/>
<text text-anchor="middle" x="659" y="-99.8" font-family="Times,serif" font-size="14.00" fill="#000000">SharedModule</text>
</g>
<!-- SharedModule&#45;&gt;EventsModule -->
<g id="edge5" class="edge">
<title>SharedModule&#45;&gt;EventsModule</title>
<path fill="none" stroke="#000000" d="M696.1925,-122.1061C696.1925,-122.1061 696.1925,-140.991 696.1925,-140.991"/>
<polygon fill="#000000" stroke="#000000" points="692.6926,-140.9909 696.1925,-150.991 699.6926,-140.991 692.6926,-140.9909"/>
</g>
<!-- SharedPrivateModule -->
<g id="node7" class="node">
<title>SharedPrivateModule</title>
<polygon fill="#8dd3c7" stroke="#000000" points="592.0758,-122 589.0758,-126 568.0758,-126 565.0758,-122 453.9242,-122 453.9242,-86 592.0758,-86 592.0758,-122"/>
<text text-anchor="middle" x="523" y="-99.8" font-family="Times,serif" font-size="14.00" fill="#000000">SharedPrivateModule</text>
</g>
<!-- SharedPrivateModule&#45;&gt;EventsModule -->
<g id="edge6" class="edge">
<title>SharedPrivateModule&#45;&gt;EventsModule</title>
<path fill="none" stroke="#000000" d="M523,-122.027C523,-138.3976 523,-160 523,-160 523,-160 674.2939,-160 674.2939,-160"/>
<polygon fill="#000000" stroke="#000000" points="674.294,-163.5001 684.2939,-160 674.2939,-156.5001 674.294,-163.5001"/>
</g>
<!-- EventGroupFieldsService -->
<g id="node9" class="node">
<title>EventGroupFieldsService</title>
<ellipse fill="#fdb462" stroke="#000000" cx="319" cy="-104" rx="110.5936" ry="18"/>
<text text-anchor="middle" x="319" y="-99.8" font-family="Times,serif" font-size="14.00" fill="#000000">EventGroupFieldsService</text>
</g>
<!-- EventGroupFieldsService&#45;&gt;EventsModule -->
<g id="edge8" class="edge">
<title>EventGroupFieldsService&#45;&gt;EventsModule</title>
<path fill="none" stroke="#000000" d="M319,-122.1061C319,-141.3391 319,-169 319,-169 319,-169 674.2915,-169 674.2915,-169"/>
<polygon fill="#000000" stroke="#000000" points="674.2916,-172.5001 684.2915,-169 674.2915,-165.5001 674.2916,-172.5001"/>
</g>
<!-- EventStoreService -->
<g id="node10" class="node">
<title>EventStoreService</title>
<ellipse fill="#fdb462" stroke="#000000" cx="107" cy="-104" rx="82.8013" ry="18"/>
<text text-anchor="middle" x="107" y="-99.8" font-family="Times,serif" font-size="14.00" fill="#000000">EventStoreService</text>
</g>
<!-- EventStoreService&#45;&gt;EventsModule -->
<g id="edge9" class="edge">
<title>EventStoreService&#45;&gt;EventsModule</title>
<path fill="none" stroke="#000000" d="M107,-122.2921C107,-144.2057 107,-178 107,-178 107,-178 674.1396,-178 674.1396,-178"/>
<polygon fill="#000000" stroke="#000000" points="674.1396,-181.5001 684.1396,-178 674.1395,-174.5001 674.1396,-181.5001"/>
</g>
</g>
</svg>
