<?xml version="1.0" encoding="UTF-8" standalone="no"?>
<!DOCTYPE svg PUBLIC "-//W3C//DTD SVG 1.1//EN"
 "http://www.w3.org/Graphics/SVG/1.1/DTD/svg11.dtd">
<!-- Generated by graphviz version 2.40.1 (20161225.0304)
 -->
<!-- Title: dependencies Pages: 1 -->
<svg width="1169pt" height="284pt"
 viewBox="0.00 0.00 1169.00 284.00" xmlns="http://www.w3.org/2000/svg" xmlns:xlink="http://www.w3.org/1999/xlink">
<g id="graph0" class="graph" transform="scale(1 1) rotate(0) translate(4 280)">
<title>dependencies</title>
<polygon fill="#ffffff" stroke="transparent" points="-4,4 -4,-280 1165,-280 1165,4 -4,4"/>
<text text-anchor="start" x="559.5091" y="-42.4" font-family="sans-serif" font-weight="bold" font-size="14.00" fill="#000000">Legend</text>
<polygon fill="#ffffb3" stroke="transparent" points="346.5,-10 346.5,-30 366.5,-30 366.5,-10 346.5,-10"/>
<text text-anchor="start" x="370.129" y="-15.4" font-family="sans-serif" font-size="14.00" fill="#000000"> &#160;Declarations</text>
<polygon fill="#8dd3c7" stroke="transparent" points="459.5,-10 459.5,-30 479.5,-30 479.5,-10 459.5,-10"/>
<text text-anchor="start" x="483.2251" y="-15.4" font-family="sans-serif" font-size="14.00" fill="#000000"> &#160;Module</text>
<polygon fill="#80b1d3" stroke="transparent" points="545.5,-10 545.5,-30 565.5,-30 565.5,-10 545.5,-10"/>
<text text-anchor="start" x="569.2812" y="-15.4" font-family="sans-serif" font-size="14.00" fill="#000000"> &#160;Bootstrap</text>
<polygon fill="#fdb462" stroke="transparent" points="642.5,-10 642.5,-30 662.5,-30 662.5,-10 642.5,-10"/>
<text text-anchor="start" x="666.1732" y="-15.4" font-family="sans-serif" font-size="14.00" fill="#000000"> &#160;Providers</text>
<polygon fill="#fb8072" stroke="transparent" points="738.5,-10 738.5,-30 758.5,-30 758.5,-10 738.5,-10"/>
<text text-anchor="start" x="762.2258" y="-15.4" font-family="sans-serif" font-size="14.00" fill="#000000"> &#160;Exports</text>
<g id="clust1" class="cluster">
<title>cluster_DocumentationModule</title>
<polygon fill="none" stroke="#000000" stroke-dasharray="1,5" points="8,-70 8,-268 1153,-268 1153,-70 8,-70"/>
</g>
<g id="clust2" class="cluster">
<title>cluster_DocumentationModule_declarations</title>
<polygon fill="none" stroke="#000000" points="475,-78 475,-130 1145,-130 1145,-78 475,-78"/>
</g>
<g id="clust7" class="cluster">
<title>cluster_DocumentationModule_imports</title>
<polygon fill="none" stroke="#000000" points="16,-78 16,-130 467,-130 467,-78 16,-78"/>
</g>
<g id="clust8" class="cluster">
<title>cluster_DocumentationModule_exports</title>
<polygon fill="none" stroke="#000000" points="456,-208 456,-260 644,-260 644,-208 456,-208"/>
</g>
<!-- DocumentationComponent -->
<g id="node1" class="node">
<title>DocumentationComponent</title>
<polygon fill="#ffffb3" stroke="#000000" points="1136.6456,-122 969.3544,-122 969.3544,-86 1136.6456,-86 1136.6456,-122"/>
<text text-anchor="middle" x="1053" y="-99.8" font-family="Times,serif" font-size="14.00" fill="#000000">DocumentationComponent</text>
</g>
<!-- DocumentationModule -->
<g id="node5" class="node">
<title>DocumentationModule</title>
<polygon fill="#8dd3c7" stroke="#000000" points="622.8627,-187 619.8627,-191 598.8627,-191 595.8627,-187 477.1373,-187 477.1373,-151 622.8627,-151 622.8627,-187"/>
<text text-anchor="middle" x="550" y="-164.8" font-family="Times,serif" font-size="14.00" fill="#000000">DocumentationModule</text>
</g>
<!-- DocumentationComponent&#45;&gt;DocumentationModule -->
<g id="edge1" class="edge">
<title>DocumentationComponent&#45;&gt;DocumentationModule</title>
<path fill="none" stroke="#000000" d="M1053,-122.2921C1053,-144.2057 1053,-178 1053,-178 1053,-178 632.8717,-178 632.8717,-178"/>
<polygon fill="#000000" stroke="#000000" points="632.8718,-174.5001 622.8717,-178 632.8717,-181.5001 632.8718,-174.5001"/>
</g>
<!-- EditModalFileComponent -->
<g id="node2" class="node">
<title>EditModalFileComponent</title>
<polygon fill="#ffffb3" stroke="#000000" points="951.4944,-122 788.5056,-122 788.5056,-86 951.4944,-86 951.4944,-122"/>
<text text-anchor="middle" x="870" y="-99.8" font-family="Times,serif" font-size="14.00" fill="#000000">EditModalFileComponent</text>
</g>
<!-- EditModalFileComponent&#45;&gt;DocumentationModule -->
<g id="edge2" class="edge">
<title>EditModalFileComponent&#45;&gt;DocumentationModule</title>
<path fill="none" stroke="#000000" d="M870,-122.1061C870,-141.3391 870,-169 870,-169 870,-169 633.0134,-169 633.0134,-169"/>
<polygon fill="#000000" stroke="#000000" points="633.0134,-165.5001 623.0134,-169 633.0133,-172.5001 633.0134,-165.5001"/>
</g>
<!-- FilePanelComponent -->
<g id="node3" class="node">
<title>FilePanelComponent</title>
<polygon fill="#ffffb3" stroke="#000000" points="770.2134,-122 635.7866,-122 635.7866,-86 770.2134,-86 770.2134,-122"/>
<text text-anchor="middle" x="703" y="-99.8" font-family="Times,serif" font-size="14.00" fill="#000000">FilePanelComponent</text>
</g>
<!-- FilePanelComponent&#45;&gt;DocumentationModule -->
<g id="edge3" class="edge">
<title>FilePanelComponent&#45;&gt;DocumentationModule</title>
<path fill="none" stroke="#000000" d="M703,-122.027C703,-138.3976 703,-160 703,-160 703,-160 632.9152,-160 632.9152,-160"/>
<polygon fill="#000000" stroke="#000000" points="632.9153,-156.5001 622.9152,-160 632.9152,-163.5001 632.9153,-156.5001"/>
</g>
<!-- FileTableComponent -->
<g id="node4" class="node">
<title>FileTableComponent</title>
<polygon fill="#ffffb3" stroke="#000000" points="617.4832,-122 482.5168,-122 482.5168,-86 617.4832,-86 617.4832,-122"/>
<text text-anchor="middle" x="550" y="-99.8" font-family="Times,serif" font-size="14.00" fill="#000000">FileTableComponent</text>
</g>
<!-- FileTableComponent&#45;&gt;DocumentationModule -->
<g id="edge4" class="edge">
<title>FileTableComponent&#45;&gt;DocumentationModule</title>
<path fill="none" stroke="#000000" d="M550,-122.1061C550,-122.1061 550,-140.991 550,-140.991"/>
<polygon fill="#000000" stroke="#000000" points="546.5001,-140.9909 550,-150.991 553.5001,-140.991 546.5001,-140.9909"/>
</g>
<!-- DocumentationComponent  -->
<g id="node9" class="node">
<title>DocumentationComponent </title>
<polygon fill="#fb8072" stroke="#000000" points="635.6453,-252 464.3547,-252 464.3547,-216 635.6453,-216 635.6453,-252"/>
<text text-anchor="middle" x="550" y="-229.8" font-family="Times,serif" font-size="14.00" fill="#000000">DocumentationComponent </text>
</g>
<!-- DocumentationModule&#45;&gt;DocumentationComponent  -->
<g id="edge8" class="edge">
<title>DocumentationModule&#45;&gt;DocumentationComponent </title>
<path fill="none" stroke="#000000" stroke-dasharray="5,2" d="M550,-187.1061C550,-187.1061 550,-205.991 550,-205.991"/>
<polygon fill="#000000" stroke="#000000" points="546.5001,-205.9909 550,-215.991 553.5001,-205.991 546.5001,-205.9909"/>
</g>
<!-- ConferenceSharedModule -->
<g id="node6" class="node">
<title>ConferenceSharedModule</title>
<polygon fill="#8dd3c7" stroke="#000000" points="459.4384,-122 456.4384,-126 435.4384,-126 432.4384,-122 296.5616,-122 296.5616,-86 459.4384,-86 459.4384,-122"/>
<text text-anchor="middle" x="378" y="-99.8" font-family="Times,serif" font-size="14.00" fill="#000000">ConferenceSharedModule</text>
</g>
<!-- ConferenceSharedModule&#45;&gt;DocumentationModule -->
<g id="edge5" class="edge">
<title>ConferenceSharedModule&#45;&gt;DocumentationModule</title>
<path fill="none" stroke="#000000" d="M378,-122.027C378,-138.3976 378,-160 378,-160 378,-160 467.0565,-160 467.0565,-160"/>
<polygon fill="#000000" stroke="#000000" points="467.0566,-163.5001 477.0565,-160 467.0565,-156.5001 467.0566,-163.5001"/>
</g>
<!-- SharedModule -->
<g id="node7" class="node">
<title>SharedModule</title>
<polygon fill="#8dd3c7" stroke="#000000" points="278.4231,-122 275.4231,-126 254.4231,-126 251.4231,-122 179.5769,-122 179.5769,-86 278.4231,-86 278.4231,-122"/>
<text text-anchor="middle" x="229" y="-99.8" font-family="Times,serif" font-size="14.00" fill="#000000">SharedModule</text>
</g>
<!-- SharedModule&#45;&gt;DocumentationModule -->
<g id="edge6" class="edge">
<title>SharedModule&#45;&gt;DocumentationModule</title>
<path fill="none" stroke="#000000" d="M229,-122.1061C229,-141.3391 229,-169 229,-169 229,-169 466.7585,-169 466.7585,-169"/>
<polygon fill="#000000" stroke="#000000" points="466.7585,-172.5001 476.7585,-169 466.7584,-165.5001 466.7585,-172.5001"/>
</g>
<!-- SharedPrivateModule -->
<g id="node8" class="node">
<title>SharedPrivateModule</title>
<polygon fill="#8dd3c7" stroke="#000000" points="162.0758,-122 159.0758,-126 138.0758,-126 135.0758,-122 23.9242,-122 23.9242,-86 162.0758,-86 162.0758,-122"/>
<text text-anchor="middle" x="93" y="-99.8" font-family="Times,serif" font-size="14.00" fill="#000000">SharedPrivateModule</text>
</g>
<!-- SharedPrivateModule&#45;&gt;DocumentationModule -->
<g id="edge7" class="edge">
<title>SharedPrivateModule&#45;&gt;DocumentationModule</title>
<path fill="none" stroke="#000000" d="M93,-122.2921C93,-144.2057 93,-178 93,-178 93,-178 467.0817,-178 467.0817,-178"/>
<polygon fill="#000000" stroke="#000000" points="467.0817,-181.5001 477.0817,-178 467.0816,-174.5001 467.0817,-181.5001"/>
</g>
</g>
</svg>
