<?xml version="1.0" encoding="UTF-8" standalone="no"?>
<!DOCTYPE svg PUBLIC "-//W3C//DTD SVG 1.1//EN"
 "http://www.w3.org/Graphics/SVG/1.1/DTD/svg11.dtd">
<!-- Generated by graphviz version 2.40.1 (20161225.0304)
 -->
<!-- Title: dependencies Pages: 1 -->
<svg width="504pt" height="284pt"
 viewBox="0.00 0.00 504.00 284.00" xmlns="http://www.w3.org/2000/svg" xmlns:xlink="http://www.w3.org/1999/xlink">
<g id="graph0" class="graph" transform="scale(1 1) rotate(0) translate(4 280)">
<title>dependencies</title>
<polygon fill="#ffffff" stroke="transparent" points="-4,4 -4,-280 500,-280 500,4 -4,4"/>
<text text-anchor="start" x="227.0091" y="-42.4" font-family="sans-serif" font-weight="bold" font-size="14.00" fill="#000000">Legend</text>
<polygon fill="#ffffb3" stroke="transparent" points="14,-10 14,-30 34,-30 34,-10 14,-10"/>
<text text-anchor="start" x="37.629" y="-15.4" font-family="sans-serif" font-size="14.00" fill="#000000"> &#160;Declarations</text>
<polygon fill="#8dd3c7" stroke="transparent" points="127,-10 127,-30 147,-30 147,-10 127,-10"/>
<text text-anchor="start" x="150.7251" y="-15.4" font-family="sans-serif" font-size="14.00" fill="#000000"> &#160;Module</text>
<polygon fill="#80b1d3" stroke="transparent" points="213,-10 213,-30 233,-30 233,-10 213,-10"/>
<text text-anchor="start" x="236.7812" y="-15.4" font-family="sans-serif" font-size="14.00" fill="#000000"> &#160;Bootstrap</text>
<polygon fill="#fdb462" stroke="transparent" points="310,-10 310,-30 330,-30 330,-10 310,-10"/>
<text text-anchor="start" x="333.6732" y="-15.4" font-family="sans-serif" font-size="14.00" fill="#000000"> &#160;Providers</text>
<polygon fill="#fb8072" stroke="transparent" points="406,-10 406,-30 426,-30 426,-10 406,-10"/>
<text text-anchor="start" x="429.7258" y="-15.4" font-family="sans-serif" font-size="14.00" fill="#000000"> &#160;Exports</text>
<g id="clust1" class="cluster">
<title>cluster_SharedModule</title>
<polygon fill="none" stroke="#000000" stroke-dasharray="1,5" points="109,-70 109,-268 387,-268 387,-70 109,-70"/>
</g>
<g id="clust2" class="cluster">
<title>cluster_SharedModule_declarations</title>
<polygon fill="none" stroke="#000000" points="121,-78 121,-130 375,-130 375,-78 121,-78"/>
</g>
<g id="clust6" class="cluster">
<title>cluster_SharedModule_exports</title>
<polygon fill="none" stroke="#000000" points="117,-208 117,-260 379,-260 379,-208 117,-208"/>
</g>
<!-- AuthDirective -->
<g id="node1" class="node">
<title>AuthDirective</title>
<polygon fill="#ffffb3" stroke="#000000" points="367.08,-122 270.92,-122 270.92,-86 367.08,-86 367.08,-122"/>
<text text-anchor="middle" x="319" y="-99.8" font-family="Times,serif" font-size="14.00" fill="#000000">AuthDirective</text>
</g>
<!-- SharedModule -->
<g id="node3" class="node">
<title>SharedModule</title>
<polygon fill="#8dd3c7" stroke="#000000" points="241.4231,-187 238.4231,-191 217.4231,-191 214.4231,-187 142.5769,-187 142.5769,-151 241.4231,-151 241.4231,-187"/>
<text text-anchor="middle" x="192" y="-164.8" font-family="Times,serif" font-size="14.00" fill="#000000">SharedModule</text>
</g>
<!-- AuthDirective&#45;&gt;SharedModule -->
<g id="edge1" class="edge">
<title>AuthDirective&#45;&gt;SharedModule</title>
<path fill="none" stroke="#000000" d="M335.0967,-122.0225C335.0967,-139.3734 335.0967,-163 335.0967,-163 335.0967,-163 251.2458,-163 251.2458,-163"/>
<polygon fill="#000000" stroke="#000000" points="251.2458,-159.5001 241.2458,-163 251.2457,-166.5001 251.2458,-159.5001"/>
</g>
<!-- ContactComponent -->
<g id="node2" class="node">
<title>ContactComponent</title>
<polygon fill="#ffffb3" stroke="#000000" points="253.3795,-122 128.6205,-122 128.6205,-86 253.3795,-86 253.3795,-122"/>
<text text-anchor="middle" x="191" y="-99.8" font-family="Times,serif" font-size="14.00" fill="#000000">ContactComponent</text>
</g>
<!-- ContactComponent&#45;&gt;SharedModule -->
<g id="edge2" class="edge">
<title>ContactComponent&#45;&gt;SharedModule</title>
<path fill="none" stroke="#000000" d="M192,-122.1061C192,-122.1061 192,-140.991 192,-140.991"/>
<polygon fill="#000000" stroke="#000000" points="188.5001,-140.9909 192,-150.991 195.5001,-140.991 188.5001,-140.9909"/>
</g>
<!-- AuthDirective  -->
<g id="node4" class="node">
<title>AuthDirective </title>
<polygon fill="#fb8072" stroke="#000000" points="370.5809,-252 271.4191,-252 271.4191,-216 370.5809,-216 370.5809,-252"/>
<text text-anchor="middle" x="321" y="-229.8" font-family="Times,serif" font-size="14.00" fill="#000000">AuthDirective </text>
</g>
<!-- SharedModule&#45;&gt;AuthDirective  -->
<g id="edge3" class="edge">
<title>SharedModule&#45;&gt;AuthDirective </title>
<path fill="none" stroke="#000000" stroke-dasharray="5,2" d="M241.4008,-175C271.0871,-175 303.1533,-175 303.1533,-175 303.1533,-175 303.1533,-205.9775 303.1533,-205.9775"/>
<polygon fill="#000000" stroke="#000000" points="299.6534,-205.9774 303.1533,-215.9775 306.6534,-205.9775 299.6534,-205.9774"/>
</g>
<!-- ContactComponent  -->
<g id="node5" class="node">
<title>ContactComponent </title>
<polygon fill="#fb8072" stroke="#000000" points="253.38,-252 124.62,-252 124.62,-216 253.38,-216 253.38,-252"/>
<text text-anchor="middle" x="189" y="-229.8" font-family="Times,serif" font-size="14.00" fill="#000000">ContactComponent </text>
</g>
<!-- SharedModule&#45;&gt;ContactComponent  -->
<g id="edge4" class="edge">
<title>SharedModule&#45;&gt;ContactComponent </title>
<path fill="none" stroke="#000000" stroke-dasharray="5,2" d="M192,-187.1061C192,-187.1061 192,-205.991 192,-205.991"/>
<polygon fill="#000000" stroke="#000000" points="188.5001,-205.9909 192,-215.991 195.5001,-205.991 188.5001,-205.9909"/>
</g>
</g>
</svg>
