<?xml version="1.0" encoding="UTF-8" standalone="no"?>
<!DOCTYPE svg PUBLIC "-//W3C//DTD SVG 1.1//EN"
 "http://www.w3.org/Graphics/SVG/1.1/DTD/svg11.dtd">
<!-- Generated by graphviz version 2.40.1 (20161225.0304)
 -->
<!-- Title: dependencies Pages: 1 -->
<svg width="982pt" height="211pt"
 viewBox="0.00 0.00 982.00 211.00" xmlns="http://www.w3.org/2000/svg" xmlns:xlink="http://www.w3.org/1999/xlink">
<g id="graph0" class="graph" transform="scale(1 1) rotate(0) translate(4 207)">
<title>dependencies</title>
<polygon fill="#ffffff" stroke="transparent" points="-4,4 -4,-207 978,-207 978,4 -4,4"/>
<text text-anchor="start" x="466.0091" y="-42.4" font-family="sans-serif" font-weight="bold" font-size="14.00" fill="#000000">Legend</text>
<polygon fill="#ffffb3" stroke="transparent" points="253,-10 253,-30 273,-30 273,-10 253,-10"/>
<text text-anchor="start" x="276.629" y="-15.4" font-family="sans-serif" font-size="14.00" fill="#000000"> &#160;Declarations</text>
<polygon fill="#8dd3c7" stroke="transparent" points="366,-10 366,-30 386,-30 386,-10 366,-10"/>
<text text-anchor="start" x="389.7251" y="-15.4" font-family="sans-serif" font-size="14.00" fill="#000000"> &#160;Module</text>
<polygon fill="#80b1d3" stroke="transparent" points="452,-10 452,-30 472,-30 472,-10 452,-10"/>
<text text-anchor="start" x="475.7812" y="-15.4" font-family="sans-serif" font-size="14.00" fill="#000000"> &#160;Bootstrap</text>
<polygon fill="#fdb462" stroke="transparent" points="549,-10 549,-30 569,-30 569,-10 549,-10"/>
<text text-anchor="start" x="572.6732" y="-15.4" font-family="sans-serif" font-size="14.00" fill="#000000"> &#160;Providers</text>
<polygon fill="#fb8072" stroke="transparent" points="645,-10 645,-30 665,-30 665,-10 645,-10"/>
<text text-anchor="start" x="668.7258" y="-15.4" font-family="sans-serif" font-size="14.00" fill="#000000"> &#160;Exports</text>
<g id="clust1" class="cluster">
<title>cluster_CoreModule</title>
<polygon fill="none" stroke="#000000" stroke-dasharray="1,5" points="8,-70 8,-195 966,-195 966,-70 8,-70"/>
</g>
<g id="clust6" class="cluster">
<title>cluster_CoreModule_providers</title>
<polygon fill="none" stroke="#000000" points="16,-78 16,-130 958,-130 958,-78 16,-78"/>
</g>
<!-- AppPermissionsService -->
<g id="node1" class="node">
<title>AppPermissionsService</title>
<ellipse fill="#fdb462" stroke="#000000" cx="847" cy="-104" rx="103.0867" ry="18"/>
<text text-anchor="middle" x="847" y="-99.8" font-family="Times,serif" font-size="14.00" fill="#000000">AppPermissionsService</text>
</g>
<!-- CoreModule -->
<g id="node6" class="node">
<title>CoreModule</title>
<polygon fill="#8dd3c7" stroke="#000000" points="458.2619,-187 455.2619,-191 434.2619,-191 431.2619,-187 371.7381,-187 371.7381,-151 458.2619,-151 458.2619,-187"/>
<text text-anchor="middle" x="415" y="-164.8" font-family="Times,serif" font-size="14.00" fill="#000000">CoreModule</text>
</g>
<!-- AppPermissionsService&#45;&gt;CoreModule -->
<g id="edge1" class="edge">
<title>AppPermissionsService&#45;&gt;CoreModule</title>
<path fill="none" stroke="#000000" d="M847,-122.2843C847,-143.3211 847,-175 847,-175 847,-175 468.3998,-175 468.3998,-175"/>
<polygon fill="#000000" stroke="#000000" points="468.3998,-171.5001 458.3998,-175 468.3997,-178.5001 468.3998,-171.5001"/>
</g>
<!-- CustomPreloadingStrategy -->
<g id="node2" class="node">
<title>CustomPreloadingStrategy</title>
<ellipse fill="#fdb462" stroke="#000000" cx="611" cy="-104" rx="115.2073" ry="18"/>
<text text-anchor="middle" x="611" y="-99.8" font-family="Times,serif" font-size="14.00" fill="#000000">CustomPreloadingStrategy</text>
</g>
<!-- CustomPreloadingStrategy&#45;&gt;CoreModule -->
<g id="edge2" class="edge">
<title>CustomPreloadingStrategy&#45;&gt;CoreModule</title>
<path fill="none" stroke="#000000" d="M611,-122.0225C611,-139.3734 611,-163 611,-163 611,-163 468.4988,-163 468.4988,-163"/>
<polygon fill="#000000" stroke="#000000" points="468.4988,-159.5001 458.4988,-163 468.4987,-166.5001 468.4988,-159.5001"/>
</g>
<!-- MenuService -->
<g id="node3" class="node">
<title>MenuService</title>
<ellipse fill="#fdb462" stroke="#000000" cx="415" cy="-104" rx="62.5392" ry="18"/>
<text text-anchor="middle" x="415" y="-99.8" font-family="Times,serif" font-size="14.00" fill="#000000">MenuService</text>
</g>
<!-- MenuService&#45;&gt;CoreModule -->
<g id="edge3" class="edge">
<title>MenuService&#45;&gt;CoreModule</title>
<path fill="none" stroke="#000000" d="M415,-122.1061C415,-122.1061 415,-140.991 415,-140.991"/>
<polygon fill="#000000" stroke="#000000" points="411.5001,-140.9909 415,-150.991 418.5001,-140.991 411.5001,-140.9909"/>
</g>
<!-- UserPortalService -->
<g id="node4" class="node">
<title>UserPortalService</title>
<ellipse fill="#fdb462" stroke="#000000" cx="253" cy="-104" rx="81.0725" ry="18"/>
<text text-anchor="middle" x="253" y="-99.8" font-family="Times,serif" font-size="14.00" fill="#000000">UserPortalService</text>
</g>
<!-- UserPortalService&#45;&gt;CoreModule -->
<g id="edge4" class="edge">
<title>UserPortalService&#45;&gt;CoreModule</title>
<path fill="none" stroke="#000000" d="M253,-122.0225C253,-139.3734 253,-163 253,-163 253,-163 361.587,-163 361.587,-163"/>
<polygon fill="#000000" stroke="#000000" points="361.587,-166.5001 371.587,-163 361.5869,-159.5001 361.587,-166.5001"/>
</g>
<!-- UtilityService -->
<g id="node5" class="node">
<title>UtilityService</title>
<ellipse fill="#fdb462" stroke="#000000" cx="89" cy="-104" rx="65.4208" ry="18"/>
<text text-anchor="middle" x="89" y="-99.8" font-family="Times,serif" font-size="14.00" fill="#000000">UtilityService</text>
</g>
<!-- UtilityService&#45;&gt;CoreModule -->
<g id="edge5" class="edge">
<title>UtilityService&#45;&gt;CoreModule</title>
<path fill="none" stroke="#000000" d="M89,-122.2843C89,-143.3211 89,-175 89,-175 89,-175 361.7097,-175 361.7097,-175"/>
<polygon fill="#000000" stroke="#000000" points="361.7098,-178.5001 371.7097,-175 361.7097,-171.5001 361.7098,-178.5001"/>
</g>
</g>
</svg>
