<?xml version="1.0" encoding="UTF-8" standalone="no"?>
<!DOCTYPE svg PUBLIC "-//W3C//DTD SVG 1.1//EN"
 "http://www.w3.org/Graphics/SVG/1.1/DTD/svg11.dtd">
<!-- Generated by graphviz version 2.40.1 (20161225.0304)
 -->
<!-- Title: dependencies Pages: 1 -->
<svg width="504pt" height="211pt"
 viewBox="0.00 0.00 504.00 211.00" xmlns="http://www.w3.org/2000/svg" xmlns:xlink="http://www.w3.org/1999/xlink">
<g id="graph0" class="graph" transform="scale(1 1) rotate(0) translate(4 207)">
<title>dependencies</title>
<polygon fill="#ffffff" stroke="transparent" points="-4,4 -4,-207 500,-207 500,4 -4,4"/>
<text text-anchor="start" x="227.0091" y="-42.4" font-family="sans-serif" font-weight="bold" font-size="14.00" fill="#000000">Legend</text>
<polygon fill="#ffffb3" stroke="transparent" points="14,-10 14,-30 34,-30 34,-10 14,-10"/>
<text text-anchor="start" x="37.629" y="-15.4" font-family="sans-serif" font-size="14.00" fill="#000000"> &#160;Declarations</text>
<polygon fill="#8dd3c7" stroke="transparent" points="127,-10 127,-30 147,-30 147,-10 127,-10"/>
<text text-anchor="start" x="150.7251" y="-15.4" font-family="sans-serif" font-size="14.00" fill="#000000"> &#160;Module</text>
<polygon fill="#80b1d3" stroke="transparent" points="213,-10 213,-30 233,-30 233,-10 213,-10"/>
<text text-anchor="start" x="236.7812" y="-15.4" font-family="sans-serif" font-size="14.00" fill="#000000"> &#160;Bootstrap</text>
<polygon fill="#fdb462" stroke="transparent" points="310,-10 310,-30 330,-30 330,-10 310,-10"/>
<text text-anchor="start" x="333.6732" y="-15.4" font-family="sans-serif" font-size="14.00" fill="#000000"> &#160;Providers</text>
<polygon fill="#fb8072" stroke="transparent" points="406,-10 406,-30 426,-30 426,-10 406,-10"/>
<text text-anchor="start" x="429.7258" y="-15.4" font-family="sans-serif" font-size="14.00" fill="#000000"> &#160;Exports</text>
<g id="clust1" class="cluster">
<title>cluster_ProcedureWithRoutingModule</title>
<polygon fill="none" stroke="#000000" stroke-dasharray="1,5" points="116,-70 116,-195 380,-195 380,-70 116,-70"/>
</g>
<g id="clust3" class="cluster">
<title>cluster_ProcedureWithRoutingModule_imports</title>
<polygon fill="none" stroke="#000000" points="124,-78 124,-130 372,-130 372,-78 124,-78"/>
</g>
<!-- ProcedureModule -->
<g id="node1" class="node">
<title>ProcedureModule</title>
<polygon fill="#8dd3c7" stroke="#000000" points="364.2978,-122 361.2978,-126 340.2978,-126 337.2978,-122 247.7022,-122 247.7022,-86 364.2978,-86 364.2978,-122"/>
<text text-anchor="middle" x="306" y="-99.8" font-family="Times,serif" font-size="14.00" fill="#000000">ProcedureModule</text>
</g>
<!-- ProcedureWithRoutingModule -->
<g id="node3" class="node">
<title>ProcedureWithRoutingModule</title>
<polygon fill="#8dd3c7" stroke="#000000" points="342.9114,-187 339.9114,-191 318.9114,-191 315.9114,-187 153.0886,-187 153.0886,-151 342.9114,-151 342.9114,-187"/>
<text text-anchor="middle" x="248" y="-164.8" font-family="Times,serif" font-size="14.00" fill="#000000">ProcedureWithRoutingModule</text>
</g>
<!-- ProcedureModule&#45;&gt;ProcedureWithRoutingModule -->
<g id="edge1" class="edge">
<title>ProcedureModule&#45;&gt;ProcedureWithRoutingModule</title>
<path fill="none" stroke="#000000" d="M295.2784,-122.1061C295.2784,-122.1061 295.2784,-140.991 295.2784,-140.991"/>
<polygon fill="#000000" stroke="#000000" points="291.7785,-140.9909 295.2784,-150.991 298.7785,-140.991 291.7785,-140.9909"/>
</g>
<!-- SharedModule -->
<g id="node2" class="node">
<title>SharedModule</title>
<polygon fill="#8dd3c7" stroke="#000000" points="230.4231,-122 227.4231,-126 206.4231,-126 203.4231,-122 131.5769,-122 131.5769,-86 230.4231,-86 230.4231,-122"/>
<text text-anchor="middle" x="181" y="-99.8" font-family="Times,serif" font-size="14.00" fill="#000000">SharedModule</text>
</g>
<!-- SharedModule&#45;&gt;ProcedureWithRoutingModule -->
<g id="edge2" class="edge">
<title>SharedModule&#45;&gt;ProcedureWithRoutingModule</title>
<path fill="none" stroke="#000000" d="M191.7528,-122.1061C191.7528,-122.1061 191.7528,-140.991 191.7528,-140.991"/>
<polygon fill="#000000" stroke="#000000" points="188.2529,-140.9909 191.7528,-150.991 195.2529,-140.991 188.2529,-140.9909"/>
</g>
</g>
</svg>
