<?xml version="1.0" encoding="UTF-8" standalone="no"?>
<!DOCTYPE svg PUBLIC "-//W3C//DTD SVG 1.1//EN"
 "http://www.w3.org/Graphics/SVG/1.1/DTD/svg11.dtd">
<!-- Generated by graphviz version 2.40.1 (20161225.0304)
 -->
<!-- Title: dependencies Pages: 1 -->
<svg width="1047pt" height="284pt"
 viewBox="0.00 0.00 1047.00 284.00" xmlns="http://www.w3.org/2000/svg" xmlns:xlink="http://www.w3.org/1999/xlink">
<g id="graph0" class="graph" transform="scale(1 1) rotate(0) translate(4 280)">
<title>dependencies</title>
<polygon fill="#ffffff" stroke="transparent" points="-4,4 -4,-280 1043,-280 1043,4 -4,4"/>
<text text-anchor="start" x="498.5091" y="-42.4" font-family="sans-serif" font-weight="bold" font-size="14.00" fill="#000000">Legend</text>
<polygon fill="#ffffb3" stroke="transparent" points="285.5,-10 285.5,-30 305.5,-30 305.5,-10 285.5,-10"/>
<text text-anchor="start" x="309.129" y="-15.4" font-family="sans-serif" font-size="14.00" fill="#000000"> &#160;Declarations</text>
<polygon fill="#8dd3c7" stroke="transparent" points="398.5,-10 398.5,-30 418.5,-30 418.5,-10 398.5,-10"/>
<text text-anchor="start" x="422.2251" y="-15.4" font-family="sans-serif" font-size="14.00" fill="#000000"> &#160;Module</text>
<polygon fill="#80b1d3" stroke="transparent" points="484.5,-10 484.5,-30 504.5,-30 504.5,-10 484.5,-10"/>
<text text-anchor="start" x="508.2812" y="-15.4" font-family="sans-serif" font-size="14.00" fill="#000000"> &#160;Bootstrap</text>
<polygon fill="#fdb462" stroke="transparent" points="581.5,-10 581.5,-30 601.5,-30 601.5,-10 581.5,-10"/>
<text text-anchor="start" x="605.1732" y="-15.4" font-family="sans-serif" font-size="14.00" fill="#000000"> &#160;Providers</text>
<polygon fill="#fb8072" stroke="transparent" points="677.5,-10 677.5,-30 697.5,-30 697.5,-10 677.5,-10"/>
<text text-anchor="start" x="701.2258" y="-15.4" font-family="sans-serif" font-size="14.00" fill="#000000"> &#160;Exports</text>
<g id="clust1" class="cluster">
<title>cluster_SummaryModule</title>
<polygon fill="none" stroke="#000000" stroke-dasharray="1,5" points="8,-70 8,-268 1031,-268 1031,-70 8,-70"/>
</g>
<g id="clust2" class="cluster">
<title>cluster_SummaryModule_declarations</title>
<polygon fill="none" stroke="#000000" points="871,-78 871,-130 1023,-130 1023,-78 871,-78"/>
</g>
<g id="clust4" class="cluster">
<title>cluster_SummaryModule_imports</title>
<polygon fill="none" stroke="#000000" points="16,-78 16,-130 863,-130 863,-78 16,-78"/>
</g>
<g id="clust5" class="cluster">
<title>cluster_SummaryModule_exports</title>
<polygon fill="none" stroke="#000000" points="415,-208 415,-260 571,-260 571,-208 415,-208"/>
</g>
<!-- SummaryComponent -->
<g id="node1" class="node">
<title>SummaryComponent</title>
<polygon fill="#ffffb3" stroke="#000000" points="1014.7716,-122 879.2284,-122 879.2284,-86 1014.7716,-86 1014.7716,-122"/>
<text text-anchor="middle" x="947" y="-99.8" font-family="Times,serif" font-size="14.00" fill="#000000">SummaryComponent</text>
</g>
<!-- SummaryModule -->
<g id="node2" class="node">
<title>SummaryModule</title>
<polygon fill="#8dd3c7" stroke="#000000" points="549.9888,-187 546.9888,-191 525.9888,-191 522.9888,-187 436.0112,-187 436.0112,-151 549.9888,-151 549.9888,-187"/>
<text text-anchor="middle" x="493" y="-164.8" font-family="Times,serif" font-size="14.00" fill="#000000">SummaryModule</text>
</g>
<!-- SummaryComponent&#45;&gt;SummaryModule -->
<g id="edge1" class="edge">
<title>SummaryComponent&#45;&gt;SummaryModule</title>
<path fill="none" stroke="#000000" d="M947,-122.2921C947,-144.2057 947,-178 947,-178 947,-178 560.0397,-178 560.0397,-178"/>
<polygon fill="#000000" stroke="#000000" points="560.0397,-174.5001 550.0397,-178 560.0397,-181.5001 560.0397,-174.5001"/>
</g>
<!-- SummaryComponent  -->
<g id="node9" class="node">
<title>SummaryComponent </title>
<polygon fill="#fb8072" stroke="#000000" points="562.7717,-252 423.2283,-252 423.2283,-216 562.7717,-216 562.7717,-252"/>
<text text-anchor="middle" x="493" y="-229.8" font-family="Times,serif" font-size="14.00" fill="#000000">SummaryComponent </text>
</g>
<!-- SummaryModule&#45;&gt;SummaryComponent  -->
<g id="edge8" class="edge">
<title>SummaryModule&#45;&gt;SummaryComponent </title>
<path fill="none" stroke="#000000" stroke-dasharray="5,2" d="M493,-187.1061C493,-187.1061 493,-205.991 493,-205.991"/>
<polygon fill="#000000" stroke="#000000" points="489.5001,-205.9909 493,-215.991 496.5001,-205.991 489.5001,-205.9909"/>
</g>
<!-- DefinitionModule -->
<g id="node3" class="node">
<title>DefinitionModule</title>
<polygon fill="#8dd3c7" stroke="#000000" points="854.594,-122 851.594,-126 830.594,-126 827.594,-122 737.406,-122 737.406,-86 854.594,-86 854.594,-122"/>
<text text-anchor="middle" x="796" y="-99.8" font-family="Times,serif" font-size="14.00" fill="#000000">DefinitionModule</text>
</g>
<!-- DefinitionModule&#45;&gt;SummaryModule -->
<g id="edge2" class="edge">
<title>DefinitionModule&#45;&gt;SummaryModule</title>
<path fill="none" stroke="#000000" d="M796,-122.1061C796,-141.3391 796,-169 796,-169 796,-169 559.992,-169 559.992,-169"/>
<polygon fill="#000000" stroke="#000000" points="559.992,-165.5001 549.992,-169 559.9919,-172.5001 559.992,-165.5001"/>
</g>
<!-- DocumentationModule -->
<g id="node4" class="node">
<title>DocumentationModule</title>
<polygon fill="#8dd3c7" stroke="#000000" points="719.8627,-122 716.8627,-126 695.8627,-126 692.8627,-122 574.1373,-122 574.1373,-86 719.8627,-86 719.8627,-122"/>
<text text-anchor="middle" x="647" y="-99.8" font-family="Times,serif" font-size="14.00" fill="#000000">DocumentationModule</text>
</g>
<!-- DocumentationModule&#45;&gt;SummaryModule -->
<g id="edge3" class="edge">
<title>DocumentationModule&#45;&gt;SummaryModule</title>
<path fill="none" stroke="#000000" d="M647,-122.027C647,-138.3976 647,-160 647,-160 647,-160 560.3439,-160 560.3439,-160"/>
<polygon fill="#000000" stroke="#000000" points="560.344,-156.5001 550.3439,-160 560.3439,-163.5001 560.344,-156.5001"/>
</g>
<!-- ParticipantsModule -->
<g id="node5" class="node">
<title>ParticipantsModule</title>
<polygon fill="#8dd3c7" stroke="#000000" points="555.6443,-122 552.6443,-126 531.6443,-126 528.6443,-122 430.3557,-122 430.3557,-86 555.6443,-86 555.6443,-122"/>
<text text-anchor="middle" x="493" y="-99.8" font-family="Times,serif" font-size="14.00" fill="#000000">ParticipantsModule</text>
</g>
<!-- ParticipantsModule&#45;&gt;SummaryModule -->
<g id="edge4" class="edge">
<title>ParticipantsModule&#45;&gt;SummaryModule</title>
<path fill="none" stroke="#000000" d="M493,-122.1061C493,-122.1061 493,-140.991 493,-140.991"/>
<polygon fill="#000000" stroke="#000000" points="489.5001,-140.9909 493,-150.991 496.5001,-140.991 489.5001,-140.9909"/>
</g>
<!-- ProcedureModule -->
<g id="node6" class="node">
<title>ProcedureModule</title>
<polygon fill="#8dd3c7" stroke="#000000" points="412.2978,-122 409.2978,-126 388.2978,-126 385.2978,-122 295.7022,-122 295.7022,-86 412.2978,-86 412.2978,-122"/>
<text text-anchor="middle" x="354" y="-99.8" font-family="Times,serif" font-size="14.00" fill="#000000">ProcedureModule</text>
</g>
<!-- ProcedureModule&#45;&gt;SummaryModule -->
<g id="edge5" class="edge">
<title>ProcedureModule&#45;&gt;SummaryModule</title>
<path fill="none" stroke="#000000" d="M354,-122.027C354,-138.3976 354,-160 354,-160 354,-160 425.6609,-160 425.6609,-160"/>
<polygon fill="#000000" stroke="#000000" points="425.6609,-163.5001 435.6609,-160 425.6608,-156.5001 425.6609,-163.5001"/>
</g>
<!-- SharedModule -->
<g id="node7" class="node">
<title>SharedModule</title>
<polygon fill="#8dd3c7" stroke="#000000" points="278.4231,-122 275.4231,-126 254.4231,-126 251.4231,-122 179.5769,-122 179.5769,-86 278.4231,-86 278.4231,-122"/>
<text text-anchor="middle" x="229" y="-99.8" font-family="Times,serif" font-size="14.00" fill="#000000">SharedModule</text>
</g>
<!-- SharedModule&#45;&gt;SummaryModule -->
<g id="edge6" class="edge">
<title>SharedModule&#45;&gt;SummaryModule</title>
<path fill="none" stroke="#000000" d="M229,-122.1061C229,-141.3391 229,-169 229,-169 229,-169 425.7159,-169 425.7159,-169"/>
<polygon fill="#000000" stroke="#000000" points="425.716,-172.5001 435.7159,-169 425.7159,-165.5001 425.716,-172.5001"/>
</g>
<!-- SharedPrivateModule -->
<g id="node8" class="node">
<title>SharedPrivateModule</title>
<polygon fill="#8dd3c7" stroke="#000000" points="162.0758,-122 159.0758,-126 138.0758,-126 135.0758,-122 23.9242,-122 23.9242,-86 162.0758,-86 162.0758,-122"/>
<text text-anchor="middle" x="93" y="-99.8" font-family="Times,serif" font-size="14.00" fill="#000000">SharedPrivateModule</text>
</g>
<!-- SharedPrivateModule&#45;&gt;SummaryModule -->
<g id="edge7" class="edge">
<title>SharedPrivateModule&#45;&gt;SummaryModule</title>
<path fill="none" stroke="#000000" d="M93,-122.2921C93,-144.2057 93,-178 93,-178 93,-178 425.6898,-178 425.6898,-178"/>
<polygon fill="#000000" stroke="#000000" points="425.6898,-181.5001 435.6898,-178 425.6897,-174.5001 425.6898,-181.5001"/>
</g>
</g>
</svg>
